<svg width="145" height="201" viewBox="0 0 145 201" fill="none" xmlns="http://www.w3.org/2000/svg">
<path d="M119.913 101.442C115.575 100.502 111.067 100.007 106.441 100.007C104.993 100.007 103.557 100.056 102.133 100.151V0H119.913V101.442Z" fill="url(#paint0_linear_320_240)"/>
<path d="M88.8945 102.471C63.0717 109.911 44.215 133.353 44.2148 161.121C44.2148 166.899 45.0318 172.491 46.5576 177.789H0V23.4062C0 10.4797 10.4788 0.00021719 23.4053 0H88.8945V102.471ZM66.4385 77.7832C60.3017 77.7833 55.3272 82.7577 55.3271 88.8945C55.3271 95.0314 60.3017 100.007 66.4385 100.007C72.5754 100.007 77.5508 95.0314 77.5508 88.8945C77.5508 82.7577 72.5754 77.7832 66.4385 77.7832Z" fill="url(#paint1_linear_320_240)"/>
<path d="M101.996 115.563C125.316 115.563 144.222 134.468 144.222 157.788C144.222 181.108 125.316 200.013 101.996 200.013C78.6762 200.013 59.7717 181.108 59.7717 157.788C59.7718 134.468 78.6763 115.563 101.996 115.563ZM101.377 142.799C96.0891 142.799 91.8022 147.086 91.8019 152.374C91.802 155.54 93.3394 158.346 95.7082 160.088C96.4617 160.643 96.9378 161.543 96.7766 162.464L94.3654 176.24C94.1376 177.542 95.1403 178.735 96.4621 178.735H106.291C107.613 178.735 108.615 177.542 108.387 176.24L105.977 162.464C105.815 161.543 106.29 160.643 107.044 160.088C109.413 158.346 110.952 155.54 110.952 152.374C110.952 147.086 106.665 142.8 101.377 142.799Z" fill="url(#paint2_linear_320_240)"/>
<defs>
<linearGradient id="paint0_linear_320_240" x1="111.023" y1="7.61986e-06" x2="132.193" y2="1.11431" gradientUnits="userSpaceOnUse">
<stop stop-color="#2767BC"/>
<stop offset="0.610577" stop-color="#142699"/>
<stop offset="1" stop-color="#070D33"/>
</linearGradient>
<linearGradient id="paint1_linear_320_240" x1="44.4473" y1="1.33547e-05" x2="148.248" y2="15.5868" gradientUnits="userSpaceOnUse">
<stop stop-color="#2767BC"/>
<stop offset="0.610577" stop-color="#142699"/>
<stop offset="1" stop-color="#070D33"/>
</linearGradient>
<linearGradient id="paint2_linear_320_240" x1="101.997" y1="115.563" x2="101.997" y2="200.013" gradientUnits="userSpaceOnUse">
<stop stop-color="#9A42E6"/>
<stop offset="1" stop-color="#562580"/>
</linearGradient>
</defs>
</svg>
