<svg width="203" height="171" viewBox="0 0 203 171" fill="none" xmlns="http://www.w3.org/2000/svg">
<path d="M156.476 63.7565L146.137 82.7712L113.972 78.2966L127.394 58.694V40.2673H120.683V26.8444H163.187V40.2673H156.476V63.7565Z" fill="url(#paint0_linear_320_129)"/>
<path d="M100.55 0H185.558V14.5409C185.558 14.5409 150.883 21.252 144.172 21.252C137.461 21.252 100.55 14.5409 100.55 14.5409V0Z" fill="url(#paint1_linear_320_129)"/>
<path d="M0 114.824L21.252 121.037L60.7386 95.6092C45.1418 64.0374 10.2782 70.379 0 114.824Z" fill="url(#paint2_linear_320_129)"/>
<path d="M53.6848 85.3253C59.1983 91.1137 63.3842 99.0444 63.7317 105.473C61.1403 103.93 58.4153 103.141 55.926 103.141C47.7117 103.141 36.9115 111.704 36.9114 127.748C36.9114 143.792 47.7116 152.355 55.926 152.356C64.1405 152.356 74.9417 143.793 74.9417 127.748C74.9416 127.206 74.9277 126.673 74.9036 126.148L92.801 129.58C91.9679 152.205 75.7786 170.252 55.926 170.252C35.5405 170.252 19.0149 151.222 19.0149 127.748C19.0151 105.141 34.3432 86.6596 53.6848 85.3253ZM85.1721 101.818C88.7403 107.146 91.2356 113.477 92.2834 120.381L75.8889 118.242L85.1721 101.818Z" fill="url(#paint3_linear_320_129)"/>
<path d="M73.8229 117.682C73.4221 100.754 69.0483 89.2205 55.9264 76.2963H170.016C213.639 99.7854 212.52 152.356 170.016 170.253H86.1267C99.8585 152.308 102.735 141.44 101.786 121.037L73.8229 117.682Z" fill="url(#paint4_linear_320_129)"/>
<defs>
<linearGradient id="paint0_linear_320_129" x1="138.58" y1="26.8444" x2="193.507" y2="41.3605" gradientUnits="userSpaceOnUse">
<stop stop-color="#2767BC"/>
<stop offset="0.610577" stop-color="#142699"/>
<stop offset="1" stop-color="#070D33"/>
</linearGradient>
<linearGradient id="paint1_linear_320_129" x1="143.054" y1="1.59635e-06" x2="184.6" y2="49.9089" gradientUnits="userSpaceOnUse">
<stop stop-color="#2767BC"/>
<stop offset="0.610577" stop-color="#142699"/>
<stop offset="1" stop-color="#070D33"/>
</linearGradient>
<linearGradient id="paint2_linear_320_129" x1="30.3693" y1="75.9047" x2="30.3693" y2="121.037" gradientUnits="userSpaceOnUse">
<stop stop-color="#9A42E6"/>
<stop offset="1" stop-color="#562580"/>
</linearGradient>
<linearGradient id="paint3_linear_320_129" x1="55.908" y1="85.3253" x2="55.908" y2="170.252" gradientUnits="userSpaceOnUse">
<stop stop-color="#9A42E6"/>
<stop offset="1" stop-color="#562580"/>
</linearGradient>
<linearGradient id="paint4_linear_320_129" x1="129.121" y1="76.2963" x2="272.516" y2="143.393" gradientUnits="userSpaceOnUse">
<stop stop-color="#2767BC"/>
<stop offset="0.610577" stop-color="#142699"/>
<stop offset="1" stop-color="#070D33"/>
</linearGradient>
</defs>
</svg>
