<svg width="202" height="163" viewBox="0 0 202 163" fill="none" xmlns="http://www.w3.org/2000/svg">
<path d="M80.6201 73.062C87.5771 73.062 93.2167 78.7017 93.2168 85.6587V161.241H0V85.6587C0.000123671 78.7018 5.63978 73.0621 12.5967 73.062H80.6201ZM45.3486 110.853C38.3916 110.853 32.752 116.493 32.752 123.45C32.752 130.407 38.3917 136.046 45.3486 136.046C52.3057 136.046 57.9453 130.407 57.9453 123.45C57.9453 116.493 52.3057 110.853 45.3486 110.853Z" fill="url(#paint0_linear_320_63)"/>
<path d="M93.2168 68.0233H0V35.2713H93.2168V68.0233ZM59.2051 47.868C57.1181 47.8681 55.4268 49.5603 55.4268 51.6473C55.4268 53.7343 57.1181 55.4264 59.2051 55.4266H76.8408C78.9279 55.4266 80.6201 53.7344 80.6201 51.6473C80.6201 49.5602 78.9279 47.868 76.8408 47.868H59.2051Z" fill="url(#paint1_linear_320_63)"/>
<path d="M93.2168 30.2324H0V0H93.2168V30.2324ZM65.5039 12.165L72.6299 19.29L79.7559 12.165L72.6299 5.03906L65.5039 12.165Z" fill="url(#paint2_linear_320_63)"/>
<path d="M201.551 125.969H181.395V123.45H166.279V125.969H98.2557V110.853H191.473V22.6742H98.2557V10.0775H201.551V125.969Z" fill="url(#paint3_linear_320_63)"/>
<path d="M158.995 162.5H103.295C101.903 162.5 100.775 161.372 100.775 159.981V151.163C100.775 149.771 101.903 148.643 103.295 148.643H105.814C107.205 148.643 108.333 147.515 108.333 146.124V137.656C108.333 136.135 109.67 134.961 111.179 135.158L135.113 138.28C136.367 138.443 137.306 139.513 137.306 140.778V146.124C137.306 147.515 138.434 148.643 139.826 148.643H147.772C148.337 148.643 148.885 148.833 149.329 149.182L160.551 158C162.433 159.478 161.387 162.5 158.995 162.5Z" fill="url(#paint4_linear_320_63)"/>
<path d="M137.811 58.1824L149.808 70.1793L122.21 97.7781C120.242 99.7459 117.051 99.7459 115.084 97.7781L110.213 92.9071C108.245 90.9394 108.245 87.749 110.213 85.7812L137.811 58.1824Z" fill="url(#paint5_linear_320_63)"/>
<path d="M149.903 65.5038L142.546 58.1465C141.696 57.2973 141.654 55.9858 141.964 54.8254C142.735 51.9353 140.53 49.4257 137.306 45.3488C134.226 41.4541 123.45 34.2915 124.709 34.0116C130.177 32.7964 143.935 34.7071 148.899 36.3514C149.239 36.464 149.54 36.6619 149.793 36.9152L162.527 49.6497C163 50.1221 163.265 50.7629 163.265 51.4311V55.5068C163.265 56.2365 163.655 56.9108 164.287 57.2756C164.756 57.5465 165.313 57.6199 165.836 57.4797L167.393 57.0625C168.263 56.8295 169.19 57.0781 169.827 57.7145L175.835 63.7224C176.819 64.7063 176.819 66.3014 175.835 67.2853L165.541 77.579C164.557 78.5628 162.962 78.5628 161.978 77.579L156.939 72.5402C156.467 72.0677 156.201 71.4269 156.201 70.7587V67.8071C156.201 67.1389 155.936 66.4981 155.464 66.0256L154.942 65.5038C154.246 64.8081 153.118 64.8081 152.422 65.5038C151.727 66.1996 150.599 66.1996 149.903 65.5038Z" fill="url(#paint6_linear_320_63)"/>
<defs>
<linearGradient id="paint0_linear_320_63" x1="46.6084" y1="73.062" x2="147.719" y2="105.163" gradientUnits="userSpaceOnUse">
<stop stop-color="#2767BC"/>
<stop offset="0.610577" stop-color="#142699"/>
<stop offset="1" stop-color="#070D33"/>
</linearGradient>
<linearGradient id="paint1_linear_320_63" x1="46.6084" y1="35.2713" x2="110.922" y2="90.2441" gradientUnits="userSpaceOnUse">
<stop stop-color="#2767BC"/>
<stop offset="0.610577" stop-color="#142699"/>
<stop offset="1" stop-color="#070D33"/>
</linearGradient>
<linearGradient id="paint2_linear_320_63" x1="46.6084" y1="2.27091e-06" x2="106.53" y2="55.487" gradientUnits="userSpaceOnUse">
<stop stop-color="#2767BC"/>
<stop offset="0.610577" stop-color="#142699"/>
<stop offset="1" stop-color="#070D33"/>
</linearGradient>
<linearGradient id="paint3_linear_320_63" x1="149.903" y1="10.0775" x2="264.993" y2="40.8845" gradientUnits="userSpaceOnUse">
<stop stop-color="#2767BC"/>
<stop offset="0.610577" stop-color="#142699"/>
<stop offset="1" stop-color="#070D33"/>
</linearGradient>
<linearGradient id="paint4_linear_320_63" x1="133.527" y1="134.787" x2="185.534" y2="171.704" gradientUnits="userSpaceOnUse">
<stop stop-color="#2767BC"/>
<stop offset="0.610577" stop-color="#142699"/>
<stop offset="1" stop-color="#070D33"/>
</linearGradient>
<linearGradient id="paint5_linear_320_63" x1="143.81" y1="64.1809" x2="112.648" y2="95.3426" gradientUnits="userSpaceOnUse">
<stop stop-color="#9A42E6"/>
<stop offset="1" stop-color="#562580"/>
</linearGradient>
<linearGradient id="paint6_linear_320_63" x1="151.112" y1="33.6273" x2="151.112" y2="79.3604" gradientUnits="userSpaceOnUse">
<stop stop-color="#9A42E6"/>
<stop offset="1" stop-color="#562580"/>
</linearGradient>
</defs>
</svg>
