<svg width="200" height="200" viewBox="0 0 200 200" fill="none" xmlns="http://www.w3.org/2000/svg">
<path d="M14.2861 165.715C14.2864 175.034 21.7232 182.617 30.9863 182.852L31.4287 182.857H168.572C169.546 182.857 170.5 182.775 171.429 182.619V182.857C171.428 192.325 163.754 200 154.286 200H17.1426C7.6751 200 0.000222662 192.325 0 182.857V45.7139C0.000194212 37.2196 6.17832 30.1686 14.2861 28.8086V165.715Z" fill="url(#paint0_linear_320_28)"/>
<path d="M74.2853 0C72.4918 2.38761 71.4289 5.3552 71.4288 8.57129V31.4287C71.4289 39.3183 77.8244 45.7137 85.714 45.7139H137.143C145.032 45.7139 151.429 39.3184 151.429 31.4287V8.57129C151.429 5.35531 150.366 2.38757 148.572 0H160.042C164.589 2.0205e-05 168.949 1.80659 172.164 5.02148L194.979 27.8359C198.194 31.0508 200 35.4114 200 39.958V154.286C200 163.754 192.325 171.428 182.858 171.429H45.714C36.2465 171.429 28.5716 163.754 28.5714 154.286V17.1426C28.5716 7.67505 36.2465 0.000151535 45.714 0H74.2853ZM77.1427 85.7139C67.675 85.7139 60.0001 93.3897 60.0001 102.857V154.286H165.714V102.857C165.714 93.3897 158.039 85.7139 148.571 85.7139H77.1427Z" fill="url(#paint1_linear_320_28)"/>
<rect x="114.286" width="17.1429" height="25.7143" fill="url(#paint2_linear_320_28)"/>
<defs>
<linearGradient id="paint0_linear_320_28" x1="85.7144" y1="28.8086" x2="85.7144" y2="200" gradientUnits="userSpaceOnUse">
<stop stop-color="#9A42E6"/>
<stop offset="1" stop-color="#562580"/>
</linearGradient>
<linearGradient id="paint1_linear_320_28" x1="114.286" y1="1.28769e-05" x2="302.04" y2="56.3867" gradientUnits="userSpaceOnUse">
<stop stop-color="#2767BC"/>
<stop offset="0.610577" stop-color="#142699"/>
<stop offset="1" stop-color="#070D33"/>
</linearGradient>
<linearGradient id="paint2_linear_320_28" x1="122.857" y1="1.93153e-06" x2="142.537" y2="3.94021" gradientUnits="userSpaceOnUse">
<stop stop-color="#2767BC"/>
<stop offset="0.610577" stop-color="#142699"/>
<stop offset="1" stop-color="#070D33"/>
</linearGradient>
</defs>
</svg>
