<svg width="212" height="192" viewBox="0 0 212 192" fill="none" xmlns="http://www.w3.org/2000/svg">
<path d="M132.369 72.0721L148.945 93.733L51.7256 168.13C49.5308 169.81 46.3901 169.392 44.7105 167.197L34.2168 153.484C32.5372 151.29 32.9549 148.149 35.1496 146.469L132.369 72.0721Z" fill="url(#paint0_linear_320_146)"/>
<path d="M153.304 88.1118L138.411 68.6508C137.686 67.7037 137.759 66.3889 138.419 65.3952C142.604 59.0899 138.602 53.2188 132.574 43.0919C127.395 34.3922 107.539 17.0189 110.161 16.7917C121.75 15.787 149.851 23.6487 158.939 28.279C159.256 28.4405 159.517 28.6687 159.733 28.9511L183.058 59.4303C183.461 59.9573 183.638 60.6229 183.551 61.2807L182.185 71.5516C182.067 72.4377 182.431 73.3193 183.139 73.8644L184.446 74.8696C184.972 75.2742 185.637 75.4534 186.295 75.3676L191.745 74.6574C192.631 74.5419 193.512 74.908 194.055 75.6179L207.109 92.676C207.949 93.7734 207.74 95.3438 206.643 96.1836L178.886 117.424C177.788 118.264 176.218 118.055 175.378 116.958L164.284 102.46C163.881 101.933 163.703 101.268 163.791 100.61L164.872 92.4805C164.959 91.8227 164.782 91.1571 164.379 90.6301L162.114 87.6709C161.274 86.5735 159.704 86.3647 158.607 87.2045L156.811 88.5783C155.714 89.418 154.143 89.2092 153.304 88.1118Z" fill="url(#paint1_linear_320_146)"/>
<path d="M78.9257 74.8569L64.6871 93.6604L162.313 167.586C164.517 169.255 167.655 168.821 169.323 166.618L177.52 155.793C179.189 153.59 178.755 150.451 176.552 148.783L78.9257 74.8569Z" fill="url(#paint2_linear_320_146)"/>
<path d="M59.1864 89.5321L73.98 69.9958C74.7 69.045 74.6204 67.7305 73.9558 66.7402C69.7386 60.4562 73.711 54.5649 79.6877 44.4075C84.822 35.6817 104.589 18.2079 101.967 17.994C90.3723 17.0481 62.3119 25.0522 53.2472 29.7287C52.9312 29.8917 52.6714 30.1212 52.4568 30.4047L29.2875 61.0019C28.8869 61.531 28.7129 62.1975 28.8037 62.8548L30.2216 73.1186C30.344 74.0041 29.9846 74.8876 29.2789 75.4363L27.9776 76.4481C27.4538 76.8554 26.7895 77.0379 26.1311 76.9555L20.6774 76.2729C19.7904 76.1619 18.9116 76.5325 18.372 77.2451L5.40498 94.3692C4.57079 95.4709 4.78759 97.0402 5.88922 97.8744L33.7534 118.974C34.8551 119.808 36.4244 119.592 37.2586 118.49L48.2792 103.936C48.6798 103.407 48.8538 102.741 48.763 102.083L47.6407 93.9594C47.5499 93.3021 47.7239 92.6356 48.1245 92.1065L50.374 89.1359C51.2082 88.0343 52.7775 87.8175 53.8791 88.6517L55.6813 90.0163C56.7829 90.8505 58.3522 90.6337 59.1864 89.5321Z" fill="url(#paint3_linear_320_146)"/>
<defs>
<linearGradient id="paint0_linear_320_146" x1="140.657" y1="82.9026" x2="158.712" y2="109.927" gradientUnits="userSpaceOnUse">
<stop stop-color="#2767BC"/>
<stop offset="0.610577" stop-color="#142699"/>
<stop offset="1" stop-color="#070D33"/>
</linearGradient>
<linearGradient id="paint1_linear_320_146" x1="163.628" y1="23.1115" x2="272.446" y2="78.0033" gradientUnits="userSpaceOnUse">
<stop stop-color="#2767BC"/>
<stop offset="0.610577" stop-color="#142699"/>
<stop offset="1" stop-color="#070D33"/>
</linearGradient>
<linearGradient id="paint2_linear_320_146" x1="71.8064" y1="84.2587" x2="173.422" y2="161.206" gradientUnits="userSpaceOnUse">
<stop stop-color="#9A42E6"/>
<stop offset="1" stop-color="#562580"/>
</linearGradient>
<linearGradient id="paint3_linear_320_146" x1="48.5327" y1="24.585" x2="61.2939" y2="116.955" gradientUnits="userSpaceOnUse">
<stop stop-color="#9A42E6"/>
<stop offset="1" stop-color="#562580"/>
</linearGradient>
</defs>
</svg>
