<svg width="200" height="142" viewBox="0 0 200 142" fill="none" xmlns="http://www.w3.org/2000/svg">
<rect x="38.8467" y="132.761" width="79.9784" height="9.14039" rx="4.57019" fill="url(#paint0_linear_320_102)"/>
<path d="M132.535 0C146.417 0 157.672 11.2536 157.672 25.1357V92.5625C157.672 106.445 146.417 117.698 132.535 117.698H25.1357C11.2536 117.698 0 106.445 0 92.5625V25.1357C0.000206021 11.2538 11.2538 0.000172115 25.1357 0H132.535ZM77.7256 97.7119C74.0463 97.7119 71.0636 100.695 71.0635 104.374C71.0635 108.053 74.0462 111.036 77.7256 111.036C81.4049 111.036 84.3877 108.053 84.3877 104.374C84.3875 100.695 81.4048 97.712 77.7256 97.7119ZM11.1035 81.9094C11.1035 86.9575 15.1958 91.0498 20.2439 91.0498H135.207C140.255 91.0498 144.348 86.9575 144.348 81.9094V26.906C144.348 21.8579 140.255 17.7656 135.207 17.7656H20.2439C15.1958 17.7656 11.1035 21.8579 11.1035 26.906V81.9094Z" fill="url(#paint1_linear_320_102)"/>
<path d="M176.738 51.4303H183.593V110.843C183.593 114.629 180.524 117.698 176.738 117.698V117.698V51.4303Z" fill="url(#paint2_linear_320_102)"/>
<path d="M199.589 56.0005H160.742V34.0582H176.738V41.2994H183.593V34.0582H199.589V56.0005ZM199.589 32.2408H183.593V29.65H176.738V32.2408H160.742V17.1539H199.589V32.2408Z" fill="url(#paint3_linear_320_102)"/>
<defs>
<linearGradient id="paint0_linear_320_102" x1="78.8359" y1="132.761" x2="90.9156" y2="164.504" gradientUnits="userSpaceOnUse">
<stop stop-color="#2767BC"/>
<stop offset="0.610577" stop-color="#142699"/>
<stop offset="1" stop-color="#070D33"/>
</linearGradient>
<linearGradient id="paint1_linear_320_102" x1="78.8358" y1="8.84091e-06" x2="240.871" y2="65.1899" gradientUnits="userSpaceOnUse">
<stop stop-color="#2767BC"/>
<stop offset="0.610577" stop-color="#142699"/>
<stop offset="1" stop-color="#070D33"/>
</linearGradient>
<linearGradient id="paint2_linear_320_102" x1="180.165" y1="51.4303" x2="180.165" y2="117.698" gradientUnits="userSpaceOnUse">
<stop stop-color="#9A42E6"/>
<stop offset="1" stop-color="#562580"/>
</linearGradient>
<linearGradient id="paint3_linear_320_102" x1="180.165" y1="17.1539" x2="180.165" y2="56.0005" gradientUnits="userSpaceOnUse">
<stop stop-color="#9A42E6"/>
<stop offset="1" stop-color="#562580"/>
</linearGradient>
</defs>
</svg>
