<svg width="199" height="195" viewBox="0 0 199 195" fill="none" xmlns="http://www.w3.org/2000/svg">
<path d="M133.142 103.145L118.554 79.8453L68.6039 111.119L64.2692 129.97L85.885 134.941L89.0775 121.056L100.383 123.656L102.982 112.351L114.288 114.95L133.142 103.145Z" fill="url(#paint0_linear_320_178)"/>
<path d="M40.6894 126.028V78.178C40.6894 72.3606 44.1746 67.1094 49.5351 64.8498L76.9807 53.2806C82.3412 51.021 85.8264 45.7698 85.8264 39.9524V25.0523C85.8264 13.9179 73.7731 6.95896 64.1305 12.5261L7.23196 45.3765C2.75681 47.9603 0 52.7352 0 57.9027V132.819C0 143.953 12.0533 150.912 21.6959 145.345L33.4575 138.554C37.9326 135.971 40.6894 131.196 40.6894 126.028Z" fill="url(#paint1_linear_320_178)"/>
<path d="M141.511 108.249C143.513 109.072 145.587 109.737 147.714 110.24V144.735C147.714 172.319 125.353 194.68 97.7694 194.68V130.455L105.925 133.704L107.07 118.068L121.636 123.867L142.938 110.529L141.511 108.249ZM100.189 17.0981C114.704 17.0981 127.698 23.6073 136.415 33.8637C121.708 42.3903 113.189 59.483 116.373 77.1645L97.7694 88.8119V17.0981H100.189Z" fill="url(#paint2_linear_320_178)"/>
<path d="M85.8263 156.244C85.8263 156.244 32.0434 154.399 29.1564 156.244C22.5241 166.061 31.0666 175.028 60.675 192.539C75.3201 197.314 81.9885 194.275 85.8263 184.261V156.244Z" fill="url(#paint3_linear_320_178)"/>
<path d="M192.546 63.3524C196.11 82.8458 183.197 101.537 163.704 105.101C144.21 108.665 125.519 95.7521 121.955 76.2587C118.391 56.7654 131.304 38.0738 150.797 34.5097C170.291 30.9458 188.982 43.8591 192.546 63.3524ZM185.155 64.7047C184.181 59.3747 179.07 55.844 173.74 56.8185C168.411 57.793 164.88 62.9036 165.854 68.2335C166.829 73.5633 171.939 77.0941 177.269 76.1197C182.599 75.1452 186.13 70.0345 185.155 64.7047Z" fill="url(#paint4_linear_320_178)"/>
<defs>
<linearGradient id="paint0_linear_320_178" x1="126.345" y1="92.2883" x2="64.8014" y2="130.82" gradientUnits="userSpaceOnUse">
<stop stop-color="#9A42E6"/>
<stop offset="1" stop-color="#562580"/>
</linearGradient>
<linearGradient id="paint1_linear_320_178" x1="42.9132" y1="1.18585e-05" x2="142.73" y2="16.2971" gradientUnits="userSpaceOnUse">
<stop stop-color="#2767BC"/>
<stop offset="0.610577" stop-color="#142699"/>
<stop offset="1" stop-color="#070D33"/>
</linearGradient>
<linearGradient id="paint2_linear_320_178" x1="122.742" y1="17.0981" x2="181.953" y2="22.0994" gradientUnits="userSpaceOnUse">
<stop stop-color="#2767BC"/>
<stop offset="0.610577" stop-color="#142699"/>
<stop offset="1" stop-color="#070D33"/>
</linearGradient>
<linearGradient id="paint3_linear_320_178" x1="56.4333" y1="155.424" x2="114.852" y2="181.649" gradientUnits="userSpaceOnUse">
<stop stop-color="#2767BC"/>
<stop offset="0.610577" stop-color="#142699"/>
<stop offset="1" stop-color="#070D33"/>
</linearGradient>
<linearGradient id="paint4_linear_320_178" x1="192.546" y1="63.3524" x2="121.955" y2="76.2587" gradientUnits="userSpaceOnUse">
<stop stop-color="#9A42E6"/>
<stop offset="1" stop-color="#562580"/>
</linearGradient>
</defs>
</svg>
