<svg width="1920" height="1080" viewBox="0 0 1920 1080" fill="none" xmlns="http://www.w3.org/2000/svg">
<rect width="1920" height="1080" fill="white"/>
<path d="M-663.121 330.167C-663.121 330.167 -483.925 274.116 -447.94 475.517C-435.958 542.577 -477.794 797.494 -164.88 752.959C148.034 708.424 -18.703 1042.95 216.757 992.008C452.218 941.068 362.934 1156.14 467.145 1127.61C571.356 1099.07 599.511 1190.57 604.872 1186.67" stroke="url(#paint0_linear_80_348)" stroke-width="6.19632"/>
<path d="M-689.877 392.537C-689.877 392.537 -510.68 336.486 -474.696 537.888C-462.714 604.947 -504.55 859.864 -191.636 815.33C121.278 770.795 -45.459 1105.32 190.001 1054.38C425.462 1003.44 336.178 1218.51 440.389 1189.98C544.6 1161.44 572.755 1252.94 578.116 1249.04" stroke="url(#paint1_linear_80_348)" stroke-width="6.19632"/>
<path d="M-722.549 452.247C-722.549 452.247 -543.352 396.196 -507.368 597.598C-495.386 664.657 -537.222 919.574 -224.307 875.04C88.6069 830.505 -78.1305 1165.03 157.33 1114.09C392.79 1063.15 303.507 1278.22 407.718 1249.69C511.928 1221.15 540.084 1312.65 545.444 1308.75" stroke="url(#paint2_linear_80_348)" stroke-width="6.19632"/>
<path d="M-755.22 505.761C-755.22 505.761 -576.024 449.71 -540.039 651.111C-528.057 718.171 -569.893 973.088 -256.979 928.553C55.9354 884.019 -110.802 1218.54 124.658 1167.6C360.119 1116.66 270.835 1331.73 375.046 1303.2C479.257 1274.67 507.412 1366.16 512.773 1362.26" stroke="url(#paint3_linear_80_348)" stroke-width="6.19632"/>
<path d="M-790.708 553.642C-790.708 553.642 -611.512 497.59 -575.527 698.992C-563.545 766.052 -605.381 1020.97 -292.467 976.434C20.4474 931.899 -146.29 1266.42 89.1703 1215.48C324.631 1164.54 235.347 1379.61 339.558 1351.08C443.769 1322.55 471.924 1414.04 477.285 1410.14" stroke="url(#paint4_linear_80_348)" stroke-width="6.19632"/>
<path d="M-826.196 604.339C-826.196 604.339 -647 548.288 -611.015 749.689C-599.033 816.749 -640.869 1071.67 -327.955 1027.13C-15.0406 982.596 -181.778 1317.12 53.6822 1266.18C289.143 1215.24 199.859 1430.31 304.07 1401.78C408.281 1373.25 436.436 1464.74 441.797 1460.84" stroke="url(#paint5_linear_80_348)" stroke-width="6.19632"/>
<path d="M-854.925 635.884C-854.925 635.884 -675.728 579.833 -639.743 781.234C-627.762 848.294 -669.598 1103.21 -356.683 1058.68C-43.769 1014.14 -210.506 1348.67 24.9538 1297.73C260.414 1246.79 171.131 1461.86 275.342 1433.32C379.553 1404.79 407.708 1496.29 413.068 1492.38" stroke="url(#paint6_linear_80_348)" stroke-width="6.19632"/>
<path d="M-881.681 698.254C-881.681 698.254 -702.484 642.203 -666.5 843.605C-654.518 910.664 -696.354 1165.58 -383.439 1121.05C-70.5251 1076.51 -237.263 1411.04 -1.80226 1360.1C233.658 1309.16 144.375 1524.23 248.586 1495.69C352.796 1467.16 380.952 1558.66 386.312 1554.76" stroke="url(#paint7_linear_80_348)" stroke-width="6.19632"/>
<path d="M-914.352 757.964C-914.352 757.964 -735.156 701.913 -699.171 903.315C-687.189 970.374 -729.025 1225.29 -416.111 1180.76C-103.197 1136.22 -269.934 1470.75 -34.4737 1419.81C200.987 1368.87 111.703 1583.94 215.914 1555.4C320.125 1526.87 348.28 1618.37 353.641 1614.47" stroke="url(#paint8_linear_80_348)" stroke-width="6.19632"/>
<path d="M-947.024 811.478C-947.024 811.478 -767.827 755.427 -731.843 956.828C-719.861 1023.89 -761.697 1278.81 -448.782 1234.27C-135.868 1189.74 -302.605 1524.26 -67.1452 1473.32C168.315 1422.38 79.0317 1637.45 183.243 1608.92C287.453 1580.39 315.609 1671.88 320.969 1667.98" stroke="url(#paint9_linear_80_348)" stroke-width="6.19632"/>
<path d="M-982.512 859.359C-982.512 859.359 -803.315 803.307 -767.331 1004.71C-755.349 1071.77 -797.185 1326.69 -484.27 1282.15C-171.356 1237.62 -338.094 1572.14 -102.633 1521.2C132.827 1470.26 43.5436 1685.33 147.755 1656.8C251.965 1628.27 280.121 1719.76 285.481 1715.86" stroke="url(#paint10_linear_80_348)" stroke-width="6.19632"/>
<path d="M-1018 910.056C-1018 910.056 -838.803 854.005 -802.819 1055.41C-790.837 1122.47 -832.673 1377.38 -519.758 1332.85C-206.844 1288.31 -373.582 1622.84 -138.121 1571.9C97.339 1520.96 8.0556 1736.03 112.266 1707.5C216.477 1678.96 244.633 1770.46 249.993 1766.56" stroke="url(#paint11_linear_80_348)" stroke-width="6.19632"/>
<defs>
<linearGradient id="paint0_linear_80_348" x1="-591.907" y1="544.163" x2="518.218" y2="775.692" gradientUnits="userSpaceOnUse">
<stop stop-color="#D49CFF"/>
<stop offset="0.302885" stop-color="#AF50F8"/>
<stop offset="1" stop-color="#672F92"/>
</linearGradient>
<linearGradient id="paint1_linear_80_348" x1="-618.663" y1="606.534" x2="491.462" y2="838.063" gradientUnits="userSpaceOnUse">
<stop stop-color="#D49CFF"/>
<stop offset="0.302885" stop-color="#AF50F8"/>
<stop offset="1" stop-color="#672F92"/>
</linearGradient>
<linearGradient id="paint2_linear_80_348" x1="-651.334" y1="666.244" x2="458.79" y2="897.773" gradientUnits="userSpaceOnUse">
<stop stop-color="#D49CFF"/>
<stop offset="0.302885" stop-color="#AF50F8"/>
<stop offset="1" stop-color="#672F92"/>
</linearGradient>
<linearGradient id="paint3_linear_80_348" x1="-684.006" y1="719.758" x2="426.119" y2="951.287" gradientUnits="userSpaceOnUse">
<stop stop-color="#D49CFF"/>
<stop offset="0.302885" stop-color="#AF50F8"/>
<stop offset="1" stop-color="#672F92"/>
</linearGradient>
<linearGradient id="paint4_linear_80_348" x1="-719.494" y1="767.638" x2="390.631" y2="999.167" gradientUnits="userSpaceOnUse">
<stop stop-color="#D49CFF"/>
<stop offset="0.302885" stop-color="#AF50F8"/>
<stop offset="1" stop-color="#672F92"/>
</linearGradient>
<linearGradient id="paint5_linear_80_348" x1="-754.982" y1="818.336" x2="355.143" y2="1049.86" gradientUnits="userSpaceOnUse">
<stop stop-color="#D49CFF"/>
<stop offset="0.302885" stop-color="#AF50F8"/>
<stop offset="1" stop-color="#672F92"/>
</linearGradient>
<linearGradient id="paint6_linear_80_348" x1="-783.71" y1="849.88" x2="326.414" y2="1081.41" gradientUnits="userSpaceOnUse">
<stop stop-color="#D49CFF"/>
<stop offset="0.302885" stop-color="#AF50F8"/>
<stop offset="1" stop-color="#672F92"/>
</linearGradient>
<linearGradient id="paint7_linear_80_348" x1="-810.466" y1="912.251" x2="299.658" y2="1143.78" gradientUnits="userSpaceOnUse">
<stop stop-color="#D49CFF"/>
<stop offset="0.302885" stop-color="#AF50F8"/>
<stop offset="1" stop-color="#672F92"/>
</linearGradient>
<linearGradient id="paint8_linear_80_348" x1="-843.138" y1="971.961" x2="266.987" y2="1203.49" gradientUnits="userSpaceOnUse">
<stop stop-color="#D49CFF"/>
<stop offset="0.302885" stop-color="#AF50F8"/>
<stop offset="1" stop-color="#672F92"/>
</linearGradient>
<linearGradient id="paint9_linear_80_348" x1="-875.809" y1="1025.47" x2="234.315" y2="1257" gradientUnits="userSpaceOnUse">
<stop stop-color="#D49CFF"/>
<stop offset="0.302885" stop-color="#AF50F8"/>
<stop offset="1" stop-color="#672F92"/>
</linearGradient>
<linearGradient id="paint10_linear_80_348" x1="-911.297" y1="1073.36" x2="198.827" y2="1304.88" gradientUnits="userSpaceOnUse">
<stop stop-color="#D49CFF"/>
<stop offset="0.302885" stop-color="#AF50F8"/>
<stop offset="1" stop-color="#672F92"/>
</linearGradient>
<linearGradient id="paint11_linear_80_348" x1="-946.785" y1="1124.05" x2="163.339" y2="1355.58" gradientUnits="userSpaceOnUse">
<stop stop-color="#D49CFF"/>
<stop offset="0.302885" stop-color="#AF50F8"/>
<stop offset="1" stop-color="#672F92"/>
</linearGradient>
</defs>
</svg>
