<svg width="1045" height="754" viewBox="0 0 1045 754" fill="none" xmlns="http://www.w3.org/2000/svg">
<rect x="278" y="314" width="517" height="150" rx="75" fill="url(#paint0_linear_64_314)"/>
<path d="M764.47 69C821.355 69 867.47 115.115 867.47 172C867.47 228.885 821.355 275 764.47 275H409.47C374.558 275 385.18 239 420.092 239H714.971C752.25 239 782.471 208.779 782.471 171.5C782.471 134.221 752.25 104 714.971 104H419.637C385.583 104 375.416 69 409.47 69H764.47Z" fill="url(#paint1_linear_64_314)"/>
<path d="M316 498C259.115 498 213 544.115 213 601C213 657.885 259.115 704 316 704H671C705.912 704 695.29 668 660.377 668H365.499C328.22 668 297.999 637.779 297.999 600.5C297.999 563.221 328.22 533 365.499 533H660.833C694.887 533 705.054 498 671 498H316Z" fill="url(#paint2_linear_64_314)"/>
<path d="M644.71 697.065C638.877 719.187 646.704 742.81 680.822 752.392C683.803 726.047 670.894 703.668 644.71 697.065Z" fill="url(#paint3_linear_64_314)" stroke="#110151" stroke-width="1.5" stroke-linejoin="round"/>
<path d="M615.181 537.065C615.181 537.065 609.928 659.852 665.961 732.414" stroke="#110151" stroke-width="1.5" stroke-linecap="round" stroke-linejoin="round"/>
<path d="M633.666 668.769C611.986 676.101 596.589 695.65 607.354 729.37C630.986 717.365 642.566 694.257 633.666 668.769Z" fill="url(#paint4_linear_64_314)" stroke="#110151" stroke-width="1.5" stroke-linejoin="round"/>
<path d="M633.666 668.791C626.44 680.581 620.307 693.035 615.868 706.004" stroke="#110151" stroke-width="1.5" stroke-linecap="round" stroke-linejoin="round"/>
<path d="M633.666 668.769C643.917 689.241 665.404 701.781 697.334 686.454C682.173 664.696 657.684 656.422 633.666 668.769Z" fill="url(#paint5_linear_64_314)" stroke="#110151" stroke-width="1.5" stroke-linejoin="round"/>
<path d="M633.666 668.791C646.34 674.321 659.528 678.694 672.995 681.288" stroke="#110151" stroke-width="1.5" stroke-linecap="round" stroke-linejoin="round"/>
<path d="M622.43 625.254C599.956 629.627 582.093 646.926 588.269 681.803C613.294 673.057 627.855 651.706 622.43 625.254Z" fill="url(#paint6_linear_64_314)" stroke="#110151" stroke-width="1.5" stroke-linejoin="round"/>
<path d="M622.43 625.254C613.702 635.972 605.939 647.483 599.806 659.745" stroke="#110151" stroke-width="1.5" stroke-linecap="round" stroke-linejoin="round"/>
<path d="M622.387 625.254C630.085 646.797 649.9 661.867 683.46 650.506C671.022 627.097 647.712 615.907 622.387 625.254Z" fill="url(#paint7_linear_64_314)" stroke="#110151" stroke-width="1.5" stroke-linejoin="round"/>
<path d="M622.387 625.254C634.288 632.263 646.855 638.201 659.914 642.424" stroke="#110151" stroke-width="1.5" stroke-linecap="round" stroke-linejoin="round"/>
<path d="M616.061 582.96C593.265 584.954 573.665 600.302 576.153 635.607C601.972 629.541 618.698 609.82 616.061 582.96Z" fill="url(#paint8_linear_64_314)" stroke="#110151" stroke-width="1.5" stroke-linejoin="round"/>
<path d="M616.039 582.981C606.218 592.735 597.318 603.367 589.92 614.921" stroke="#110151" stroke-width="1.5" stroke-linecap="round" stroke-linejoin="round"/>
<path d="M615.996 582.96C621.4 605.189 639.521 622.253 674.067 614.493C664.16 589.905 642.158 576.336 615.996 582.96Z" fill="url(#paint9_linear_64_314)" stroke="#110151" stroke-width="1.5" stroke-linejoin="round"/>
<path d="M615.996 582.96C627.104 591.191 638.963 598.394 651.508 603.967" stroke="#110151" stroke-width="1.5" stroke-linecap="round" stroke-linejoin="round"/>
<path d="M673.295 57.6636H402.54V192.541H673.295V57.6636Z" fill="url(#paint10_linear_64_314)"/>
<path d="M673.295 57.6636H402.54V94.1268H673.295V57.6636Z" fill="url(#paint11_linear_64_314)"/>
<path d="M673.295 93.1193H402.54V95.1343H673.295V93.1193Z" fill="#110151"/>
<path d="M669.607 61.3507L673.295 57.6636H402.54L406.229 61.3507H669.607Z" fill="white"/>
<path d="M406.229 188.854L402.54 192.541H673.295L669.607 188.854H406.229Z" fill="#A388D4"/>
<path d="M669.607 61.3507V188.854L673.295 192.541V57.6636L669.607 61.3507Z" fill="#C5B6E3"/>
<path d="M406.229 61.3507L402.54 57.6636V192.541L406.229 188.854V61.3507Z" fill="#F0E7FF"/>
<path d="M656.526 85.6594H640.979L640.657 85.3379V69.818H656.204L656.526 70.1395V85.6594Z" fill="#543880"/>
<path d="M656.183 69.818H640.657V85.3379H656.183V69.818Z" fill="#F0E7FF"/>
<path d="M654.617 71.3828H642.244V83.7516H654.617V71.3828Z" fill="url(#paint12_linear_64_314)"/>
<path d="M650.822 81.3936L644.603 75.1771L646.018 73.7623L652.259 79.9788L650.822 81.3936Z" fill="#110151"/>
<path d="M650.86 73.8011L644.643 80.0158L646.068 81.4406L652.285 75.2259L650.86 73.8011Z" fill="#110151"/>
<path d="M642.244 71.3828L640.657 69.818H656.204L654.617 71.3828H642.244Z" fill="white"/>
<path d="M654.617 83.773L656.204 85.3379H640.657L642.244 83.773H654.617Z" fill="#A388D4"/>
<path d="M654.617 71.3828L656.204 69.818V85.3379L654.617 83.773V71.3828Z" fill="#C5B6E3"/>
<path d="M634.588 85.6594H619.063L618.741 85.3379V69.818H634.267L634.588 70.1395V85.6594Z" fill="#543880"/>
<path d="M634.267 69.818H618.741V85.3379H634.267V69.818Z" fill="#F0E7FF"/>
<path d="M632.701 71.3828H620.328V83.7516H632.701V71.3828Z" fill="url(#paint13_linear_64_314)"/>
<path d="M630.814 81.5651H622.194V73.6122H630.814V81.5651ZM624.209 79.5287H628.799V75.6058H624.209V79.5287Z" fill="#110151"/>
<path d="M629.806 74.5983H623.202V76.5919H629.806V74.5983Z" fill="#110151"/>
<path d="M620.328 71.3828L618.741 69.818H634.267L632.701 71.3828H620.328Z" fill="white"/>
<path d="M632.701 83.773L634.267 85.3379H618.741L620.328 83.773H632.701Z" fill="#A388D4"/>
<path d="M632.701 71.3828L634.267 69.818V85.3379L632.701 83.773V71.3828Z" fill="#C5B6E3"/>
<path d="M612.672 85.6594H597.147L596.825 85.3379V69.818H612.351L612.672 70.1395V85.6594Z" fill="#543880"/>
<path d="M612.351 69.818H596.825V85.3379H612.351V69.818Z" fill="#F0E7FF"/>
<path d="M610.764 71.3828H598.391V83.7516H610.764V71.3828Z" fill="url(#paint14_linear_64_314)"/>
<path d="M607.998 80.2146H601.178V82.2296H607.998V80.2146Z" fill="#110151"/>
<path d="M598.391 71.3828L596.825 69.818H612.351L610.785 71.3828H598.391Z" fill="white"/>
<path d="M610.785 83.773L612.351 85.3379H596.825L598.391 83.773H610.785Z" fill="#A388D4"/>
<path d="M610.785 71.3828L612.351 69.818V85.3379L610.785 83.773V71.3828Z" fill="#C5B6E3"/>
<path d="M673.295 57.6636H402.54V192.541H673.295V57.6636Z" stroke="#110151" stroke-width="1.5" stroke-linejoin="round"/>
<path d="M333.254 85.7452H297.721C295.362 85.7452 293.153 87.653 292.788 90.011L291.545 98.3926H251.723C249.364 98.3926 247.155 100.3 246.812 102.658L237.741 163.473C237.376 165.831 239.028 167.76 241.387 167.76H321.009C323.368 167.76 325.577 165.853 325.92 163.473L327.807 150.826L334.991 102.637L336.878 89.9896C337.221 87.6316 335.591 85.7238 333.232 85.7238L333.254 85.7452Z" fill="url(#paint15_linear_64_314)" stroke="#110151" stroke-width="1.5" stroke-linejoin="round"/>
<path d="M324.504 163.473C325.234 165.831 323.904 167.76 321.545 167.76H241.923C239.564 167.76 237.055 165.853 236.347 163.473L221.593 115.242C220.864 112.884 222.194 110.976 224.553 110.976H304.175C306.534 110.976 309.043 112.884 309.751 115.242L324.504 163.473Z" fill="url(#paint16_linear_64_314)" stroke="#110151" stroke-width="1.5" stroke-linejoin="round"/>
<path d="M887.03 248.211C909.911 247.911 930.584 234.063 930.712 198.65C904.529 202.809 886.387 221.223 887.03 248.211Z" fill="url(#paint17_linear_64_314)" stroke="#110151" stroke-width="1.5" stroke-linejoin="round"/>
<path d="M740.695 319.401C740.695 319.401 860.482 291.641 915.444 218.286" stroke="#110151" stroke-width="1.5" stroke-linecap="round" stroke-linejoin="round"/>
<path d="M862.712 266.389C875.579 285.317 898.524 294.92 928.16 275.542C910.254 255.992 884.886 250.997 862.712 266.389Z" fill="url(#paint18_linear_64_314)" stroke="#110151" stroke-width="1.5" stroke-linejoin="round"/>
<path d="M862.734 266.389C876.029 270.204 889.668 272.777 903.371 273.591" stroke="#110151" stroke-width="1.5" stroke-linecap="round" stroke-linejoin="round"/>
<path d="M862.712 266.389C879.696 251.04 886.065 226.989 862.755 200.322C845.836 220.729 844.399 246.539 862.712 266.389Z" fill="url(#paint19_linear_64_314)" stroke="#110151" stroke-width="1.5" stroke-linejoin="round"/>
<path d="M862.734 266.389C864.664 252.691 865.35 238.843 864.278 225.167" stroke="#110151" stroke-width="1.5" stroke-linecap="round" stroke-linejoin="round"/>
<path d="M823.77 288.854C833.977 309.326 855.443 321.909 887.416 306.646C872.298 284.867 847.809 276.55 823.77 288.854Z" fill="url(#paint20_linear_64_314)" stroke="#110151" stroke-width="1.5" stroke-linejoin="round"/>
<path d="M823.77 288.854C836.443 294.406 849.61 298.779 863.077 301.416" stroke="#110151" stroke-width="1.5" stroke-linecap="round" stroke-linejoin="round"/>
<path d="M823.791 288.897C842.512 275.735 851.733 252.605 831.811 223.323C812.554 241.544 808.008 266.989 823.791 288.897Z" fill="url(#paint21_linear_64_314)" stroke="#110151" stroke-width="1.5" stroke-linejoin="round"/>
<path d="M823.791 288.897C827.372 275.542 829.731 261.866 830.31 248.168" stroke="#110151" stroke-width="1.5" stroke-linecap="round" stroke-linejoin="round"/>
<path d="M784.698 306.282C792.718 327.718 812.726 342.488 846.115 330.655C833.355 307.418 809.895 296.571 784.698 306.282Z" fill="url(#paint22_linear_64_314)" stroke="#110151" stroke-width="1.5" stroke-linejoin="round"/>
<path d="M784.698 306.282C796.728 313.12 809.359 318.865 822.462 322.916" stroke="#110151" stroke-width="1.5" stroke-linecap="round" stroke-linejoin="round"/>
<path d="M784.72 306.325C804.727 295.178 816.307 273.184 799.581 241.951C778.522 258.05 771.317 282.895 784.72 306.325Z" fill="url(#paint23_linear_64_314)" stroke="#110151" stroke-width="1.5" stroke-linejoin="round"/>
<path d="M784.72 306.325C789.673 293.42 793.469 280.065 795.485 266.496" stroke="#110151" stroke-width="1.5" stroke-linecap="round" stroke-linejoin="round"/>
<path d="M772.432 160.408C787.314 143.023 790.531 118.35 763.983 94.877C749.83 117.299 751.717 143.066 772.432 160.408Z" fill="url(#paint24_linear_64_314)" stroke="#110151" stroke-width="1.5" stroke-linejoin="round"/>
<path d="M729.415 317.321C729.415 317.321 787.572 209.025 768.679 119.336" stroke="#110151" stroke-width="1.5" stroke-linecap="round" stroke-linejoin="round"/>
<path d="M770.073 190.676C792.783 193.505 815.149 182.594 820.124 147.546C793.619 148.082 773.14 163.859 770.073 190.676Z" fill="url(#paint25_linear_64_314)" stroke="#110151" stroke-width="1.5" stroke-linejoin="round"/>
<path d="M770.073 190.676C781.717 183.195 792.654 174.663 802.304 164.909" stroke="#110151" stroke-width="1.5" stroke-linecap="round" stroke-linejoin="round"/>
<path d="M770.073 190.676C769.752 167.782 755.856 147.139 720.43 147.053C724.611 173.227 743.075 191.34 770.073 190.676Z" fill="url(#paint26_linear_64_314)" stroke="#110151" stroke-width="1.5" stroke-linejoin="round"/>
<path d="M770.073 190.676C761.067 180.193 751.095 170.526 740.094 162.316" stroke="#110151" stroke-width="1.5" stroke-linecap="round" stroke-linejoin="round"/>
<path d="M761.26 234.749C783.39 240.579 807.022 232.755 816.629 198.672C790.274 195.67 767.886 208.575 761.26 234.749Z" fill="url(#paint27_linear_64_314)" stroke="#110151" stroke-width="1.5" stroke-linejoin="round"/>
<path d="M761.26 234.749C773.783 228.897 785.77 221.887 796.643 213.505" stroke="#110151" stroke-width="1.5" stroke-linecap="round" stroke-linejoin="round"/>
<path d="M761.303 234.77C763.747 212.026 752.467 189.84 717.299 185.488C718.307 211.983 734.433 232.176 761.303 234.77Z" fill="url(#paint28_linear_64_314)" stroke="#110151" stroke-width="1.5" stroke-linejoin="round"/>
<path d="M761.303 234.77C753.625 223.259 744.898 212.476 734.969 203.002" stroke="#110151" stroke-width="1.5" stroke-linecap="round" stroke-linejoin="round"/>
<path d="M748.607 275.606C770.009 283.731 794.327 278.436 807.451 245.553C781.567 239.808 757.936 250.29 748.607 275.606Z" fill="url(#paint29_linear_64_314)" stroke="#110151" stroke-width="1.5" stroke-linejoin="round"/>
<path d="M748.607 275.606C761.688 271.105 774.341 265.403 786.028 258.2" stroke="#110151" stroke-width="1.5" stroke-linecap="round" stroke-linejoin="round"/>
<path d="M748.65 275.628C753.475 253.248 744.555 230.033 710.072 221.994C708.292 248.447 722.21 270.226 748.65 275.628Z" fill="url(#paint30_linear_64_314)" stroke="#110151" stroke-width="1.5" stroke-linejoin="round"/>
<path d="M748.65 275.628C742.217 263.388 734.669 251.726 725.812 241.287" stroke="#110151" stroke-width="1.5" stroke-linecap="round" stroke-linejoin="round"/>
<path d="M773.569 649.305C781.975 668.191 800.846 680.388 830.267 667.869C817.487 647.633 795.721 639.166 773.569 649.305Z" fill="url(#paint31_linear_64_314)" stroke="#110151" stroke-width="1.5" stroke-linejoin="round"/>
<path d="M662.294 553.335C662.294 553.335 728.042 642.767 808.523 662.188" stroke="#110151" stroke-width="1.5" stroke-linecap="round" stroke-linejoin="round"/>
<path d="M749.808 635.629C738.679 653.035 738.893 675.5 765.548 693.164C775.391 671.342 770.481 648.533 749.808 635.629Z" fill="url(#paint32_linear_64_314)" stroke="#110151" stroke-width="1.5" stroke-linejoin="round"/>
<path d="M749.808 635.629C751.395 648.019 754.097 660.238 758.3 671.899" stroke="#110151" stroke-width="1.5" stroke-linecap="round" stroke-linejoin="round"/>
<path d="M749.808 635.629C768.594 644.246 790.81 640.945 804.641 612.113C781.675 605.361 759.737 613.378 749.808 635.629Z" fill="url(#paint33_linear_64_314)" stroke="#110151" stroke-width="1.5" stroke-linejoin="round"/>
<path d="M749.808 635.629C761.86 632.349 773.612 627.976 784.57 622.21" stroke="#110151" stroke-width="1.5" stroke-linecap="round" stroke-linejoin="round"/>
<path d="M717.277 611.342C703.918 627.119 701.13 649.391 725.19 670.463C737.864 650.163 736.041 626.883 717.277 611.342Z" fill="url(#paint34_linear_64_314)" stroke="#110151" stroke-width="1.5" stroke-linejoin="round"/>
<path d="M717.277 611.342C717.192 623.817 718.242 636.315 720.859 648.405" stroke="#110151" stroke-width="1.5" stroke-linecap="round" stroke-linejoin="round"/>
<path d="M717.256 611.363C734.862 622.188 757.335 621.588 774.534 594.643C752.532 585.168 729.801 590.484 717.256 611.363Z" fill="url(#paint35_linear_64_314)" stroke="#110151" stroke-width="1.5" stroke-linejoin="round"/>
<path d="M717.256 611.363C729.608 609.584 741.81 606.647 753.39 602.253" stroke="#110151" stroke-width="1.5" stroke-linecap="round" stroke-linejoin="round"/>
<path d="M688.885 585.168C673.96 599.444 668.835 621.331 690.558 644.804C705.29 625.94 705.933 602.617 688.885 585.168Z" fill="url(#paint36_linear_64_314)" stroke="#110151" stroke-width="1.5" stroke-linejoin="round"/>
<path d="M688.885 585.168C687.491 597.579 687.234 610.098 688.564 622.424" stroke="#110151" stroke-width="1.5" stroke-linecap="round" stroke-linejoin="round"/>
<path d="M688.842 585.189C705.226 597.794 727.614 599.552 747.557 574.557C726.692 562.831 703.51 565.725 688.842 585.189Z" fill="url(#paint37_linear_64_314)" stroke="#110151" stroke-width="1.5" stroke-linejoin="round"/>
<path d="M688.842 585.189C701.323 584.696 713.761 583.067 725.727 579.916" stroke="#110151" stroke-width="1.5" stroke-linecap="round" stroke-linejoin="round"/>
<path d="M996.289 546.282H985.202V534.171H973.129V522.081H963.779V509.969H942.485V522.081H919.089V534.171H899.747V546.282H877.166V558.394H845.171V570.505H1011.17V558.394H996.289V546.282Z" fill="url(#paint38_linear_64_314)" stroke="#110151" stroke-width="1.5" stroke-linejoin="round"/>
<path d="M40.3252 117.021H51.4119V104.931H63.485V92.8191H72.8347V80.7076H94.1503V92.8191H117.546V104.931H136.867V117.021H159.448V129.132H191.464V141.244H25.4429V129.132H40.3252V117.021Z" fill="url(#paint39_linear_64_314)" stroke="#110151" stroke-width="1.5" stroke-linejoin="round"/>
<path d="M686.055 222.509L614.152 571.363L719.679 615.243L787.229 582.531L859.753 344.267L686.055 222.509Z" fill="url(#paint40_linear_64_314)"/>
<path d="M619.835 543.839L662.252 563.131L750.259 267.525L686.055 222.509L619.835 543.839Z" fill="url(#paint41_linear_64_314)" style="mix-blend-mode:multiply"/>
<path d="M686.055 222.509L859.753 344.267L787.229 582.531L719.679 615.243L614.152 571.363" stroke="#110151" stroke-width="1.5" stroke-linejoin="round"/>
<path d="M696.434 369.026C698.728 370.312 701.366 368.876 702.352 365.767C703.339 362.681 702.266 359.122 699.993 357.836C697.699 356.55 695.061 358.007 694.075 361.073C693.088 364.16 694.161 367.718 696.434 369.026Z" fill="url(#paint42_linear_64_314)" stroke="#110151" stroke-width="1.5" stroke-miterlimit="10"/>
<path d="M711.831 377.75C714.125 379.058 716.806 377.6 717.792 374.492C718.778 371.405 717.706 367.825 715.412 366.539C713.117 365.232 710.458 366.689 709.472 369.776C708.485 372.884 709.557 376.443 711.852 377.75H711.831Z" fill="url(#paint43_linear_64_314)" stroke="#110151" stroke-width="1.5" stroke-miterlimit="10"/>
<path d="M727.313 386.518C729.629 387.847 732.31 386.389 733.318 383.281C734.304 380.173 733.232 376.593 730.916 375.285C728.6 373.978 725.919 375.435 724.933 378.543C723.947 381.652 725.019 385.232 727.335 386.539L727.313 386.518Z" fill="url(#paint44_linear_64_314)" stroke="#110151" stroke-width="1.5" stroke-miterlimit="10"/>
<path d="M742.882 395.349C745.219 396.678 747.921 395.221 748.908 392.091C749.916 388.983 748.822 385.382 746.506 384.074C744.169 382.745 741.467 384.203 740.48 387.311C739.494 390.419 740.566 394.02 742.882 395.328V395.349Z" fill="url(#paint45_linear_64_314)" stroke="#110151" stroke-width="1.5" stroke-miterlimit="10"/>
<path d="M758.558 404.246C760.895 405.575 763.618 404.117 764.626 400.987C765.634 397.879 764.541 394.256 762.203 392.949C759.844 391.62 757.142 393.077 756.134 396.185C755.127 399.315 756.22 402.916 758.558 404.246Z" fill="url(#paint46_linear_64_314)" stroke="#110151" stroke-width="1.5" stroke-miterlimit="10"/>
<path d="M774.341 413.184C776.699 414.535 779.444 413.077 780.474 409.948C781.481 406.818 780.388 403.195 778.008 401.866C775.649 400.537 772.925 401.995 771.896 405.124C770.888 408.254 771.982 411.877 774.341 413.206V413.184Z" fill="url(#paint47_linear_64_314)" stroke="#110151" stroke-width="1.5" stroke-miterlimit="10"/>
<path d="M793.919 410.826C791.539 409.497 788.794 410.934 787.786 414.063C786.757 417.193 787.872 420.837 790.231 422.166C792.611 423.517 795.377 422.059 796.385 418.929C797.393 415.8 796.299 412.156 793.919 410.805V410.826Z" fill="url(#paint48_linear_64_314)" stroke="#110151" stroke-width="1.5" stroke-miterlimit="10"/>
<path d="M688.692 393.442C690.965 394.749 693.603 393.313 694.589 390.226C695.576 387.139 694.504 383.581 692.231 382.295C689.936 380.987 687.298 382.423 686.333 385.51C685.347 388.576 686.419 392.134 688.692 393.442Z" fill="url(#paint49_linear_64_314)" stroke="#110151" stroke-width="1.5" stroke-miterlimit="10"/>
<path d="M704.025 402.231C706.319 403.538 708.979 402.102 709.965 399.015C710.951 395.928 709.879 392.348 707.585 391.041C705.29 389.733 702.631 391.169 701.645 394.278C700.658 397.343 701.73 400.923 704.003 402.231H704.025Z" fill="url(#paint50_linear_64_314)" stroke="#110151" stroke-width="1.5" stroke-miterlimit="10"/>
<path d="M719.443 411.062C721.759 412.391 724.44 410.955 725.426 407.868C726.413 404.76 725.34 401.18 723.024 399.873C720.708 398.565 718.049 400.001 717.041 403.088C716.055 406.175 717.127 409.755 719.443 411.062Z" fill="url(#paint51_linear_64_314)" stroke="#110151" stroke-width="1.5" stroke-miterlimit="10"/>
<path d="M734.99 419.958C737.306 421.287 740.008 419.851 740.995 416.743C741.981 413.635 740.909 410.033 738.593 408.704C736.256 407.375 733.575 408.811 732.567 411.92C731.581 415.007 732.653 418.608 734.969 419.937L734.99 419.958Z" fill="url(#paint52_linear_64_314)" stroke="#110151" stroke-width="1.5" stroke-miterlimit="10"/>
<path d="M750.602 428.919C752.939 430.248 755.641 428.812 756.649 425.703C757.657 422.595 756.563 418.972 754.226 417.643C751.888 416.314 749.165 417.75 748.179 420.859C747.171 423.967 748.264 427.568 750.602 428.897V428.919Z" fill="url(#paint53_linear_64_314)" stroke="#110151" stroke-width="1.5" stroke-miterlimit="10"/>
<path d="M766.342 437.922C768.701 439.272 771.424 437.836 772.432 434.728C773.44 431.598 772.346 427.976 769.987 426.625C767.629 425.296 764.905 426.732 763.897 429.84C762.889 432.949 763.983 436.571 766.32 437.9L766.342 437.922Z" fill="url(#paint54_linear_64_314)" stroke="#110151" stroke-width="1.5" stroke-miterlimit="10"/>
<path d="M785.835 435.65C783.476 434.299 780.731 435.735 779.723 438.865C778.715 441.973 779.809 445.618 782.168 446.968C784.548 448.319 787.293 446.904 788.301 443.774C789.309 440.644 788.215 437 785.835 435.65Z" fill="url(#paint55_linear_64_314)" stroke="#110151" stroke-width="1.5" stroke-miterlimit="10"/>
<path d="M680.951 417.793C683.224 419.101 685.862 417.686 686.827 414.621C687.813 411.534 686.741 407.997 684.468 406.689C682.195 405.382 679.557 406.796 678.57 409.883C677.605 412.949 678.656 416.486 680.929 417.815L680.951 417.793Z" fill="url(#paint56_linear_64_314)" stroke="#110151" stroke-width="1.5" stroke-miterlimit="10"/>
<path d="M699.779 415.5C697.506 414.192 694.847 415.607 693.86 418.694C692.874 421.759 693.946 425.317 696.219 426.646C698.492 427.976 701.151 426.539 702.138 423.474C703.124 420.387 702.052 416.829 699.779 415.5Z" fill="url(#paint57_linear_64_314)" stroke="#110151" stroke-width="1.5" stroke-miterlimit="10"/>
<path d="M715.197 424.374C712.903 423.045 710.244 424.481 709.257 427.568C708.271 430.634 709.343 434.213 711.638 435.542C713.954 436.872 716.613 435.457 717.599 432.37C718.585 429.283 717.513 425.703 715.197 424.374Z" fill="url(#paint58_linear_64_314)" stroke="#110151" stroke-width="1.5" stroke-miterlimit="10"/>
<path d="M730.701 433.313C728.364 431.984 725.705 433.399 724.697 436.507C723.711 439.594 724.783 443.174 727.099 444.524C729.415 445.853 732.095 444.439 733.082 441.352C734.068 438.243 732.996 434.664 730.68 433.313H730.701Z" fill="url(#paint59_linear_64_314)" stroke="#110151" stroke-width="1.5" stroke-miterlimit="10"/>
<path d="M746.291 442.295C743.954 440.944 741.252 442.381 740.266 445.468C739.279 448.554 740.351 452.156 742.667 453.506C745.005 454.857 747.707 453.442 748.693 450.334C749.701 447.225 748.607 443.603 746.291 442.274V442.295Z" fill="url(#paint60_linear_64_314)" stroke="#110151" stroke-width="1.5" stroke-miterlimit="10"/>
<path d="M761.989 451.32C759.651 449.969 756.928 451.384 755.92 454.514C754.934 457.622 756.006 461.223 758.343 462.574C760.702 463.924 763.404 462.509 764.412 459.401C765.42 456.293 764.326 452.67 761.989 451.298V451.32Z" fill="url(#paint61_linear_64_314)" stroke="#110151" stroke-width="1.5" stroke-miterlimit="10"/>
<path d="M777.793 460.43C775.434 459.08 772.711 460.494 771.681 463.624C770.674 466.732 771.767 470.355 774.126 471.727C776.485 473.099 779.23 471.684 780.238 468.576C781.246 465.446 780.152 461.823 777.793 460.452V460.43Z" fill="url(#paint62_linear_64_314)" stroke="#110151" stroke-width="1.5" stroke-miterlimit="10"/>
<path d="M676.769 430.998C674.496 429.669 671.88 431.084 670.893 434.149C669.928 437.193 670.979 440.752 673.231 442.081C675.483 443.41 678.12 441.995 679.085 438.951C680.072 435.885 678.999 432.327 676.748 431.019L676.769 430.998Z" fill="url(#paint63_linear_64_314)" stroke="#110151" stroke-width="1.5" stroke-miterlimit="10"/>
<path d="M692.016 439.873C689.743 438.544 687.105 439.958 686.119 443.024C685.154 446.089 686.205 449.648 688.478 450.977C690.751 452.306 693.388 450.912 694.375 447.847C695.361 444.782 694.289 441.202 692.016 439.873Z" fill="url(#paint64_linear_64_314)" stroke="#110151" stroke-width="1.5" stroke-miterlimit="10"/>
<path d="M707.37 448.79C705.076 447.461 702.417 448.876 701.43 451.941C700.444 455.007 701.516 458.587 703.81 459.916C706.105 461.266 708.764 459.851 709.75 456.786C710.737 453.699 709.665 450.119 707.37 448.79Z" fill="url(#paint65_linear_64_314)" stroke="#110151" stroke-width="1.5" stroke-miterlimit="10"/>
<path d="M722.831 457.793C720.515 456.443 717.835 457.858 716.848 460.944C715.862 464.01 716.934 467.611 719.25 468.962C721.566 470.312 724.225 468.897 725.233 465.832C726.22 462.745 725.147 459.144 722.853 457.815L722.831 457.793Z" fill="url(#paint66_linear_64_314)" stroke="#110151" stroke-width="1.5" stroke-miterlimit="10"/>
<path d="M738.379 466.839C736.041 465.489 733.361 466.904 732.374 469.991C731.388 473.077 732.46 476.679 734.776 478.029C737.092 479.38 739.794 477.986 740.78 474.9C741.788 471.791 740.695 468.19 738.379 466.839Z" fill="url(#paint67_linear_64_314)" stroke="#110151" stroke-width="1.5" stroke-miterlimit="10"/>
<path d="M754.033 475.95C751.695 474.599 748.994 475.993 747.986 479.101C746.978 482.188 748.071 485.811 750.387 487.161C752.725 488.533 755.448 487.118 756.456 484.031C757.464 480.923 756.37 477.3 754.033 475.95Z" fill="url(#paint68_linear_64_314)" stroke="#110151" stroke-width="1.5" stroke-miterlimit="10"/>
<path d="M769.773 485.103C767.414 483.731 764.691 485.146 763.683 488.254C762.675 491.341 763.769 494.985 766.106 496.357C768.465 497.729 771.188 496.336 772.196 493.228C773.204 490.119 772.11 486.475 769.752 485.103H769.773Z" fill="url(#paint69_linear_64_314)" stroke="#110151" stroke-width="1.5" stroke-miterlimit="10"/>
<path d="M669.071 455.221C666.798 453.892 664.181 455.285 663.216 458.351C662.251 461.395 663.302 464.932 665.554 466.282C667.806 467.611 670.422 466.218 671.387 463.174C672.352 460.109 671.301 456.572 669.049 455.242L669.071 455.221Z" fill="url(#paint70_linear_64_314)" stroke="#110151" stroke-width="1.5" stroke-miterlimit="10"/>
<path d="M684.275 464.16C682.002 462.831 679.364 464.224 678.399 467.29C677.434 470.334 678.485 473.892 680.736 475.243C683.009 476.572 685.647 475.2 686.612 472.134C687.599 469.069 686.526 465.51 684.275 464.16Z" fill="url(#paint71_linear_64_314)" stroke="#110151" stroke-width="1.5" stroke-miterlimit="10"/>
<path d="M699.586 473.163C697.291 471.813 694.654 473.206 693.667 476.293C692.702 479.358 693.753 482.917 696.026 484.267C698.321 485.618 700.958 484.224 701.945 481.18C702.931 478.115 701.859 474.535 699.564 473.185L699.586 473.163Z" fill="url(#paint72_linear_64_314)" stroke="#110151" stroke-width="1.5" stroke-miterlimit="10"/>
<path d="M715.004 482.209C712.688 480.859 710.029 482.252 709.043 485.318C708.056 488.383 709.129 491.963 711.423 493.335C713.718 494.685 716.377 493.292 717.385 490.226C718.371 487.14 717.299 483.56 715.004 482.188V482.209Z" fill="url(#paint73_linear_64_314)" stroke="#110151" stroke-width="1.5" stroke-miterlimit="10"/>
<path d="M730.487 491.32C728.171 489.948 725.49 491.341 724.483 494.428C723.496 497.493 724.568 501.095 726.884 502.467C729.2 503.839 731.881 502.467 732.867 499.358C733.854 496.271 732.782 492.67 730.466 491.298L730.487 491.32Z" fill="url(#paint74_linear_64_314)" stroke="#110151" stroke-width="1.5" stroke-miterlimit="10"/>
<path d="M746.098 500.494C743.761 499.123 741.081 500.516 740.073 503.624C739.086 506.711 740.158 510.312 742.474 511.684C744.812 513.056 747.514 511.684 748.522 508.597C749.53 505.489 748.436 501.888 746.098 500.516V500.494Z" fill="url(#paint75_linear_64_314)" stroke="#110151" stroke-width="1.5" stroke-miterlimit="10"/>
<path d="M761.796 509.712C759.458 508.34 756.735 509.712 755.727 512.82C754.719 515.907 755.813 519.53 758.15 520.923C760.509 522.317 763.211 520.923 764.219 517.836C765.227 514.728 764.133 511.105 761.774 509.712H761.796Z" fill="url(#paint76_linear_64_314)" stroke="#110151" stroke-width="1.5" stroke-miterlimit="10"/>
<path d="M558.268 479.808L220.671 466.411L209.563 461.245L294.096 146.217L649.106 134.363L655.132 144.545L558.268 479.808Z" fill="url(#paint77_linear_64_314)" stroke="#110151" stroke-width="1.5" stroke-linejoin="round"/>
<path d="M654.617 532.756L298.836 515.414L241.193 487.697L587.561 502.617L654.617 532.756Z" fill="url(#paint78_linear_64_314)" stroke="#110151" stroke-width="1.5" stroke-linejoin="round"/>
<path d="M587.561 502.617L241.194 487.697L209.563 461.245L550.827 474.021L587.561 502.617Z" fill="url(#paint79_linear_64_314)" stroke="#110151" stroke-width="1.5" stroke-linejoin="round"/>
<path d="M307.499 187.01L244.131 421.909L535.945 430.141L607.976 179.722L307.499 187.01Z" fill="url(#paint80_linear_64_314)" stroke="#110151" stroke-width="1.5" stroke-linejoin="round"/>
<path d="M315.155 202.68L258.049 413.785L532.235 421.009L596.632 196.828L315.155 202.68Z" stroke="#110151" stroke-width="1.5" stroke-linejoin="round"/>
<path d="M307.499 187.01L315.155 202.68" stroke="#110151" stroke-width="1.5" stroke-linejoin="round"/>
<path d="M258.049 413.785L244.131 421.909" stroke="#110151" stroke-width="1.5" stroke-linejoin="round"/>
<path d="M535.945 430.141L532.235 421.009" stroke="#110151" stroke-width="1.5" stroke-linejoin="round"/>
<path d="M607.976 179.722L596.632 196.828" stroke="#110151" stroke-width="1.5" stroke-linejoin="round"/>
<path d="M691.459 146.903L587.561 502.617L654.617 532.756L752.425 203.087L691.459 146.903Z" fill="url(#paint81_linear_64_314)"/>
<path d="M649.106 134.363L550.827 474.021L587.561 502.617L691.459 146.903L649.106 134.363Z" fill="url(#paint82_linear_64_314)"/>
<path d="M691.459 146.903L752.425 203.087L654.617 532.756L587.561 502.617L550.827 474.021L649.106 134.363L691.459 146.903Z" stroke="#110151" stroke-width="1.5" stroke-linejoin="round"/>
<path d="M307.285 415.092L408.459 417.75L300.508 256.893L271.945 362.423L307.285 415.092Z" fill="url(#paint83_linear_64_314)" style="mix-blend-mode:overlay"/>
<path d="M490.569 199.036L392.568 201.072L534.615 412.734L564.401 309.047L490.569 199.036Z" fill="url(#paint84_linear_64_314)" style="mix-blend-mode:overlay"/>
<path d="M556.231 545.575L278.421 532.306L262.681 528.147L269.543 488.983L558.247 501.416L561.785 506.325L556.231 545.575Z" fill="url(#paint85_linear_64_314)" stroke="#110151" stroke-width="1.5" stroke-linejoin="round"/>
<path d="M558.247 501.416L550.463 543.11L614.152 571.363L622.43 531.191L558.247 501.416Z" fill="url(#paint86_linear_64_314)"/>
<path d="M622.429 531.191L558.74 501.652L558.14 503.667L594.981 532.542L619.835 543.839L622.429 531.191Z" fill="url(#paint87_linear_64_314)" style="mix-blend-mode:multiply"/>
<path d="M614.152 571.363L550.463 543.11L558.247 501.416L622.43 531.191L630.793 531.577" stroke="#110151" stroke-width="1.5" stroke-linejoin="round"/>
<path d="M550.463 543.11L262.681 528.147L411.697 595.286L719.679 615.243L550.463 543.11Z" fill="url(#paint88_linear_64_314)" stroke="#110151" stroke-width="1.5" stroke-linejoin="round"/>
<path d="M691.459 146.903L587.561 502.617" stroke="#110151" stroke-width="1.5" stroke-linejoin="round"/>
<path d="M169.145 419.668L171.733 415.049L176.354 417.637L178.946 412.998L183.566 415.586L186.155 410.967L190.775 413.555L193.385 408.94L198.005 411.528L200.597 406.888L205.218 409.476L207.806 404.857L212.427 407.445L215.015 402.827L219.657 405.419L222.249 400.779L226.87 403.367L229.458 398.748L234.078 401.336L236.671 396.696L241.291 399.284L243.879 394.665L248.521 397.257L251.109 392.639L255.73 395.226L209.14 478.493L204.498 475.901L207.09 471.262L202.47 468.674L205.058 464.055L200.437 461.467L203.004 456.845L193.763 451.669L188.587 460.906L183.966 458.318L178.786 467.577L174.144 464.985L168.963 474.243L164.343 471.655L161.755 476.274L152.513 471.098L155.102 466.479L150.46 463.888L155.64 454.629L160.261 457.217L165.441 447.959L170.083 450.55L175.259 441.313L179.88 443.901L185.06 434.642L161.915 421.695L164.503 417.076L169.145 419.668Z" fill="#110151"/>
<path d="M181.534 408.379L184.122 403.76L188.743 406.348L191.335 401.708L195.956 404.296L198.544 399.678L203.185 402.269L205.774 397.651L210.394 400.239L212.987 395.599L217.607 398.187L220.195 393.568L224.837 396.16L227.425 391.541L232.05 394.108L234.638 389.49L239.259 392.077L241.847 387.459L246.468 390.047L210.238 454.797L205.617 452.209L208.184 447.586L203.564 444.998L206.152 440.379L201.531 437.792L204.124 433.152L199.482 430.56L194.323 439.822L189.681 437.23L184.5 446.489L179.88 443.901L174.703 453.138L170.083 450.55L164.902 459.809L155.64 454.629L160.82 445.371L165.441 447.959L170.617 438.721L175.259 441.313L180.44 432.055L185.06 434.642L192.829 420.765L174.325 410.41L176.913 405.791L181.534 408.379Z" fill="url(#paint89_linear_64_314)"/>
<path d="M212.826 450.178L246.468 390.047L241.847 387.459L244.439 382.819L249.06 385.407L251.648 380.788L256.29 383.38L209.678 466.643L205.058 464.055L207.646 459.436L203.004 456.845L205.617 452.209L210.238 454.797L212.826 450.178Z" fill="#110151"/>
<path d="M205.617 452.209L200.976 449.617L203.564 444.998L208.185 447.586L205.617 452.209Z" fill="#110151"/>
<path d="M199.482 430.56L204.124 433.152L201.532 437.792L206.152 440.379L203.564 444.998L194.323 439.822L199.482 430.56Z" fill="#110151"/>
<path d="M189.681 437.23L194.323 439.822L189.142 449.081L184.501 446.489L189.681 437.23Z" fill="#110151"/>
<path d="M179.88 443.901L184.501 446.489L179.345 455.73L174.704 453.138L179.88 443.901Z" fill="#110151"/>
<path d="M170.083 450.55L174.704 453.138L169.523 462.397L164.903 459.809L170.083 450.55Z" fill="#110151"/>
<path d="M169.683 407.818L172.272 403.199L176.913 405.791L174.325 410.41L192.829 420.765L185.06 434.642L180.44 432.055L185.62 422.796L162.471 409.87L165.063 405.23L169.683 407.818Z" fill="#110151"/>
<path d="M175.259 441.313L170.618 438.721L175.798 429.463L180.44 432.055L175.259 441.313Z" fill="#110151"/>
<path d="M165.441 447.959L160.821 445.371L165.997 436.133L170.618 438.721L165.441 447.959Z" fill="#110151"/>
<path d="M155.64 454.629L151.019 452.041L156.2 442.783L160.82 445.371L155.64 454.629Z" fill="#110151"/>
<path d="M164.903 459.809L162.314 464.428L153.052 459.248L155.64 454.629L164.903 459.809Z" fill="#110151"/>
<path d="M234.638 389.49L237.226 384.871L241.847 387.459L239.259 392.077L234.638 389.49Z" fill="#110151"/>
<path d="M227.425 391.541L230.018 386.902L234.638 389.49L232.05 394.108L227.425 391.541Z" fill="#110151"/>
<path d="M220.195 393.568L222.784 388.95L227.425 391.541L224.837 396.16L220.195 393.568Z" fill="#110151"/>
<path d="M212.987 395.599L215.575 390.98L220.195 393.568L217.607 398.187L212.987 395.599Z" fill="#110151"/>
<path d="M205.774 397.651L208.366 393.011L212.987 395.599L210.394 400.239L205.774 397.651Z" fill="#110151"/>
<path d="M198.544 399.678L201.136 395.038L205.774 397.651L203.186 402.27L198.544 399.678Z" fill="#110151"/>
<path d="M191.335 401.708L193.923 397.09L198.544 399.678L195.956 404.296L191.335 401.708Z" fill="#110151"/>
<path d="M184.122 403.76L186.714 399.12L191.335 401.708L188.743 406.348L184.122 403.76Z" fill="#110151"/>
<path d="M176.913 405.791L179.502 401.172L184.122 403.76L181.534 408.379L176.913 405.791Z" fill="#110151"/>
<path d="M674.589 226.749H623.387V232.441H674.589V226.749Z" fill="#FFF4F6"/>
<path d="M657.508 169.875V164.183H663.202V158.491H668.896V152.821H674.589V130.075H623.387V152.821H629.06V158.491H634.754V164.183H640.448V169.875H646.141V181.258H640.448V186.929H634.754V192.62H629.06V198.312H623.387V221.057H674.589V198.312H668.896V192.62H663.202V186.929H657.508V181.258H651.814V169.875H657.508Z" fill="#FFF4F6"/>
<path d="M674.589 118.692H623.387V124.383H674.589V118.692Z" fill="#FFF4F6"/>
<path d="M640.448 141.437H634.754V147.129H640.448V141.437Z" fill="#110151"/>
<path d="M651.835 141.437H646.142V147.129H651.835V141.437Z" fill="#110151"/>
<path d="M663.202 141.437H657.508V147.129H663.202V141.437Z" fill="#110151"/>
<path d="M646.142 147.129H640.448V152.82H646.142V147.129Z" fill="#110151"/>
<path d="M651.835 152.82H646.142V158.512H651.835V152.82Z" fill="#110151"/>
<path d="M651.835 164.183H646.142V169.874H651.835V164.183Z" fill="#110151"/>
<path d="M657.508 147.129H651.814V152.82H657.508V147.129Z" fill="#110151"/>
<path d="M612 113V130.054H617.694V158.491H623.387V164.183H629.081V169.875H634.775V181.258H629.081V186.949H623.387V192.641H617.694V221.078H612V238.132H685.956V221.078H680.262V192.641H674.569V186.949H668.875V181.258H663.181V169.875H668.875V164.183H674.569V158.491H680.262V130.054H685.956V113H612ZM674.589 232.441H623.387V226.749H674.589V232.441ZM674.589 152.82H668.896V158.512H663.202V164.204H657.508V169.895H651.814V181.278H657.508V186.97H663.202V192.662H668.896V198.353H674.589V221.099H623.387V198.353H629.081V192.662H634.775V186.97H640.469V181.278H646.162V169.895H640.469V164.204H634.775V158.512H629.081V152.82H623.387V130.075H674.589V152.82ZM674.589 124.383H623.387V118.692H674.589V124.383Z" fill="#110151"/>
<path d="M651.835 186.929H646.142V192.62H651.835V186.929Z" fill="#110151"/>
<path d="M669.67 303.021H705.203C707.562 303.021 709.77 304.929 710.135 307.287L711.379 315.669H751.201C753.56 315.669 755.768 317.577 756.111 319.935L765.182 380.749C765.547 383.107 763.917 385.037 761.537 385.037H681.914C679.555 385.037 677.368 383.129 677.004 380.749L675.116 368.102L667.933 319.913L666.046 307.266C665.702 304.908 667.332 303 669.691 303L669.67 303.021Z" fill="url(#paint90_linear_64_314)" stroke="#110151" stroke-width="1.5" stroke-miterlimit="10"/>
<path d="M678.419 380.771C677.69 383.129 679.019 385.058 681.378 385.058H761.001C763.36 385.058 765.869 383.15 766.576 380.771L781.33 332.539C782.059 330.181 780.729 328.273 778.371 328.273H698.748C696.389 328.273 693.88 330.181 693.173 332.539L678.419 380.771Z" fill="url(#paint91_linear_64_314)" stroke="#110151" stroke-width="1.5" stroke-miterlimit="10"/>
<path d="M816.243 427.975L785.342 458.887V525.318H866.229V427.975H816.243Z" fill="url(#paint92_linear_64_314)"/>
<path d="M866.229 525.318H785.342V531.513H866.229V525.318Z" fill="#110151"/>
<path d="M810.045 434.192H803.848V440.387H810.045V434.192Z" fill="#110151"/>
<path d="M803.826 440.387H797.629V446.604H803.826V440.387Z" fill="#110151"/>
<path d="M822.462 465.082V464.953V427.975H866.229V421.78H822.462H816.243V427.975H810.045V434.192H816.243V458.887H791.56V452.799H797.629V446.604H791.432V452.67H785.342V458.887H779.144V465.082V525.318H785.342V465.082H822.462Z" fill="#110151"/>
<path d="M872.427 427.975H866.229V525.318H872.427V427.975Z" fill="#110151"/>
<path d="M755.598 35.327L747.964 70.8469L825.785 7.86713L755.598 35.327Z" fill="url(#paint93_linear_64_314)" stroke="#110151" stroke-width="1.5" stroke-linejoin="round"/>
<path d="M769.173 44.8019L747.964 70.8469L825.785 7.86713L769.173 44.8019Z" fill="url(#paint94_linear_64_314)" stroke="#110151" stroke-width="1.5" stroke-linejoin="round"/>
<path d="M724.611 18.0494L825.785 7.86713L755.598 35.327L724.611 18.0494Z" fill="url(#paint95_linear_64_314)" stroke="#110151" stroke-width="1.5" stroke-linejoin="round"/>
<path d="M793.984 68.1674L825.785 7.86713L769.173 44.8019L793.984 68.1674Z" fill="url(#paint96_linear_64_314)" stroke="#110151" stroke-width="1.5" stroke-linejoin="round"/>
<path d="M513.986 644.396L521.62 679.895L443.777 616.915L513.986 644.396Z" fill="url(#paint97_linear_64_314)" stroke="#110151" stroke-width="1.5" stroke-linejoin="round"/>
<path d="M500.39 653.871L521.62 679.895L443.777 616.915L500.39 653.871Z" fill="url(#paint98_linear_64_314)" stroke="#110151" stroke-width="1.5" stroke-linejoin="round"/>
<path d="M544.951 627.097L443.777 616.915L513.986 644.396L544.951 627.097Z" fill="url(#paint99_linear_64_314)" stroke="#110151" stroke-width="1.5" stroke-linejoin="round"/>
<path d="M475.579 677.215L443.777 616.915L500.39 653.871L475.579 677.215Z" fill="url(#paint100_linear_64_314)" stroke="#110151" stroke-width="1.5" stroke-linejoin="round"/>
<path d="M647.691 10.9111H642.244V0H636.797V10.9111H625.882V16.3559H636.797V27.267H642.244V16.3559H653.159V10.9111H647.712H647.691ZM642.244 16.3559H636.797V10.9111H642.244V16.3559Z" fill="#411563"/>
<path d="M285.262 38.7354H279.815V27.8243H274.368V38.7354H263.453V44.1802H274.368V55.0913H279.815V44.1802H290.73V38.7354H285.283H285.262ZM279.815 44.2016H274.368V38.7568H279.815V44.2016Z" fill="#411563"/>
<path d="M161.419 221.943H155.972V211.032H150.525V221.943H139.61V227.388H150.525V238.299H155.972V227.388H166.887V221.943H161.44H161.419ZM155.972 227.388H150.525V221.943H155.972V227.388Z" fill="#411563"/>
<path d="M86.4187 477.086H80.9718V466.175H75.525V477.086H64.6099V482.531H75.525V493.442H80.9718V482.531H91.8869V477.086H86.4401H86.4187ZM80.9718 482.552H75.525V477.107H80.9718V482.552Z" fill="#411563"/>
<path d="M815.128 714.021H809.681V703.11H804.234V714.021H793.319V719.466H804.234V730.377H809.681V719.466H820.596V714.021H815.149H815.128ZM809.681 719.466H804.234V714.021H809.681V719.466Z" fill="#411563"/>
<defs>
<linearGradient id="paint0_linear_64_314" x1="288.734" y1="321.763" x2="792.737" y2="500.918" gradientUnits="userSpaceOnUse">
<stop offset="0.0769231" stop-color="#984CD3"/>
<stop offset="0.451923" stop-color="#522BC9"/>
<stop offset="1" stop-color="#411563"/>
</linearGradient>
<linearGradient id="paint1_linear_64_314" x1="318.118" y1="79.6607" x2="889.078" y2="240.021" gradientUnits="userSpaceOnUse">
<stop offset="0.0769231" stop-color="#984CD3"/>
<stop offset="0.451923" stop-color="#522BC9"/>
<stop offset="1" stop-color="#411563"/>
</linearGradient>
<linearGradient id="paint2_linear_64_314" x1="762.352" y1="508.661" x2="191.392" y2="669.021" gradientUnits="userSpaceOnUse">
<stop offset="0.0769231" stop-color="#984CD3"/>
<stop offset="0.451923" stop-color="#522BC9"/>
<stop offset="1" stop-color="#411563"/>
</linearGradient>
<linearGradient id="paint3_linear_64_314" x1="676.709" y1="748.997" x2="648.584" y2="703.919" gradientUnits="userSpaceOnUse">
<stop stop-color="#FF9CBF"/>
<stop offset="1" stop-color="#171BFF"/>
</linearGradient>
<linearGradient id="paint4_linear_64_314" x1="607.653" y1="724.086" x2="629.755" y2="675.756" gradientUnits="userSpaceOnUse">
<stop stop-color="#FF9CBF"/>
<stop offset="1" stop-color="#171BFF"/>
</linearGradient>
<linearGradient id="paint5_linear_64_314" x1="692.208" y1="686.792" x2="641.291" y2="671.515" gradientUnits="userSpaceOnUse">
<stop stop-color="#FF9CBF"/>
<stop offset="1" stop-color="#171BFF"/>
</linearGradient>
<linearGradient id="paint6_linear_64_314" x1="589.247" y1="676.679" x2="617.608" y2="631.75" gradientUnits="userSpaceOnUse">
<stop stop-color="#FF9CBF"/>
<stop offset="1" stop-color="#171BFF"/>
</linearGradient>
<linearGradient id="paint7_linear_64_314" x1="678.346" y1="650.047" x2="629.649" y2="628.727" gradientUnits="userSpaceOnUse">
<stop stop-color="#FF9CBF"/>
<stop offset="1" stop-color="#171BFF"/>
</linearGradient>
<linearGradient id="paint8_linear_64_314" x1="578.057" y1="631.191" x2="610.974" y2="589.482" gradientUnits="userSpaceOnUse">
<stop stop-color="#FF9CBF"/>
<stop offset="1" stop-color="#171BFF"/>
</linearGradient>
<linearGradient id="paint9_linear_64_314" x1="668.995" y1="613.467" x2="622.785" y2="587.165" gradientUnits="userSpaceOnUse">
<stop stop-color="#FF9CBF"/>
<stop offset="1" stop-color="#171BFF"/>
</linearGradient>
<linearGradient id="paint10_linear_64_314" x1="402.54" y1="125.102" x2="673.295" y2="125.102" gradientUnits="userSpaceOnUse">
<stop stop-color="white"/>
<stop offset="1" stop-color="#E5D6FF"/>
</linearGradient>
<linearGradient id="paint11_linear_64_314" x1="450.018" y1="66.3239" x2="661.907" y2="89.4063" gradientUnits="userSpaceOnUse">
<stop stop-color="#6ECFFF"/>
<stop offset="1" stop-color="#1159F5"/>
</linearGradient>
<linearGradient id="paint12_linear_64_314" x1="642.244" y1="77.5779" x2="654.617" y2="77.5779" gradientUnits="userSpaceOnUse">
<stop stop-color="white"/>
<stop offset="1" stop-color="#E5D6FF"/>
</linearGradient>
<linearGradient id="paint13_linear_64_314" x1="620.328" y1="77.5779" x2="632.701" y2="77.5779" gradientUnits="userSpaceOnUse">
<stop stop-color="white"/>
<stop offset="1" stop-color="#E5D6FF"/>
</linearGradient>
<linearGradient id="paint14_linear_64_314" x1="598.391" y1="77.5779" x2="610.785" y2="77.5779" gradientUnits="userSpaceOnUse">
<stop stop-color="white"/>
<stop offset="1" stop-color="#E5D6FF"/>
</linearGradient>
<linearGradient id="paint15_linear_64_314" x1="239.751" y1="89.9694" x2="347.043" y2="103.354" gradientUnits="userSpaceOnUse">
<stop offset="0.0769231" stop-color="#984CD3"/>
<stop offset="0.451923" stop-color="#522BC9"/>
<stop offset="1" stop-color="#411563"/>
</linearGradient>
<linearGradient id="paint16_linear_64_314" x1="227.196" y1="125.515" x2="315.667" y2="148.383" gradientUnits="userSpaceOnUse">
<stop stop-color="#D49CFF"/>
<stop offset="0.302885" stop-color="#AF50F8"/>
<stop offset="1" stop-color="#672F92"/>
</linearGradient>
<linearGradient id="paint17_linear_64_314" x1="928.753" y1="203.325" x2="892.821" y2="242.49" gradientUnits="userSpaceOnUse">
<stop stop-color="#FF9CBF"/>
<stop offset="1" stop-color="#171BFF"/>
</linearGradient>
<linearGradient id="paint18_linear_64_314" x1="923.058" y1="276.335" x2="870.582" y2="267.926" gradientUnits="userSpaceOnUse">
<stop stop-color="#FF9CBF"/>
<stop offset="1" stop-color="#171BFF"/>
</linearGradient>
<linearGradient id="paint19_linear_64_314" x1="864.134" y1="205.265" x2="863.04" y2="258.38" gradientUnits="userSpaceOnUse">
<stop stop-color="#FF9CBF"/>
<stop offset="1" stop-color="#171BFF"/>
</linearGradient>
<linearGradient id="paint20_linear_64_314" x1="882.066" y1="306.87" x2="831.173" y2="291.513" gradientUnits="userSpaceOnUse">
<stop stop-color="#FF9CBF"/>
<stop offset="1" stop-color="#171BFF"/>
</linearGradient>
<linearGradient id="paint21_linear_64_314" x1="833.199" y1="228.282" x2="825.681" y2="280.89" gradientUnits="userSpaceOnUse">
<stop stop-color="#FF9CBF"/>
<stop offset="1" stop-color="#171BFF"/>
</linearGradient>
<linearGradient id="paint22_linear_64_314" x1="841.158" y1="330.238" x2="792.161" y2="309.618" gradientUnits="userSpaceOnUse">
<stop stop-color="#FF9CBF"/>
<stop offset="1" stop-color="#171BFF"/>
</linearGradient>
<linearGradient id="paint23_linear_64_314" x1="800.157" y1="247.313" x2="787.195" y2="298.849" gradientUnits="userSpaceOnUse">
<stop stop-color="#FF9CBF"/>
<stop offset="1" stop-color="#171BFF"/>
</linearGradient>
<linearGradient id="paint24_linear_64_314" x1="765.819" y1="99.0479" x2="771.532" y2="151.882" gradientUnits="userSpaceOnUse">
<stop stop-color="#FFCEE0"/>
<stop offset="1" stop-color="#FF498A"/>
</linearGradient>
<linearGradient id="paint25_linear_64_314" x1="817.904" y1="151.927" x2="776.978" y2="185.82" gradientUnits="userSpaceOnUse">
<stop stop-color="#FFCEE0"/>
<stop offset="1" stop-color="#FF498A"/>
</linearGradient>
<linearGradient id="paint26_linear_64_314" x1="725.493" y1="149.13" x2="764.69" y2="185.03" gradientUnits="userSpaceOnUse">
<stop stop-color="#FFCEE0"/>
<stop offset="1" stop-color="#FF498A"/>
</linearGradient>
<linearGradient id="paint27_linear_64_314" x1="813.263" y1="202.62" x2="768.157" y2="230.744" gradientUnits="userSpaceOnUse">
<stop stop-color="#FFCEE0"/>
<stop offset="1" stop-color="#FF498A"/>
</linearGradient>
<linearGradient id="paint28_linear_64_314" x1="721.502" y1="188.444" x2="756.08" y2="228.788" gradientUnits="userSpaceOnUse">
<stop stop-color="#FFCEE0"/>
<stop offset="1" stop-color="#FF498A"/>
</linearGradient>
<linearGradient id="paint29_linear_64_314" x1="803.219" y1="249.361" x2="755.43" y2="272.605" gradientUnits="userSpaceOnUse">
<stop stop-color="#FFCEE0"/>
<stop offset="1" stop-color="#FF498A"/>
</linearGradient>
<linearGradient id="paint30_linear_64_314" x1="713.874" y1="225.126" x2="744.022" y2="268.878" gradientUnits="userSpaceOnUse">
<stop stop-color="#FFCEE0"/>
<stop offset="1" stop-color="#FF498A"/>
</linearGradient>
<linearGradient id="paint31_linear_64_314" x1="801.918" y1="645.011" x2="851.298" y2="675.088" gradientUnits="userSpaceOnUse">
<stop stop-color="#2767BC"/>
<stop offset="0.610577" stop-color="#142699"/>
<stop offset="1" stop-color="#070D33"/>
</linearGradient>
<linearGradient id="paint32_linear_64_314" x1="756.648" y1="635.629" x2="788.908" y2="640.273" gradientUnits="userSpaceOnUse">
<stop stop-color="#2767BC"/>
<stop offset="0.610577" stop-color="#142699"/>
<stop offset="1" stop-color="#070D33"/>
</linearGradient>
<linearGradient id="paint33_linear_64_314" x1="777.225" y1="609.791" x2="827.545" y2="637.403" gradientUnits="userSpaceOnUse">
<stop stop-color="#2767BC"/>
<stop offset="0.610577" stop-color="#142699"/>
<stop offset="1" stop-color="#070D33"/>
</linearGradient>
<linearGradient id="paint34_linear_64_314" x1="720.221" y1="611.342" x2="750.928" y2="615.424" gradientUnits="userSpaceOnUse">
<stop stop-color="#2767BC"/>
<stop offset="0.610577" stop-color="#142699"/>
<stop offset="1" stop-color="#070D33"/>
</linearGradient>
<linearGradient id="paint35_linear_64_314" x1="745.895" y1="590.116" x2="795.37" y2="620.707" gradientUnits="userSpaceOnUse">
<stop stop-color="#2767BC"/>
<stop offset="0.610577" stop-color="#142699"/>
<stop offset="1" stop-color="#070D33"/>
</linearGradient>
<linearGradient id="paint36_linear_64_314" x1="688.795" y1="585.168" x2="718.969" y2="589.072" gradientUnits="userSpaceOnUse">
<stop stop-color="#2767BC"/>
<stop offset="0.610577" stop-color="#142699"/>
<stop offset="1" stop-color="#070D33"/>
</linearGradient>
<linearGradient id="paint37_linear_64_314" x1="718.2" y1="567.624" x2="766.845" y2="599.935" gradientUnits="userSpaceOnUse">
<stop stop-color="#2767BC"/>
<stop offset="0.610577" stop-color="#142699"/>
<stop offset="1" stop-color="#070D33"/>
</linearGradient>
<linearGradient id="paint38_linear_64_314" x1="845.171" y1="540.237" x2="1011.17" y2="540.237" gradientUnits="userSpaceOnUse">
<stop stop-color="#D1C1FB"/>
<stop offset="1" stop-color="#FFECF6"/>
</linearGradient>
<linearGradient id="paint39_linear_64_314" x1="191.443" y1="110.976" x2="25.4214" y2="110.976" gradientUnits="userSpaceOnUse">
<stop stop-color="#D1C1FB"/>
<stop offset="1" stop-color="#FFECF6"/>
</linearGradient>
<linearGradient id="paint40_linear_64_314" x1="550.613" y1="499.658" x2="849.712" y2="343.34" gradientUnits="userSpaceOnUse">
<stop stop-color="#E3D4FF"/>
<stop offset="0.99" stop-color="#AC85F2"/>
<stop offset="1" stop-color="#AC85F2"/>
</linearGradient>
<linearGradient id="paint41_linear_64_314" x1="665.211" y1="244.717" x2="706.461" y2="579.727" gradientUnits="userSpaceOnUse">
<stop stop-color="#E3D4FF" stop-opacity="0"/>
<stop offset="0.99" stop-color="#AC85F2"/>
</linearGradient>
<linearGradient id="paint42_linear_64_314" x1="704.968" y1="400.88" x2="728.304" y2="530.658" gradientUnits="userSpaceOnUse">
<stop stop-color="#6821FF"/>
<stop offset="1" stop-color="#2201A1"/>
</linearGradient>
<linearGradient id="paint43_linear_64_314" x1="718.392" y1="398.672" x2="741.814" y2="528.879" gradientUnits="userSpaceOnUse">
<stop stop-color="#6821FF"/>
<stop offset="1" stop-color="#2201A1"/>
</linearGradient>
<linearGradient id="paint44_linear_64_314" x1="731.902" y1="396.443" x2="755.41" y2="527.1" gradientUnits="userSpaceOnUse">
<stop stop-color="#6821FF"/>
<stop offset="1" stop-color="#2201A1"/>
</linearGradient>
<linearGradient id="paint45_linear_64_314" x1="745.498" y1="394.192" x2="769.091" y2="525.278" gradientUnits="userSpaceOnUse">
<stop stop-color="#6821FF"/>
<stop offset="1" stop-color="#2201A1"/>
</linearGradient>
<linearGradient id="paint46_linear_64_314" x1="759.179" y1="391.941" x2="782.858" y2="523.477" gradientUnits="userSpaceOnUse">
<stop stop-color="#6821FF"/>
<stop offset="1" stop-color="#2201A1"/>
</linearGradient>
<linearGradient id="paint47_linear_64_314" x1="772.968" y1="389.647" x2="796.711" y2="521.634" gradientUnits="userSpaceOnUse">
<stop stop-color="#6821FF"/>
<stop offset="1" stop-color="#2201A1"/>
</linearGradient>
<linearGradient id="paint48_linear_64_314" x1="786.821" y1="387.354" x2="810.65" y2="519.769" gradientUnits="userSpaceOnUse">
<stop stop-color="#6821FF"/>
<stop offset="1" stop-color="#2201A1"/>
</linearGradient>
<linearGradient id="paint49_linear_64_314" x1="693.153" y1="402.895" x2="716.467" y2="532.48" gradientUnits="userSpaceOnUse">
<stop stop-color="#6821FF"/>
<stop offset="1" stop-color="#2201A1"/>
</linearGradient>
<linearGradient id="paint50_linear_64_314" x1="706.534" y1="400.687" x2="729.934" y2="530.723" gradientUnits="userSpaceOnUse">
<stop stop-color="#6821FF"/>
<stop offset="1" stop-color="#2201A1"/>
</linearGradient>
<linearGradient id="paint51_linear_64_314" x1="719.979" y1="398.458" x2="743.465" y2="528.944" gradientUnits="userSpaceOnUse">
<stop stop-color="#6821FF"/>
<stop offset="1" stop-color="#2201A1"/>
</linearGradient>
<linearGradient id="paint52_linear_64_314" x1="733.511" y1="396.207" x2="757.082" y2="527.164" gradientUnits="userSpaceOnUse">
<stop stop-color="#6821FF"/>
<stop offset="1" stop-color="#2201A1"/>
</linearGradient>
<linearGradient id="paint53_linear_64_314" x1="747.149" y1="393.956" x2="770.785" y2="525.321" gradientUnits="userSpaceOnUse">
<stop stop-color="#6821FF"/>
<stop offset="1" stop-color="#2201A1"/>
</linearGradient>
<linearGradient id="paint54_linear_64_314" x1="760.852" y1="391.662" x2="784.574" y2="523.477" gradientUnits="userSpaceOnUse">
<stop stop-color="#6821FF"/>
<stop offset="1" stop-color="#2201A1"/>
</linearGradient>
<linearGradient id="paint55_linear_64_314" x1="774.641" y1="389.369" x2="798.448" y2="521.634" gradientUnits="userSpaceOnUse">
<stop stop-color="#6821FF"/>
<stop offset="1" stop-color="#2201A1"/>
</linearGradient>
<linearGradient id="paint56_linear_64_314" x1="681.38" y1="404.867" x2="704.694" y2="534.345" gradientUnits="userSpaceOnUse">
<stop stop-color="#6821FF"/>
<stop offset="1" stop-color="#2201A1"/>
</linearGradient>
<linearGradient id="paint57_linear_64_314" x1="694.697" y1="402.681" x2="718.075" y2="532.566" gradientUnits="userSpaceOnUse">
<stop stop-color="#6821FF"/>
<stop offset="1" stop-color="#2201A1"/>
</linearGradient>
<linearGradient id="paint58_linear_64_314" x1="708.099" y1="400.451" x2="731.542" y2="530.787" gradientUnits="userSpaceOnUse">
<stop stop-color="#6821FF"/>
<stop offset="1" stop-color="#2201A1"/>
</linearGradient>
<linearGradient id="paint59_linear_64_314" x1="721.566" y1="398.201" x2="745.095" y2="528.986" gradientUnits="userSpaceOnUse">
<stop stop-color="#6821FF"/>
<stop offset="1" stop-color="#2201A1"/>
</linearGradient>
<linearGradient id="paint60_linear_64_314" x1="735.14" y1="395.928" x2="758.755" y2="527.164" gradientUnits="userSpaceOnUse">
<stop stop-color="#6821FF"/>
<stop offset="1" stop-color="#2201A1"/>
</linearGradient>
<linearGradient id="paint61_linear_64_314" x1="748.779" y1="393.656" x2="772.479" y2="525.321" gradientUnits="userSpaceOnUse">
<stop stop-color="#6821FF"/>
<stop offset="1" stop-color="#2201A1"/>
</linearGradient>
<linearGradient id="paint62_linear_64_314" x1="762.525" y1="391.341" x2="786.289" y2="523.477" gradientUnits="userSpaceOnUse">
<stop stop-color="#6821FF"/>
<stop offset="1" stop-color="#2201A1"/>
</linearGradient>
<linearGradient id="paint63_linear_64_314" x1="669.65" y1="406.839" x2="692.921" y2="536.167" gradientUnits="userSpaceOnUse">
<stop stop-color="#6821FF"/>
<stop offset="1" stop-color="#2201A1"/>
</linearGradient>
<linearGradient id="paint64_linear_64_314" x1="682.902" y1="404.631" x2="706.26" y2="534.388" gradientUnits="userSpaceOnUse">
<stop stop-color="#6821FF"/>
<stop offset="1" stop-color="#2201A1"/>
</linearGradient>
<linearGradient id="paint65_linear_64_314" x1="696.241" y1="402.402" x2="719.662" y2="532.588" gradientUnits="userSpaceOnUse">
<stop stop-color="#6821FF"/>
<stop offset="1" stop-color="#2201A1"/>
</linearGradient>
<linearGradient id="paint66_linear_64_314" x1="709.665" y1="400.151" x2="733.172" y2="530.787" gradientUnits="userSpaceOnUse">
<stop stop-color="#6821FF"/>
<stop offset="1" stop-color="#2201A1"/>
</linearGradient>
<linearGradient id="paint67_linear_64_314" x1="723.153" y1="397.9" x2="746.746" y2="528.965" gradientUnits="userSpaceOnUse">
<stop stop-color="#6821FF"/>
<stop offset="1" stop-color="#2201A1"/>
</linearGradient>
<linearGradient id="paint68_linear_64_314" x1="736.749" y1="395.607" x2="760.406" y2="527.121" gradientUnits="userSpaceOnUse">
<stop stop-color="#6821FF"/>
<stop offset="1" stop-color="#2201A1"/>
</linearGradient>
<linearGradient id="paint69_linear_64_314" x1="750.409" y1="393.313" x2="774.152" y2="525.278" gradientUnits="userSpaceOnUse">
<stop stop-color="#6821FF"/>
<stop offset="1" stop-color="#2201A1"/>
</linearGradient>
<linearGradient id="paint70_linear_64_314" x1="657.963" y1="408.769" x2="681.192" y2="537.947" gradientUnits="userSpaceOnUse">
<stop stop-color="#6821FF"/>
<stop offset="1" stop-color="#2201A1"/>
</linearGradient>
<linearGradient id="paint71_linear_64_314" x1="671.151" y1="406.561" x2="694.465" y2="536.189" gradientUnits="userSpaceOnUse">
<stop stop-color="#6821FF"/>
<stop offset="1" stop-color="#2201A1"/>
</linearGradient>
<linearGradient id="paint72_linear_64_314" x1="684.425" y1="404.331" x2="707.825" y2="534.388" gradientUnits="userSpaceOnUse">
<stop stop-color="#6821FF"/>
<stop offset="1" stop-color="#2201A1"/>
</linearGradient>
<linearGradient id="paint73_linear_64_314" x1="697.785" y1="402.08" x2="721.249" y2="532.588" gradientUnits="userSpaceOnUse">
<stop stop-color="#6821FF"/>
<stop offset="1" stop-color="#2201A1"/>
</linearGradient>
<linearGradient id="paint74_linear_64_314" x1="711.209" y1="399.808" x2="734.78" y2="530.766" gradientUnits="userSpaceOnUse">
<stop stop-color="#6821FF"/>
<stop offset="1" stop-color="#2201A1"/>
</linearGradient>
<linearGradient id="paint75_linear_64_314" x1="724.74" y1="397.515" x2="748.376" y2="528.922" gradientUnits="userSpaceOnUse">
<stop stop-color="#6821FF"/>
<stop offset="1" stop-color="#2201A1"/>
</linearGradient>
<linearGradient id="paint76_linear_64_314" x1="738.357" y1="395.221" x2="762.079" y2="527.057" gradientUnits="userSpaceOnUse">
<stop stop-color="#6821FF"/>
<stop offset="1" stop-color="#2201A1"/>
</linearGradient>
<linearGradient id="paint77_linear_64_314" x1="331.988" y1="167.503" x2="560.561" y2="473.695" gradientUnits="userSpaceOnUse">
<stop stop-color="white"/>
<stop offset="0.99" stop-color="#C6A6FF"/>
</linearGradient>
<linearGradient id="paint78_linear_64_314" x1="297.699" y1="591.749" x2="598.039" y2="428.611" gradientUnits="userSpaceOnUse">
<stop stop-color="#E3D4FF"/>
<stop offset="0.99" stop-color="#9D71EB"/>
</linearGradient>
<linearGradient id="paint79_linear_64_314" x1="261.287" y1="556.443" x2="535.813" y2="407.333" gradientUnits="userSpaceOnUse">
<stop stop-color="#E3D4FF"/>
<stop offset="0.99" stop-color="#9D71EB"/>
</linearGradient>
<linearGradient id="paint80_linear_64_314" x1="244.131" y1="304.931" x2="607.976" y2="304.931" gradientUnits="userSpaceOnUse">
<stop stop-color="#E3D4FF"/>
<stop offset="0.99" stop-color="#9D71EB"/>
</linearGradient>
<linearGradient id="paint81_linear_64_314" x1="650.264" y1="328.726" x2="724.407" y2="419.385" gradientUnits="userSpaceOnUse">
<stop stop-color="#E3D4FF"/>
<stop offset="0.99" stop-color="#AC85F2"/>
<stop offset="1" stop-color="#AC85F2"/>
</linearGradient>
<linearGradient id="paint82_linear_64_314" x1="534.808" y1="251.812" x2="690.649" y2="360.463" gradientUnits="userSpaceOnUse">
<stop stop-color="#E3D4FF"/>
<stop offset="0.99" stop-color="#AC85F2"/>
<stop offset="1" stop-color="#AC85F2"/>
</linearGradient>
<linearGradient id="paint83_linear_64_314" x1="373.783" y1="438.286" x2="293.773" y2="321.067" gradientUnits="userSpaceOnUse">
<stop stop-color="white"/>
<stop offset="1" stop-color="white" stop-opacity="0.3"/>
</linearGradient>
<linearGradient id="paint84_linear_64_314" x1="563.758" y1="404.91" x2="451.603" y2="207.66" gradientUnits="userSpaceOnUse">
<stop stop-color="white"/>
<stop offset="1" stop-color="white" stop-opacity="0.3"/>
</linearGradient>
<linearGradient id="paint85_linear_64_314" x1="406.55" y1="578.458" x2="414.95" y2="487.654" gradientUnits="userSpaceOnUse">
<stop stop-color="white"/>
<stop offset="0.99" stop-color="#C6A6FF"/>
</linearGradient>
<linearGradient id="paint86_linear_64_314" x1="574.63" y1="542.445" x2="857.221" y2="394.749" gradientUnits="userSpaceOnUse">
<stop stop-color="#E3D4FF"/>
<stop offset="0.99" stop-color="#AC85F2"/>
<stop offset="1" stop-color="#AC85F2"/>
</linearGradient>
<linearGradient id="paint87_linear_64_314" x1="557.175" y1="248.747" x2="599.518" y2="592.46" gradientUnits="userSpaceOnUse">
<stop stop-color="#E3D4FF" stop-opacity="0"/>
<stop offset="0.99" stop-color="#AC85F2"/>
</linearGradient>
<linearGradient id="paint88_linear_64_314" x1="262.681" y1="571.706" x2="719.679" y2="571.706" gradientUnits="userSpaceOnUse">
<stop stop-color="#E3D4FF"/>
<stop offset="0.99" stop-color="#9D71EB"/>
</linearGradient>
<linearGradient id="paint89_linear_64_314" x1="228.694" y1="398.867" x2="158.559" y2="461.674" gradientUnits="userSpaceOnUse">
<stop stop-color="#FFEDB2"/>
<stop offset="1" stop-color="#FFA1D5"/>
</linearGradient>
<linearGradient id="paint90_linear_64_314" x1="725.51" y1="266.108" x2="715.546" y2="344.48" gradientUnits="userSpaceOnUse">
<stop stop-color="#FFE6DA"/>
<stop offset="1" stop-color="#F4B188"/>
</linearGradient>
<linearGradient id="paint91_linear_64_314" x1="738.763" y1="337.577" x2="702.952" y2="414.607" gradientUnits="userSpaceOnUse">
<stop stop-color="#FFE6DA"/>
<stop offset="1" stop-color="#FFC5A1"/>
</linearGradient>
<linearGradient id="paint92_linear_64_314" x1="804.384" y1="440.237" x2="850.121" y2="518.13" gradientUnits="userSpaceOnUse">
<stop stop-color="white"/>
<stop offset="1" stop-color="#E5D6FF"/>
</linearGradient>
<linearGradient id="paint93_linear_64_314" x1="747.964" y1="39.357" x2="825.785" y2="39.357" gradientUnits="userSpaceOnUse">
<stop stop-color="#E3D4FF"/>
<stop offset="0.99" stop-color="#9D71EB"/>
</linearGradient>
<linearGradient id="paint94_linear_64_314" x1="747.964" y1="39.357" x2="825.785" y2="39.357" gradientUnits="userSpaceOnUse">
<stop stop-color="#E3D4FF"/>
<stop offset="0.99" stop-color="#9D71EB"/>
</linearGradient>
<linearGradient id="paint95_linear_64_314" x1="724.611" y1="21.6078" x2="825.785" y2="21.6078" gradientUnits="userSpaceOnUse">
<stop stop-color="#E3D4FF"/>
<stop offset="0.99" stop-color="#9D71EB"/>
</linearGradient>
<linearGradient id="paint96_linear_64_314" x1="769.173" y1="38.0065" x2="825.785" y2="38.0065" gradientUnits="userSpaceOnUse">
<stop stop-color="#E3D4FF"/>
<stop offset="0.99" stop-color="#9D71EB"/>
</linearGradient>
<linearGradient id="paint97_linear_64_314" x1="521.599" y1="648.405" x2="443.777" y2="648.405" gradientUnits="userSpaceOnUse">
<stop stop-color="#E3D4FF"/>
<stop offset="0.99" stop-color="#9D71EB"/>
</linearGradient>
<linearGradient id="paint98_linear_64_314" x1="521.599" y1="648.405" x2="443.777" y2="648.405" gradientUnits="userSpaceOnUse">
<stop stop-color="#E3D4FF"/>
<stop offset="0.99" stop-color="#9D71EB"/>
</linearGradient>
<linearGradient id="paint99_linear_64_314" x1="544.951" y1="630.656" x2="443.777" y2="630.656" gradientUnits="userSpaceOnUse">
<stop stop-color="#E3D4FF"/>
<stop offset="0.99" stop-color="#9D71EB"/>
</linearGradient>
<linearGradient id="paint100_linear_64_314" x1="500.39" y1="647.076" x2="443.777" y2="647.076" gradientUnits="userSpaceOnUse">
<stop stop-color="#E3D4FF"/>
<stop offset="0.99" stop-color="#9D71EB"/>
</linearGradient>
</defs>
</svg>
