<svg width="1223" height="1233" viewBox="0 0 1223 1233" fill="none" xmlns="http://www.w3.org/2000/svg">
<rect x="413" y="456" width="517" height="150" rx="75" fill="url(#paint0_linear_95_104)"/>
<path d="M899.47 211C956.355 211 1002.47 257.115 1002.47 314C1002.47 370.885 956.355 417 899.47 417H544.47C509.558 417 520.18 381 555.092 381H849.971C887.25 381 917.471 350.779 917.471 313.5C917.471 276.221 887.25 246 849.971 246H554.637C520.583 246 510.416 211 544.47 211H899.47Z" fill="url(#paint1_linear_95_104)"/>
<path d="M451 640C394.115 640 348 686.115 348 743C348 799.885 394.115 846 451 846H806C840.912 846 830.29 810 795.377 810H500.499C463.22 810 432.999 779.779 432.999 742.5C432.999 705.221 463.22 675 500.499 675H795.833C829.887 675 840.054 640 806 640H451Z" fill="url(#paint2_linear_95_104)"/>
<path d="M668.064 685.193C541.927 647.495 384.736 906.926 326.528 763.689C268.319 620.452 500.739 562.747 457.209 421.896C413.678 281.046 632.707 136.14 675.981 387.084C719.255 638.027 980.653 368.844 918.134 617.283C855.615 865.721 794.201 722.892 668.064 685.193Z" stroke="url(#paint3_linear_95_104)" stroke-width="3.27198"/>
<path d="M675.996 694.791C532.238 651.795 353.204 947.294 286.816 784.088C220.429 620.881 485.269 555.229 435.608 394.748C385.948 234.266 635.494 69.2651 684.904 355.171C734.315 641.076 1032.1 334.508 960.947 617.519C889.796 900.53 819.755 737.787 675.996 694.791Z" stroke="url(#paint4_linear_95_104)" stroke-width="3.27198"/>
<path d="M686.375 707.35C519.559 657.424 311.939 1000.13 234.85 810.788C157.762 621.45 465.027 545.393 407.348 359.223C349.669 173.052 639.152 -18.252 696.586 313.406C754.021 645.064 1099.42 289.565 1016.97 617.822C934.518 946.079 853.191 757.277 686.375 707.35Z" stroke="url(#paint5_linear_95_104)" stroke-width="3.27198"/>
<path d="M698.24 721.735C505.029 663.9 264.589 1060.78 175.29 841.494C85.9917 622.209 441.861 534.149 375.042 318.534C308.223 102.918 643.488 -118.615 710.035 265.494C776.583 649.604 1176.6 237.915 1081.13 618.074C985.659 998.234 891.45 779.57 698.24 721.735Z" stroke="url(#paint6_linear_95_104)" stroke-width="3.27198"/>
<path d="M664.51 656.146C564.095 626.118 439.018 832.556 392.655 718.549C346.291 604.541 531.292 558.663 496.612 446.558C461.933 334.453 636.256 219.173 670.753 418.896C705.25 618.618 913.276 404.44 863.559 602.148C813.842 799.856 764.926 686.173 664.51 656.146Z" stroke="url(#paint7_linear_95_104)" stroke-width="3.27198"/>
<path d="M645.911 634.639C585.474 617.589 506.393 747.522 480.049 677.564C453.705 607.607 566.629 576.281 547.343 507.321C528.056 438.362 635.586 364.175 653.396 487.457C671.206 610.739 800.72 474.714 767.483 598.06C734.246 721.406 706.349 651.689 645.911 634.639Z" stroke="url(#paint8_linear_95_104)" stroke-width="3.27198"/>
<path d="M635.118 620.412C601.958 611.063 558.549 682.381 544.104 643.992C529.658 605.602 591.624 588.395 581.05 550.552C570.477 512.709 629.488 471.98 639.244 539.636C649 607.292 720.082 532.624 701.829 600.321C683.575 668.019 668.277 629.762 635.118 620.412Z" stroke="url(#paint9_linear_95_104)" stroke-width="3.27198"/>
<path d="M628.141 612.384C608.191 606.781 581.991 649.815 573.334 626.688C564.677 603.562 601.993 593.128 595.666 570.327C589.34 547.526 624.901 522.916 630.706 563.689C636.511 604.461 679.371 559.381 668.316 600.206C657.261 641.032 648.091 617.986 628.141 612.384Z" stroke="url(#paint10_linear_95_104)" stroke-width="3.27198"/>
<path d="M624.188 607.416C613.267 604.35 598.919 627.916 594.183 615.254C589.446 602.593 609.876 596.875 606.415 584.391C602.954 571.908 622.425 558.429 625.598 580.753C628.771 603.077 652.24 578.388 646.183 600.743C640.126 623.098 635.109 610.481 624.188 607.416Z" stroke="url(#paint11_linear_95_104)" stroke-width="3.27198"/>
<path d="M779.71 839.065C773.877 861.187 781.704 884.81 815.822 894.392C818.803 868.047 805.894 845.668 779.71 839.065Z" fill="url(#paint12_linear_95_104)" stroke="#110151" stroke-width="1.5" stroke-linejoin="round"/>
<path d="M750.181 679.065C750.181 679.065 744.928 801.852 800.961 874.414" stroke="#110151" stroke-width="1.5" stroke-linecap="round" stroke-linejoin="round"/>
<path d="M768.666 810.769C746.986 818.1 731.589 837.65 742.354 871.37C765.986 859.365 777.566 836.257 768.666 810.769Z" fill="url(#paint13_linear_95_104)" stroke="#110151" stroke-width="1.5" stroke-linejoin="round"/>
<path d="M768.666 810.791C761.44 822.581 755.307 835.035 750.868 848.004" stroke="#110151" stroke-width="1.5" stroke-linecap="round" stroke-linejoin="round"/>
<path d="M768.666 810.769C778.917 831.241 800.404 843.781 832.334 828.454C817.173 806.696 792.684 798.422 768.666 810.769Z" fill="url(#paint14_linear_95_104)" stroke="#110151" stroke-width="1.5" stroke-linejoin="round"/>
<path d="M768.666 810.791C781.34 816.321 794.528 820.694 807.995 823.288" stroke="#110151" stroke-width="1.5" stroke-linecap="round" stroke-linejoin="round"/>
<path d="M757.43 767.254C734.956 771.627 717.093 788.926 723.269 823.803C748.294 815.057 762.855 793.706 757.43 767.254Z" fill="url(#paint15_linear_95_104)" stroke="#110151" stroke-width="1.5" stroke-linejoin="round"/>
<path d="M757.43 767.254C748.702 777.972 740.939 789.483 734.806 801.745" stroke="#110151" stroke-width="1.5" stroke-linecap="round" stroke-linejoin="round"/>
<path d="M757.387 767.253C765.085 788.797 784.9 803.867 818.46 792.505C806.022 769.097 782.712 757.907 757.387 767.253Z" fill="url(#paint16_linear_95_104)" stroke="#110151" stroke-width="1.5" stroke-linejoin="round"/>
<path d="M757.387 767.253C769.288 774.263 781.855 780.201 794.914 784.424" stroke="#110151" stroke-width="1.5" stroke-linecap="round" stroke-linejoin="round"/>
<path d="M751.061 724.96C728.265 726.954 708.665 742.302 711.153 777.607C736.972 771.541 753.698 751.82 751.061 724.96Z" fill="url(#paint17_linear_95_104)" stroke="#110151" stroke-width="1.5" stroke-linejoin="round"/>
<path d="M751.039 724.981C741.218 734.735 732.318 745.367 724.92 756.922" stroke="#110151" stroke-width="1.5" stroke-linecap="round" stroke-linejoin="round"/>
<path d="M750.996 724.96C756.4 747.189 774.521 764.253 809.067 756.493C799.16 731.905 777.158 718.336 750.996 724.96Z" fill="url(#paint18_linear_95_104)" stroke="#110151" stroke-width="1.5" stroke-linejoin="round"/>
<path d="M750.996 724.96C762.104 733.191 773.963 740.394 786.508 745.967" stroke="#110151" stroke-width="1.5" stroke-linecap="round" stroke-linejoin="round"/>
<path d="M808.295 199.664H537.54V334.541H808.295V199.664Z" fill="url(#paint19_linear_95_104)"/>
<path d="M808.295 199.664H537.54V236.127H808.295V199.664Z" fill="url(#paint20_linear_95_104)"/>
<path d="M808.295 235.119H537.54V237.134H808.295V235.119Z" fill="#110151"/>
<path d="M804.607 203.351L808.295 199.664H537.54L541.229 203.351H804.607Z" fill="white"/>
<path d="M541.229 330.854L537.54 334.541H808.295L804.607 330.854H541.229Z" fill="#A388D4"/>
<path d="M804.607 203.351V330.854L808.295 334.541V199.664L804.607 203.351Z" fill="#C5B6E3"/>
<path d="M541.229 203.351L537.54 199.664V334.541L541.229 330.854V203.351Z" fill="#F0E7FF"/>
<path d="M791.526 227.659H775.979L775.657 227.338V211.818H791.204L791.526 212.14V227.659Z" fill="#543880"/>
<path d="M791.183 211.818H775.657V227.338H791.183V211.818Z" fill="#F0E7FF"/>
<path d="M789.617 213.383H777.244V225.752H789.617V213.383Z" fill="url(#paint21_linear_95_104)"/>
<path d="M785.822 223.394L779.603 217.177L781.018 215.762L787.259 221.979L785.822 223.394Z" fill="#110151"/>
<path d="M785.86 215.801L779.643 222.016L781.068 223.441L787.285 217.226L785.86 215.801Z" fill="#110151"/>
<path d="M777.244 213.383L775.657 211.818H791.204L789.617 213.383H777.244Z" fill="white"/>
<path d="M789.617 225.773L791.204 227.338H775.657L777.244 225.773H789.617Z" fill="#A388D4"/>
<path d="M789.617 213.383L791.204 211.818V227.338L789.617 225.773V213.383Z" fill="#C5B6E3"/>
<path d="M769.588 227.659H754.063L753.741 227.338V211.818H769.267L769.588 212.14V227.659Z" fill="#543880"/>
<path d="M769.267 211.818H753.741V227.338H769.267V211.818Z" fill="#F0E7FF"/>
<path d="M767.701 213.383H755.328V225.752H767.701V213.383Z" fill="url(#paint22_linear_95_104)"/>
<path d="M765.814 223.565H757.194V215.612H765.814V223.565ZM759.209 221.529H763.799V217.606H759.209V221.529Z" fill="#110151"/>
<path d="M764.806 216.598H758.202V218.592H764.806V216.598Z" fill="#110151"/>
<path d="M755.328 213.383L753.741 211.818H769.267L767.701 213.383H755.328Z" fill="white"/>
<path d="M767.701 225.773L769.267 227.338H753.741L755.328 225.773H767.701Z" fill="#A388D4"/>
<path d="M767.701 213.383L769.267 211.818V227.338L767.701 225.773V213.383Z" fill="#C5B6E3"/>
<path d="M747.672 227.659H732.147L731.825 227.338V211.818H747.351L747.672 212.14V227.659Z" fill="#543880"/>
<path d="M747.351 211.818H731.825V227.338H747.351V211.818Z" fill="#F0E7FF"/>
<path d="M745.764 213.383H733.391V225.752H745.764V213.383Z" fill="url(#paint23_linear_95_104)"/>
<path d="M742.998 222.215H736.178V224.23H742.998V222.215Z" fill="#110151"/>
<path d="M733.391 213.383L731.825 211.818H747.351L745.785 213.383H733.391Z" fill="white"/>
<path d="M745.785 225.773L747.351 227.338H731.825L733.391 225.773H745.785Z" fill="#A388D4"/>
<path d="M745.785 213.383L747.351 211.818V227.338L745.785 225.773V213.383Z" fill="#C5B6E3"/>
<path d="M808.295 199.664H537.54V334.541H808.295V199.664Z" stroke="#110151" stroke-width="1.5" stroke-linejoin="round"/>
<path d="M468.254 227.745H432.721C430.362 227.745 428.153 229.653 427.788 232.011L426.545 240.393H386.723C384.364 240.393 382.155 242.3 381.812 244.658L372.741 305.473C372.376 307.831 374.028 309.76 376.387 309.76H456.009C458.368 309.76 460.577 307.853 460.92 305.473L462.807 292.826L469.991 244.637L471.878 231.99C472.221 229.632 470.591 227.724 468.232 227.724L468.254 227.745Z" fill="url(#paint24_linear_95_104)" stroke="#110151" stroke-width="1.5" stroke-linejoin="round"/>
<path d="M459.504 305.473C460.234 307.831 458.904 309.76 456.545 309.76H376.923C374.564 309.76 372.055 307.853 371.347 305.473L356.593 257.242C355.864 254.884 357.194 252.976 359.553 252.976H439.175C441.534 252.976 444.043 254.884 444.751 257.242L459.504 305.473Z" fill="url(#paint25_linear_95_104)" stroke="#110151" stroke-width="1.5" stroke-linejoin="round"/>
<path d="M1022.03 390.211C1044.91 389.911 1065.58 376.063 1065.71 340.65C1039.53 344.809 1021.39 363.222 1022.03 390.211Z" fill="url(#paint26_linear_95_104)" stroke="#110151" stroke-width="1.5" stroke-linejoin="round"/>
<path d="M875.695 461.401C875.695 461.401 995.482 433.641 1050.44 360.286" stroke="#110151" stroke-width="1.5" stroke-linecap="round" stroke-linejoin="round"/>
<path d="M997.712 408.389C1010.58 427.317 1033.52 436.92 1063.16 417.542C1045.25 397.992 1019.89 392.997 997.712 408.389Z" fill="url(#paint27_linear_95_104)" stroke="#110151" stroke-width="1.5" stroke-linejoin="round"/>
<path d="M997.734 408.389C1011.03 412.204 1024.67 414.777 1038.37 415.591" stroke="#110151" stroke-width="1.5" stroke-linecap="round" stroke-linejoin="round"/>
<path d="M997.712 408.389C1014.7 393.04 1021.07 368.989 997.755 342.322C980.836 362.729 979.399 388.539 997.712 408.389Z" fill="url(#paint28_linear_95_104)" stroke="#110151" stroke-width="1.5" stroke-linejoin="round"/>
<path d="M997.734 408.389C999.664 394.691 1000.35 380.843 999.278 367.167" stroke="#110151" stroke-width="1.5" stroke-linecap="round" stroke-linejoin="round"/>
<path d="M958.77 430.854C968.977 451.326 990.443 463.909 1022.42 448.646C1007.3 426.867 982.809 418.55 958.77 430.854Z" fill="url(#paint29_linear_95_104)" stroke="#110151" stroke-width="1.5" stroke-linejoin="round"/>
<path d="M958.77 430.854C971.443 436.406 984.61 440.779 998.077 443.416" stroke="#110151" stroke-width="1.5" stroke-linecap="round" stroke-linejoin="round"/>
<path d="M958.791 430.897C977.512 417.735 986.733 394.605 966.811 365.323C947.554 383.544 943.008 408.989 958.791 430.897Z" fill="url(#paint30_linear_95_104)" stroke="#110151" stroke-width="1.5" stroke-linejoin="round"/>
<path d="M958.791 430.897C962.372 417.542 964.731 403.866 965.31 390.168" stroke="#110151" stroke-width="1.5" stroke-linecap="round" stroke-linejoin="round"/>
<path d="M919.698 448.282C927.718 469.718 947.726 484.487 981.115 472.655C968.355 449.418 944.895 438.571 919.698 448.282Z" fill="url(#paint31_linear_95_104)" stroke="#110151" stroke-width="1.5" stroke-linejoin="round"/>
<path d="M919.698 448.281C931.728 455.12 944.359 460.865 957.462 464.916" stroke="#110151" stroke-width="1.5" stroke-linecap="round" stroke-linejoin="round"/>
<path d="M919.72 448.324C939.727 437.178 951.307 415.184 934.581 383.951C913.522 400.05 906.317 424.895 919.72 448.324Z" fill="url(#paint32_linear_95_104)" stroke="#110151" stroke-width="1.5" stroke-linejoin="round"/>
<path d="M919.72 448.324C924.673 435.42 928.469 422.065 930.485 408.496" stroke="#110151" stroke-width="1.5" stroke-linecap="round" stroke-linejoin="round"/>
<path d="M907.432 302.408C922.314 285.023 925.531 260.35 898.983 236.877C884.83 259.299 886.717 285.066 907.432 302.408Z" fill="url(#paint33_linear_95_104)" stroke="#110151" stroke-width="1.5" stroke-linejoin="round"/>
<path d="M864.415 459.321C864.415 459.321 922.572 351.025 903.679 261.336" stroke="#110151" stroke-width="1.5" stroke-linecap="round" stroke-linejoin="round"/>
<path d="M905.073 332.676C927.783 335.505 950.149 324.594 955.124 289.546C928.619 290.082 908.14 305.859 905.073 332.676Z" fill="url(#paint34_linear_95_104)" stroke="#110151" stroke-width="1.5" stroke-linejoin="round"/>
<path d="M905.073 332.676C916.717 325.194 927.654 316.663 937.304 306.909" stroke="#110151" stroke-width="1.5" stroke-linecap="round" stroke-linejoin="round"/>
<path d="M905.073 332.676C904.752 309.782 890.856 289.139 855.43 289.053C859.611 315.227 878.075 333.34 905.073 332.676Z" fill="url(#paint35_linear_95_104)" stroke="#110151" stroke-width="1.5" stroke-linejoin="round"/>
<path d="M905.073 332.676C896.067 322.193 886.095 312.526 875.094 304.316" stroke="#110151" stroke-width="1.5" stroke-linecap="round" stroke-linejoin="round"/>
<path d="M896.26 376.749C918.39 382.579 942.022 374.755 951.629 340.671C925.274 337.67 902.886 350.575 896.26 376.749Z" fill="url(#paint36_linear_95_104)" stroke="#110151" stroke-width="1.5" stroke-linejoin="round"/>
<path d="M896.26 376.749C908.783 370.897 920.77 363.887 931.643 355.505" stroke="#110151" stroke-width="1.5" stroke-linecap="round" stroke-linejoin="round"/>
<path d="M896.303 376.77C898.747 354.026 887.467 331.84 852.299 327.488C853.307 353.983 869.433 374.176 896.303 376.77Z" fill="url(#paint37_linear_95_104)" stroke="#110151" stroke-width="1.5" stroke-linejoin="round"/>
<path d="M896.303 376.77C888.625 365.259 879.898 354.476 869.969 345.002" stroke="#110151" stroke-width="1.5" stroke-linecap="round" stroke-linejoin="round"/>
<path d="M883.607 417.606C905.009 425.731 929.327 420.436 942.451 387.553C916.567 381.808 892.936 392.29 883.607 417.606Z" fill="url(#paint38_linear_95_104)" stroke="#110151" stroke-width="1.5" stroke-linejoin="round"/>
<path d="M883.607 417.606C896.688 413.105 909.341 407.403 921.028 400.2" stroke="#110151" stroke-width="1.5" stroke-linecap="round" stroke-linejoin="round"/>
<path d="M883.65 417.628C888.475 395.248 879.555 372.033 845.072 363.994C843.292 390.447 857.21 412.226 883.65 417.628Z" fill="url(#paint39_linear_95_104)" stroke="#110151" stroke-width="1.5" stroke-linejoin="round"/>
<path d="M883.65 417.628C877.217 405.388 869.669 393.726 860.812 383.287" stroke="#110151" stroke-width="1.5" stroke-linecap="round" stroke-linejoin="round"/>
<path d="M908.569 791.305C916.975 810.191 935.846 822.388 965.267 809.869C952.487 789.633 930.721 781.166 908.569 791.305Z" fill="url(#paint40_linear_95_104)" stroke="#110151" stroke-width="1.5" stroke-linejoin="round"/>
<path d="M797.294 695.335C797.294 695.335 863.042 784.767 943.523 804.188" stroke="#110151" stroke-width="1.5" stroke-linecap="round" stroke-linejoin="round"/>
<path d="M884.808 777.629C873.679 795.035 873.893 817.5 900.548 835.164C910.391 813.342 905.481 790.534 884.808 777.629Z" fill="url(#paint41_linear_95_104)" stroke="#110151" stroke-width="1.5" stroke-linejoin="round"/>
<path d="M884.808 777.629C886.395 790.019 889.097 802.238 893.3 813.899" stroke="#110151" stroke-width="1.5" stroke-linecap="round" stroke-linejoin="round"/>
<path d="M884.808 777.629C903.594 786.246 925.81 782.945 939.641 754.113C916.675 747.361 894.737 755.378 884.808 777.629Z" fill="url(#paint42_linear_95_104)" stroke="#110151" stroke-width="1.5" stroke-linejoin="round"/>
<path d="M884.808 777.629C896.86 774.349 908.612 769.976 919.57 764.21" stroke="#110151" stroke-width="1.5" stroke-linecap="round" stroke-linejoin="round"/>
<path d="M852.277 753.342C838.918 769.119 836.13 791.391 860.19 812.463C872.864 792.163 871.041 768.883 852.277 753.342Z" fill="url(#paint43_linear_95_104)" stroke="#110151" stroke-width="1.5" stroke-linejoin="round"/>
<path d="M852.277 753.342C852.192 765.817 853.242 778.315 855.859 790.405" stroke="#110151" stroke-width="1.5" stroke-linecap="round" stroke-linejoin="round"/>
<path d="M852.256 753.363C869.862 764.188 892.335 763.588 909.534 736.643C887.532 727.168 864.801 732.484 852.256 753.363Z" fill="url(#paint44_linear_95_104)" stroke="#110151" stroke-width="1.5" stroke-linejoin="round"/>
<path d="M852.256 753.363C864.608 751.584 876.81 748.647 888.39 744.253" stroke="#110151" stroke-width="1.5" stroke-linecap="round" stroke-linejoin="round"/>
<path d="M823.885 727.168C808.96 741.445 803.835 763.331 825.558 786.804C840.29 767.94 840.933 744.617 823.885 727.168Z" fill="url(#paint45_linear_95_104)" stroke="#110151" stroke-width="1.5" stroke-linejoin="round"/>
<path d="M823.885 727.168C822.491 739.58 822.234 752.098 823.564 764.424" stroke="#110151" stroke-width="1.5" stroke-linecap="round" stroke-linejoin="round"/>
<path d="M823.842 727.189C840.226 739.794 862.614 741.552 882.557 716.557C861.692 704.831 838.51 707.725 823.842 727.189Z" fill="url(#paint46_linear_95_104)" stroke="#110151" stroke-width="1.5" stroke-linejoin="round"/>
<path d="M823.842 727.189C836.323 726.696 848.761 725.067 860.727 721.916" stroke="#110151" stroke-width="1.5" stroke-linecap="round" stroke-linejoin="round"/>
<path d="M1131.29 688.282H1120.2V676.171H1108.13V664.081H1098.78V651.969H1077.48V664.081H1054.09V676.171H1034.75V688.282H1012.17V700.394H980.171V712.505H1146.17V700.394H1131.29V688.282Z" fill="url(#paint47_linear_95_104)" stroke="#110151" stroke-width="1.5" stroke-linejoin="round"/>
<path d="M175.325 259.021H186.412V246.931H198.485V234.819H207.835V222.708H229.15V234.819H252.546V246.931H271.867V259.021H294.448V271.132H326.464V283.244H160.443V271.132H175.325V259.021Z" fill="url(#paint48_linear_95_104)" stroke="#110151" stroke-width="1.5" stroke-linejoin="round"/>
<path d="M821.055 364.509L749.152 713.363L854.679 757.243L922.229 724.531L994.753 486.267L821.055 364.509Z" fill="url(#paint49_linear_95_104)"/>
<path d="M754.835 685.839L797.252 705.131L885.259 409.525L821.055 364.509L754.835 685.839Z" fill="url(#paint50_linear_95_104)" style="mix-blend-mode:multiply"/>
<path d="M821.055 364.509L994.753 486.267L922.229 724.531L854.679 757.243L749.152 713.363" stroke="#110151" stroke-width="1.5" stroke-linejoin="round"/>
<path d="M831.434 511.026C833.728 512.312 836.366 510.876 837.352 507.767C838.339 504.681 837.266 501.122 834.993 499.836C832.699 498.55 830.061 500.007 829.075 503.073C828.088 506.16 829.161 509.718 831.434 511.026Z" fill="url(#paint51_linear_95_104)" stroke="#110151" stroke-width="1.5" stroke-miterlimit="10"/>
<path d="M846.831 519.75C849.125 521.058 851.806 519.6 852.792 516.492C853.778 513.405 852.706 509.825 850.412 508.539C848.117 507.231 845.458 508.689 844.472 511.776C843.485 514.884 844.557 518.443 846.852 519.75H846.831Z" fill="url(#paint52_linear_95_104)" stroke="#110151" stroke-width="1.5" stroke-miterlimit="10"/>
<path d="M862.313 528.518C864.629 529.847 867.31 528.389 868.318 525.281C869.304 522.173 868.232 518.593 865.916 517.285C863.6 515.977 860.919 517.435 859.933 520.543C858.947 523.652 860.019 527.232 862.335 528.539L862.313 528.518Z" fill="url(#paint53_linear_95_104)" stroke="#110151" stroke-width="1.5" stroke-miterlimit="10"/>
<path d="M877.882 537.349C880.219 538.678 882.921 537.221 883.908 534.091C884.916 530.983 883.822 527.381 881.506 526.074C879.169 524.745 876.467 526.202 875.48 529.311C874.494 532.419 875.566 536.02 877.882 537.328V537.349Z" fill="url(#paint54_linear_95_104)" stroke="#110151" stroke-width="1.5" stroke-miterlimit="10"/>
<path d="M893.558 546.246C895.895 547.575 898.618 546.117 899.626 542.987C900.634 539.879 899.541 536.256 897.203 534.949C894.844 533.62 892.142 535.077 891.134 538.185C890.127 541.315 891.22 544.916 893.558 546.246Z" fill="url(#paint55_linear_95_104)" stroke="#110151" stroke-width="1.5" stroke-miterlimit="10"/>
<path d="M909.341 555.184C911.699 556.535 914.444 555.077 915.474 551.947C916.481 548.818 915.388 545.195 913.008 543.866C910.649 542.537 907.925 543.995 906.896 547.124C905.888 550.254 906.982 553.877 909.341 555.206V555.184Z" fill="url(#paint56_linear_95_104)" stroke="#110151" stroke-width="1.5" stroke-miterlimit="10"/>
<path d="M928.919 552.826C926.539 551.497 923.794 552.934 922.786 556.063C921.757 559.193 922.872 562.837 925.231 564.166C927.611 565.517 930.377 564.059 931.385 560.929C932.393 557.8 931.299 554.155 928.919 552.805V552.826Z" fill="url(#paint57_linear_95_104)" stroke="#110151" stroke-width="1.5" stroke-miterlimit="10"/>
<path d="M823.692 535.441C825.965 536.749 828.603 535.313 829.589 532.226C830.576 529.139 829.504 525.581 827.231 524.295C824.936 522.987 822.298 524.423 821.333 527.51C820.347 530.575 821.419 534.134 823.692 535.441Z" fill="url(#paint58_linear_95_104)" stroke="#110151" stroke-width="1.5" stroke-miterlimit="10"/>
<path d="M839.025 544.23C841.319 545.538 843.979 544.102 844.965 541.015C845.951 537.928 844.879 534.348 842.585 533.041C840.29 531.733 837.631 533.169 836.645 536.277C835.658 539.343 836.73 542.923 839.003 544.23H839.025Z" fill="url(#paint59_linear_95_104)" stroke="#110151" stroke-width="1.5" stroke-miterlimit="10"/>
<path d="M854.443 553.062C856.759 554.391 859.44 552.955 860.426 549.868C861.413 546.76 860.34 543.18 858.024 541.872C855.708 540.565 853.049 542.001 852.041 545.088C851.055 548.175 852.127 551.755 854.443 553.062Z" fill="url(#paint60_linear_95_104)" stroke="#110151" stroke-width="1.5" stroke-miterlimit="10"/>
<path d="M869.99 561.958C872.306 563.287 875.008 561.851 875.995 558.743C876.981 555.635 875.909 552.033 873.593 550.704C871.256 549.375 868.575 550.811 867.567 553.92C866.581 557.006 867.653 560.608 869.969 561.937L869.99 561.958Z" fill="url(#paint61_linear_95_104)" stroke="#110151" stroke-width="1.5" stroke-miterlimit="10"/>
<path d="M885.602 570.919C887.939 572.248 890.641 570.811 891.649 567.703C892.657 564.595 891.563 560.972 889.226 559.643C886.888 558.314 884.165 559.75 883.179 562.859C882.171 565.967 883.264 569.568 885.602 570.897V570.919Z" fill="url(#paint62_linear_95_104)" stroke="#110151" stroke-width="1.5" stroke-miterlimit="10"/>
<path d="M901.342 579.922C903.701 581.272 906.424 579.836 907.432 576.728C908.44 573.598 907.346 569.976 904.987 568.625C902.629 567.296 899.905 568.732 898.897 571.841C897.889 574.949 898.983 578.572 901.32 579.901L901.342 579.922Z" fill="url(#paint63_linear_95_104)" stroke="#110151" stroke-width="1.5" stroke-miterlimit="10"/>
<path d="M920.835 577.65C918.476 576.299 915.731 577.735 914.723 580.865C913.715 583.973 914.809 587.618 917.168 588.968C919.548 590.319 922.293 588.904 923.301 585.774C924.309 582.644 923.215 579 920.835 577.65Z" fill="url(#paint64_linear_95_104)" stroke="#110151" stroke-width="1.5" stroke-miterlimit="10"/>
<path d="M815.951 559.793C818.224 561.101 820.862 559.686 821.827 556.621C822.813 553.534 821.741 549.997 819.468 548.689C817.195 547.381 814.557 548.796 813.57 551.883C812.605 554.949 813.656 558.485 815.929 559.815L815.951 559.793Z" fill="url(#paint65_linear_95_104)" stroke="#110151" stroke-width="1.5" stroke-miterlimit="10"/>
<path d="M834.779 557.499C832.506 556.192 829.847 557.607 828.86 560.693C827.874 563.759 828.946 567.317 831.219 568.646C833.492 569.975 836.151 568.539 837.138 565.474C838.124 562.387 837.052 558.828 834.779 557.499Z" fill="url(#paint66_linear_95_104)" stroke="#110151" stroke-width="1.5" stroke-miterlimit="10"/>
<path d="M850.197 566.374C847.903 565.045 845.244 566.481 844.257 569.568C843.271 572.634 844.343 576.213 846.638 577.542C848.954 578.872 851.613 577.457 852.599 574.37C853.585 571.283 852.513 567.703 850.197 566.374Z" fill="url(#paint67_linear_95_104)" stroke="#110151" stroke-width="1.5" stroke-miterlimit="10"/>
<path d="M865.701 575.313C863.364 573.984 860.705 575.399 859.697 578.507C858.711 581.594 859.783 585.174 862.099 586.524C864.415 587.853 867.095 586.439 868.082 583.352C869.068 580.243 867.996 576.664 865.68 575.313H865.701Z" fill="url(#paint68_linear_95_104)" stroke="#110151" stroke-width="1.5" stroke-miterlimit="10"/>
<path d="M881.291 584.295C878.954 582.944 876.252 584.381 875.266 587.468C874.279 590.554 875.351 594.156 877.667 595.506C880.005 596.857 882.707 595.442 883.693 592.334C884.701 589.225 883.607 585.603 881.291 584.274V584.295Z" fill="url(#paint69_linear_95_104)" stroke="#110151" stroke-width="1.5" stroke-miterlimit="10"/>
<path d="M896.989 593.319C894.651 591.969 891.928 593.384 890.92 596.513C889.934 599.622 891.006 603.223 893.343 604.574C895.702 605.924 898.404 604.509 899.412 601.401C900.42 598.293 899.326 594.67 896.989 593.298V593.319Z" fill="url(#paint70_linear_95_104)" stroke="#110151" stroke-width="1.5" stroke-miterlimit="10"/>
<path d="M912.793 602.43C910.434 601.08 907.711 602.494 906.681 605.624C905.674 608.732 906.767 612.355 909.126 613.727C911.485 615.099 914.23 613.684 915.238 610.576C916.246 607.446 915.152 603.823 912.793 602.452V602.43Z" fill="url(#paint71_linear_95_104)" stroke="#110151" stroke-width="1.5" stroke-miterlimit="10"/>
<path d="M811.769 572.998C809.496 571.669 806.88 573.084 805.893 576.149C804.928 579.193 805.979 582.751 808.231 584.08C810.483 585.409 813.12 583.995 814.085 580.951C815.072 577.885 813.999 574.327 811.748 573.019L811.769 572.998Z" fill="url(#paint72_linear_95_104)" stroke="#110151" stroke-width="1.5" stroke-miterlimit="10"/>
<path d="M827.016 581.873C824.743 580.544 822.105 581.958 821.119 585.024C820.154 588.089 821.205 591.648 823.478 592.977C825.751 594.306 828.388 592.912 829.375 589.847C830.361 586.782 829.289 583.202 827.016 581.873Z" fill="url(#paint73_linear_95_104)" stroke="#110151" stroke-width="1.5" stroke-miterlimit="10"/>
<path d="M842.37 590.79C840.076 589.461 837.417 590.876 836.43 593.941C835.444 597.007 836.516 600.587 838.81 601.916C841.105 603.266 843.764 601.851 844.75 598.786C845.737 595.699 844.665 592.119 842.37 590.79Z" fill="url(#paint74_linear_95_104)" stroke="#110151" stroke-width="1.5" stroke-miterlimit="10"/>
<path d="M857.831 599.793C855.515 598.443 852.835 599.858 851.848 602.944C850.862 606.01 851.934 609.611 854.25 610.962C856.566 612.312 859.225 610.897 860.233 607.832C861.22 604.745 860.147 601.144 857.853 599.815L857.831 599.793Z" fill="url(#paint75_linear_95_104)" stroke="#110151" stroke-width="1.5" stroke-miterlimit="10"/>
<path d="M873.379 608.839C871.041 607.489 868.361 608.904 867.374 611.991C866.388 615.077 867.46 618.679 869.776 620.029C872.092 621.38 874.794 619.986 875.78 616.9C876.788 613.791 875.695 610.19 873.379 608.839Z" fill="url(#paint76_linear_95_104)" stroke="#110151" stroke-width="1.5" stroke-miterlimit="10"/>
<path d="M889.033 617.95C886.695 616.599 883.994 617.993 882.986 621.101C881.978 624.188 883.071 627.811 885.387 629.161C887.725 630.533 890.448 629.118 891.456 626.031C892.464 622.923 891.37 619.3 889.033 617.95Z" fill="url(#paint77_linear_95_104)" stroke="#110151" stroke-width="1.5" stroke-miterlimit="10"/>
<path d="M904.773 627.103C902.414 625.731 899.691 627.146 898.683 630.254C897.675 633.341 898.769 636.985 901.106 638.357C903.465 639.729 906.188 638.336 907.196 635.228C908.204 632.119 907.11 628.475 904.752 627.103H904.773Z" fill="url(#paint78_linear_95_104)" stroke="#110151" stroke-width="1.5" stroke-miterlimit="10"/>
<path d="M804.071 597.221C801.798 595.892 799.181 597.285 798.216 600.351C797.251 603.395 798.302 606.932 800.554 608.282C802.806 609.611 805.422 608.218 806.387 605.174C807.352 602.108 806.301 598.571 804.049 597.242L804.071 597.221Z" fill="url(#paint79_linear_95_104)" stroke="#110151" stroke-width="1.5" stroke-miterlimit="10"/>
<path d="M819.275 606.16C817.002 604.831 814.364 606.224 813.399 609.29C812.434 612.333 813.485 615.892 815.736 617.242C818.009 618.571 820.647 617.2 821.612 614.134C822.599 611.069 821.526 607.51 819.275 606.16Z" fill="url(#paint80_linear_95_104)" stroke="#110151" stroke-width="1.5" stroke-miterlimit="10"/>
<path d="M834.586 615.163C832.291 613.813 829.654 615.206 828.667 618.293C827.702 621.358 828.753 624.917 831.026 626.267C833.321 627.618 835.958 626.224 836.945 623.18C837.931 620.115 836.859 616.535 834.564 615.185L834.586 615.163Z" fill="url(#paint81_linear_95_104)" stroke="#110151" stroke-width="1.5" stroke-miterlimit="10"/>
<path d="M850.004 624.209C847.688 622.859 845.029 624.252 844.043 627.318C843.056 630.383 844.129 633.963 846.423 635.335C848.718 636.685 851.377 635.292 852.385 632.227C853.371 629.14 852.299 625.56 850.004 624.188V624.209Z" fill="url(#paint82_linear_95_104)" stroke="#110151" stroke-width="1.5" stroke-miterlimit="10"/>
<path d="M865.487 633.32C863.171 631.948 860.49 633.341 859.483 636.428C858.496 639.493 859.568 643.095 861.884 644.467C864.2 645.838 866.881 644.467 867.867 641.358C868.854 638.271 867.782 634.67 865.466 633.298L865.487 633.32Z" fill="url(#paint83_linear_95_104)" stroke="#110151" stroke-width="1.5" stroke-miterlimit="10"/>
<path d="M881.098 642.494C878.761 641.122 876.081 642.516 875.073 645.624C874.086 648.711 875.158 652.312 877.474 653.684C879.812 655.056 882.514 653.684 883.522 650.597C884.53 647.489 883.436 643.888 881.098 642.516V642.494Z" fill="url(#paint84_linear_95_104)" stroke="#110151" stroke-width="1.5" stroke-miterlimit="10"/>
<path d="M896.796 651.712C894.458 650.34 891.735 651.712 890.727 654.82C889.719 657.907 890.813 661.53 893.15 662.923C895.509 664.317 898.211 662.923 899.219 659.836C900.227 656.728 899.133 653.105 896.774 651.712H896.796Z" fill="url(#paint85_linear_95_104)" stroke="#110151" stroke-width="1.5" stroke-miterlimit="10"/>
<path d="M693.268 621.808L355.671 608.411L344.563 603.245L429.096 288.217L784.106 276.363L790.132 286.545L693.268 621.808Z" fill="url(#paint86_linear_95_104)" stroke="#110151" stroke-width="1.5" stroke-linejoin="round"/>
<path d="M789.617 674.756L433.836 657.414L376.193 629.697L722.561 644.617L789.617 674.756Z" fill="url(#paint87_linear_95_104)" stroke="#110151" stroke-width="1.5" stroke-linejoin="round"/>
<path d="M722.561 644.617L376.194 629.697L344.563 603.245L685.827 616.021L722.561 644.617Z" fill="url(#paint88_linear_95_104)" stroke="#110151" stroke-width="1.5" stroke-linejoin="round"/>
<path d="M442.499 329.01L379.131 563.909L670.945 572.141L742.976 321.722L442.499 329.01Z" fill="url(#paint89_linear_95_104)" stroke="#110151" stroke-width="1.5" stroke-linejoin="round"/>
<path d="M450.155 344.68L393.049 555.785L667.235 563.009L731.632 338.828L450.155 344.68Z" stroke="#110151" stroke-width="1.5" stroke-linejoin="round"/>
<path d="M442.499 329.01L450.155 344.68" stroke="#110151" stroke-width="1.5" stroke-linejoin="round"/>
<path d="M393.049 555.785L379.131 563.909" stroke="#110151" stroke-width="1.5" stroke-linejoin="round"/>
<path d="M670.945 572.14L667.235 563.009" stroke="#110151" stroke-width="1.5" stroke-linejoin="round"/>
<path d="M742.976 321.722L731.632 338.828" stroke="#110151" stroke-width="1.5" stroke-linejoin="round"/>
<path d="M826.459 288.903L722.561 644.617L789.617 674.756L887.425 345.087L826.459 288.903Z" fill="url(#paint90_linear_95_104)"/>
<path d="M784.106 276.363L685.827 616.021L722.561 644.617L826.459 288.903L784.106 276.363Z" fill="url(#paint91_linear_95_104)"/>
<path d="M826.459 288.903L887.425 345.087L789.617 674.756L722.561 644.617L685.827 616.021L784.106 276.363L826.459 288.903Z" stroke="#110151" stroke-width="1.5" stroke-linejoin="round"/>
<path d="M442.285 557.092L543.459 559.751L435.508 398.893L406.945 504.423L442.285 557.092Z" fill="url(#paint92_linear_95_104)" style="mix-blend-mode:overlay"/>
<path d="M625.569 341.036L527.568 343.072L669.615 554.734L699.401 451.047L625.569 341.036Z" fill="url(#paint93_linear_95_104)" style="mix-blend-mode:overlay"/>
<path d="M691.231 687.575L413.421 674.306L397.681 670.147L404.543 630.983L693.247 643.416L696.785 648.325L691.231 687.575Z" fill="url(#paint94_linear_95_104)" stroke="#110151" stroke-width="1.5" stroke-linejoin="round"/>
<path d="M693.247 643.416L685.463 685.11L749.152 713.363L757.43 673.191L693.247 643.416Z" fill="url(#paint95_linear_95_104)"/>
<path d="M757.429 673.191L693.74 643.652L693.14 645.667L729.981 674.542L754.835 685.839L757.429 673.191Z" fill="url(#paint96_linear_95_104)" style="mix-blend-mode:multiply"/>
<path d="M749.152 713.363L685.463 685.11L693.247 643.416L757.43 673.191L765.793 673.577" stroke="#110151" stroke-width="1.5" stroke-linejoin="round"/>
<path d="M685.463 685.11L397.681 670.147L546.697 737.286L854.679 757.243L685.463 685.11Z" fill="url(#paint97_linear_95_104)" stroke="#110151" stroke-width="1.5" stroke-linejoin="round"/>
<path d="M826.459 288.903L722.561 644.617" stroke="#110151" stroke-width="1.5" stroke-linejoin="round"/>
<path d="M304.145 561.668L306.733 557.049L311.354 559.637L313.946 554.997L318.566 557.585L321.155 552.967L325.775 555.555L328.385 550.94L333.005 553.528L335.597 548.888L340.218 551.476L342.806 546.857L347.427 549.445L350.015 544.826L354.657 547.418L357.249 542.779L361.87 545.367L364.458 540.748L369.078 543.336L371.671 538.696L376.291 541.284L378.879 536.665L383.521 539.257L386.109 534.638L390.73 537.226L344.14 620.493L339.498 617.901L342.09 613.262L337.47 610.674L340.058 606.055L335.437 603.467L338.004 598.844L328.763 593.669L323.587 602.906L318.966 600.318L313.786 609.576L309.144 606.985L303.963 616.243L299.343 613.655L296.755 618.274L287.513 613.098L290.102 608.479L285.46 605.887L290.64 596.629L295.261 599.217L300.441 589.958L305.083 592.55L310.259 583.313L314.88 585.901L320.06 576.642L296.915 563.695L299.503 559.076L304.145 561.668Z" fill="#110151"/>
<path d="M316.534 550.379L319.122 545.76L323.743 548.348L326.335 543.708L330.956 546.296L333.544 541.678L338.185 544.269L340.774 539.651L345.394 542.239L347.987 537.599L352.607 540.187L355.195 535.568L359.837 538.16L362.425 533.541L367.05 536.108L369.638 531.489L374.259 534.077L376.847 529.459L381.468 532.047L345.238 596.797L340.617 594.209L343.184 589.586L338.564 586.998L341.152 582.379L336.531 579.791L339.124 575.152L334.482 572.56L329.323 581.822L324.681 579.23L319.5 588.489L314.88 585.901L309.703 595.138L305.083 592.55L299.902 601.809L290.64 596.629L295.82 587.371L300.441 589.958L305.617 580.721L310.259 583.313L315.44 574.055L320.06 576.642L327.829 562.765L309.325 552.41L311.913 547.791L316.534 550.379Z" fill="url(#paint98_linear_95_104)"/>
<path d="M347.826 592.178L381.468 532.047L376.847 529.459L379.439 524.819L384.06 527.407L386.648 522.788L391.29 525.38L344.678 608.643L340.058 606.055L342.646 601.436L338.004 598.845L340.617 594.209L345.238 596.797L347.826 592.178Z" fill="#110151"/>
<path d="M340.617 594.209L335.976 591.617L338.564 586.998L343.185 589.586L340.617 594.209Z" fill="#110151"/>
<path d="M334.482 572.56L339.124 575.152L336.532 579.792L341.152 582.379L338.564 586.998L329.323 581.822L334.482 572.56Z" fill="#110151"/>
<path d="M324.681 579.23L329.323 581.822L324.142 591.081L319.501 588.489L324.681 579.23Z" fill="#110151"/>
<path d="M314.88 585.901L319.501 588.489L314.345 597.73L309.704 595.138L314.88 585.901Z" fill="#110151"/>
<path d="M305.083 592.55L309.704 595.138L304.523 604.397L299.903 601.809L305.083 592.55Z" fill="#110151"/>
<path d="M304.683 549.818L307.272 545.199L311.913 547.791L309.325 552.41L327.829 562.765L320.06 576.643L315.44 574.055L320.62 564.796L297.471 551.87L300.063 547.23L304.683 549.818Z" fill="#110151"/>
<path d="M310.259 583.313L305.618 580.721L310.798 571.463L315.44 574.055L310.259 583.313Z" fill="#110151"/>
<path d="M300.441 589.959L295.821 587.371L300.997 578.133L305.618 580.721L300.441 589.959Z" fill="#110151"/>
<path d="M290.64 596.629L286.019 594.041L291.2 584.783L295.82 587.371L290.64 596.629Z" fill="#110151"/>
<path d="M299.903 601.809L297.314 606.428L288.052 601.248L290.64 596.629L299.903 601.809Z" fill="#110151"/>
<path d="M369.638 531.489L372.226 526.871L376.847 529.459L374.259 534.077L369.638 531.489Z" fill="#110151"/>
<path d="M362.425 533.541L365.018 528.902L369.638 531.49L367.05 536.108L362.425 533.541Z" fill="#110151"/>
<path d="M355.195 535.568L357.784 530.95L362.425 533.541L359.837 538.16L355.195 535.568Z" fill="#110151"/>
<path d="M347.987 537.599L350.575 532.98L355.195 535.568L352.607 540.187L347.987 537.599Z" fill="#110151"/>
<path d="M340.774 539.651L343.366 535.011L347.987 537.599L345.394 542.239L340.774 539.651Z" fill="#110151"/>
<path d="M333.544 541.678L336.136 537.038L340.774 539.651L338.186 544.269L333.544 541.678Z" fill="#110151"/>
<path d="M326.335 543.709L328.923 539.09L333.544 541.678L330.956 546.296L326.335 543.709Z" fill="#110151"/>
<path d="M319.122 545.76L321.714 541.121L326.335 543.708L323.743 548.348L319.122 545.76Z" fill="#110151"/>
<path d="M311.913 547.791L314.502 543.172L319.122 545.76L316.534 550.379L311.913 547.791Z" fill="#110151"/>
<path d="M809.589 368.749H758.387V374.441H809.589V368.749Z" fill="#FFF4F6"/>
<path d="M792.508 311.875V306.183H798.202V300.491H803.896V294.82H809.589V272.075H758.387V294.82H764.06V300.491H769.754V306.183H775.448V311.875H781.141V323.258H775.448V328.929H769.754V334.62H764.06V340.312H758.387V363.057H809.589V340.312H803.896V334.62H798.202V328.929H792.508V323.258H786.814V311.875H792.508Z" fill="#FFF4F6"/>
<path d="M809.589 260.692H758.387V266.383H809.589V260.692Z" fill="#FFF4F6"/>
<path d="M775.448 283.437H769.754V289.129H775.448V283.437Z" fill="#110151"/>
<path d="M786.835 283.437H781.142V289.129H786.835V283.437Z" fill="#110151"/>
<path d="M798.202 283.437H792.508V289.129H798.202V283.437Z" fill="#110151"/>
<path d="M781.142 289.129H775.448V294.82H781.142V289.129Z" fill="#110151"/>
<path d="M786.835 294.82H781.142V300.512H786.835V294.82Z" fill="#110151"/>
<path d="M786.835 306.183H781.142V311.874H786.835V306.183Z" fill="#110151"/>
<path d="M792.508 289.129H786.814V294.82H792.508V289.129Z" fill="#110151"/>
<path d="M747 255V272.054H752.694V300.491H758.387V306.183H764.081V311.875H769.775V323.258H764.081V328.949H758.387V334.641H752.694V363.078H747V380.132H820.956V363.078H815.262V334.641H809.569V328.949H803.875V323.258H798.181V311.875H803.875V306.183H809.569V300.491H815.262V272.054H820.956V255H747ZM809.589 374.441H758.387V368.749H809.589V374.441ZM809.589 294.82H803.896V300.512H798.202V306.204H792.508V311.895H786.814V323.278H792.508V328.97H798.202V334.662H803.896V340.353H809.589V363.099H758.387V340.353H764.081V334.662H769.775V328.97H775.469V323.278H781.162V311.895H775.469V306.204H769.775V300.512H764.081V294.82H758.387V272.075H809.589V294.82ZM809.589 266.383H758.387V260.692H809.589V266.383Z" fill="#110151"/>
<path d="M786.835 328.928H781.142V334.62H786.835V328.928Z" fill="#110151"/>
<path d="M804.67 445.021H840.203C842.562 445.021 844.77 446.929 845.135 449.287L846.379 457.669H886.201C888.56 457.669 890.768 459.577 891.111 461.935L900.182 522.749C900.547 525.107 898.917 527.037 896.537 527.037H816.914C814.555 527.037 812.368 525.129 812.004 522.749L810.116 510.102L802.933 461.913L801.046 449.266C800.702 446.908 802.332 445 804.691 445L804.67 445.021Z" fill="url(#paint99_linear_95_104)" stroke="#110151" stroke-width="1.5" stroke-miterlimit="10"/>
<path d="M813.419 522.771C812.69 525.129 814.019 527.058 816.378 527.058H896.001C898.36 527.058 900.869 525.15 901.576 522.771L916.33 474.539C917.059 472.181 915.729 470.273 913.371 470.273H833.748C831.389 470.273 828.88 472.181 828.173 474.539L813.419 522.771Z" fill="url(#paint100_linear_95_104)" stroke="#110151" stroke-width="1.5" stroke-miterlimit="10"/>
<path d="M951.243 569.975L920.342 600.887V667.318H1001.23V569.975H951.243Z" fill="url(#paint101_linear_95_104)"/>
<path d="M1001.23 667.318H920.342V673.513H1001.23V667.318Z" fill="#110151"/>
<path d="M945.045 576.192H938.848V582.387H945.045V576.192Z" fill="#110151"/>
<path d="M938.826 582.387H932.629V588.603H938.826V582.387Z" fill="#110151"/>
<path d="M957.462 607.082V606.953V569.975H1001.23V563.78H957.462H951.243V569.975H945.045V576.192H951.243V600.887H926.56V594.799H932.629V588.603H926.432V594.67H920.342V600.887H914.144V607.082V667.318H920.342V607.082H957.462Z" fill="#110151"/>
<path d="M1007.43 569.975H1001.23V667.318H1007.43V569.975Z" fill="#110151"/>
<path d="M890.598 177.327L882.964 212.847L960.785 149.867L890.598 177.327Z" fill="url(#paint102_linear_95_104)" stroke="#110151" stroke-width="1.5" stroke-linejoin="round"/>
<path d="M904.173 186.802L882.964 212.847L960.785 149.867L904.173 186.802Z" fill="url(#paint103_linear_95_104)" stroke="#110151" stroke-width="1.5" stroke-linejoin="round"/>
<path d="M859.611 160.049L960.785 149.867L890.598 177.327L859.611 160.049Z" fill="url(#paint104_linear_95_104)" stroke="#110151" stroke-width="1.5" stroke-linejoin="round"/>
<path d="M928.984 210.167L960.785 149.867L904.173 186.802L928.984 210.167Z" fill="url(#paint105_linear_95_104)" stroke="#110151" stroke-width="1.5" stroke-linejoin="round"/>
<path d="M648.986 786.396L656.62 821.895L578.777 758.915L648.986 786.396Z" fill="url(#paint106_linear_95_104)" stroke="#110151" stroke-width="1.5" stroke-linejoin="round"/>
<path d="M635.39 795.871L656.62 821.895L578.777 758.915L635.39 795.871Z" fill="url(#paint107_linear_95_104)" stroke="#110151" stroke-width="1.5" stroke-linejoin="round"/>
<path d="M679.951 769.097L578.777 758.915L648.986 786.396L679.951 769.097Z" fill="url(#paint108_linear_95_104)" stroke="#110151" stroke-width="1.5" stroke-linejoin="round"/>
<path d="M610.579 819.215L578.777 758.915L635.39 795.871L610.579 819.215Z" fill="url(#paint109_linear_95_104)" stroke="#110151" stroke-width="1.5" stroke-linejoin="round"/>
<path d="M782.691 152.911H777.244V142H771.797V152.911H760.882V158.356H771.797V169.267H777.244V158.356H788.159V152.911H782.712H782.691ZM777.244 158.356H771.797V152.911H777.244V158.356Z" fill="#411563"/>
<path d="M420.262 180.735H414.815V169.824H409.368V180.735H398.453V186.18H409.368V197.091H414.815V186.18H425.73V180.735H420.283H420.262ZM414.815 186.202H409.368V180.757H414.815V186.202Z" fill="#411563"/>
<path d="M296.419 363.943H290.972V353.032H285.525V363.943H274.61V369.388H285.525V380.299H290.972V369.388H301.887V363.943H296.44H296.419ZM290.972 369.388H285.525V363.943H290.972V369.388Z" fill="#411563"/>
<path d="M221.419 619.086H215.972V608.175H210.525V619.086H199.61V624.531H210.525V635.442H215.972V624.531H226.887V619.086H221.44H221.419ZM215.972 624.552H210.525V619.107H215.972V624.552Z" fill="#411563"/>
<path d="M950.128 856.021H944.681V845.11H939.234V856.021H928.319V861.466H939.234V872.377H944.681V861.466H955.596V856.021H950.149H950.128ZM944.681 861.466H939.234V856.021H944.681V861.466Z" fill="#411563"/>
<defs>
<linearGradient id="paint0_linear_95_104" x1="423.734" y1="463.763" x2="927.737" y2="642.918" gradientUnits="userSpaceOnUse">
<stop offset="0.0769231" stop-color="#984CD3"/>
<stop offset="0.451923" stop-color="#522BC9"/>
<stop offset="1" stop-color="#411563"/>
</linearGradient>
<linearGradient id="paint1_linear_95_104" x1="453.118" y1="221.661" x2="1024.08" y2="382.021" gradientUnits="userSpaceOnUse">
<stop offset="0.0769231" stop-color="#984CD3"/>
<stop offset="0.451923" stop-color="#522BC9"/>
<stop offset="1" stop-color="#411563"/>
</linearGradient>
<linearGradient id="paint2_linear_95_104" x1="897.352" y1="650.661" x2="326.392" y2="811.021" gradientUnits="userSpaceOnUse">
<stop offset="0.0769231" stop-color="#984CD3"/>
<stop offset="0.451923" stop-color="#522BC9"/>
<stop offset="1" stop-color="#411563"/>
</linearGradient>
<linearGradient id="paint3_linear_95_104" x1="374.558" y1="460.519" x2="848.288" y2="772.335" gradientUnits="userSpaceOnUse">
<stop stop-color="#9A42E6"/>
<stop offset="1" stop-color="#562580"/>
</linearGradient>
<linearGradient id="paint4_linear_95_104" x1="341.435" y1="438.717" x2="881.41" y2="794.136" gradientUnits="userSpaceOnUse">
<stop stop-color="#9A42E6"/>
<stop offset="1" stop-color="#562580"/>
</linearGradient>
<linearGradient id="paint5_linear_95_104" x1="298.096" y1="410.191" x2="924.749" y2="822.662" gradientUnits="userSpaceOnUse">
<stop stop-color="#9A42E6"/>
<stop offset="1" stop-color="#562580"/>
</linearGradient>
<linearGradient id="paint6_linear_95_104" x1="248.511" y1="377.553" x2="974.334" y2="855.3" gradientUnits="userSpaceOnUse">
<stop stop-color="#9A42E6"/>
<stop offset="1" stop-color="#562580"/>
</linearGradient>
<linearGradient id="paint7_linear_95_104" x1="430.828" y1="477.279" x2="807.99" y2="725.533" gradientUnits="userSpaceOnUse">
<stop stop-color="#9A42E6"/>
<stop offset="1" stop-color="#562580"/>
</linearGradient>
<linearGradient id="paint8_linear_95_104" x1="506.963" y1="527.393" x2="731.855" y2="675.42" gradientUnits="userSpaceOnUse">
<stop stop-color="#9A42E6"/>
<stop offset="1" stop-color="#562580"/>
</linearGradient>
<linearGradient id="paint9_linear_95_104" x1="558.891" y1="561.572" x2="682.27" y2="642.782" gradientUnits="userSpaceOnUse">
<stop stop-color="#9A42E6"/>
<stop offset="1" stop-color="#562580"/>
</linearGradient>
<linearGradient id="paint10_linear_95_104" x1="582.317" y1="576.992" x2="656.501" y2="625.82" gradientUnits="userSpaceOnUse">
<stop stop-color="#9A42E6"/>
<stop offset="1" stop-color="#562580"/>
</linearGradient>
<linearGradient id="paint11_linear_95_104" x1="599.106" y1="588.043" x2="639.712" y2="614.77" gradientUnits="userSpaceOnUse">
<stop stop-color="#9A42E6"/>
<stop offset="1" stop-color="#562580"/>
</linearGradient>
<linearGradient id="paint12_linear_95_104" x1="811.709" y1="890.997" x2="783.584" y2="845.919" gradientUnits="userSpaceOnUse">
<stop stop-color="#FF9CBF"/>
<stop offset="1" stop-color="#171BFF"/>
</linearGradient>
<linearGradient id="paint13_linear_95_104" x1="742.653" y1="866.086" x2="764.755" y2="817.756" gradientUnits="userSpaceOnUse">
<stop stop-color="#FF9CBF"/>
<stop offset="1" stop-color="#171BFF"/>
</linearGradient>
<linearGradient id="paint14_linear_95_104" x1="827.208" y1="828.792" x2="776.291" y2="813.514" gradientUnits="userSpaceOnUse">
<stop stop-color="#FF9CBF"/>
<stop offset="1" stop-color="#171BFF"/>
</linearGradient>
<linearGradient id="paint15_linear_95_104" x1="724.247" y1="818.679" x2="752.608" y2="773.75" gradientUnits="userSpaceOnUse">
<stop stop-color="#FF9CBF"/>
<stop offset="1" stop-color="#171BFF"/>
</linearGradient>
<linearGradient id="paint16_linear_95_104" x1="813.346" y1="792.046" x2="764.649" y2="770.727" gradientUnits="userSpaceOnUse">
<stop stop-color="#FF9CBF"/>
<stop offset="1" stop-color="#171BFF"/>
</linearGradient>
<linearGradient id="paint17_linear_95_104" x1="713.057" y1="773.191" x2="745.974" y2="731.482" gradientUnits="userSpaceOnUse">
<stop stop-color="#FF9CBF"/>
<stop offset="1" stop-color="#171BFF"/>
</linearGradient>
<linearGradient id="paint18_linear_95_104" x1="803.995" y1="755.467" x2="757.785" y2="729.165" gradientUnits="userSpaceOnUse">
<stop stop-color="#FF9CBF"/>
<stop offset="1" stop-color="#171BFF"/>
</linearGradient>
<linearGradient id="paint19_linear_95_104" x1="537.54" y1="267.102" x2="808.295" y2="267.102" gradientUnits="userSpaceOnUse">
<stop stop-color="white"/>
<stop offset="1" stop-color="#E5D6FF"/>
</linearGradient>
<linearGradient id="paint20_linear_95_104" x1="585.018" y1="208.324" x2="796.907" y2="231.406" gradientUnits="userSpaceOnUse">
<stop stop-color="#6ECFFF"/>
<stop offset="1" stop-color="#1159F5"/>
</linearGradient>
<linearGradient id="paint21_linear_95_104" x1="777.244" y1="219.578" x2="789.617" y2="219.578" gradientUnits="userSpaceOnUse">
<stop stop-color="white"/>
<stop offset="1" stop-color="#E5D6FF"/>
</linearGradient>
<linearGradient id="paint22_linear_95_104" x1="755.328" y1="219.578" x2="767.701" y2="219.578" gradientUnits="userSpaceOnUse">
<stop stop-color="white"/>
<stop offset="1" stop-color="#E5D6FF"/>
</linearGradient>
<linearGradient id="paint23_linear_95_104" x1="733.391" y1="219.578" x2="745.785" y2="219.578" gradientUnits="userSpaceOnUse">
<stop stop-color="white"/>
<stop offset="1" stop-color="#E5D6FF"/>
</linearGradient>
<linearGradient id="paint24_linear_95_104" x1="374.751" y1="231.969" x2="482.043" y2="245.354" gradientUnits="userSpaceOnUse">
<stop offset="0.0769231" stop-color="#984CD3"/>
<stop offset="0.451923" stop-color="#522BC9"/>
<stop offset="1" stop-color="#411563"/>
</linearGradient>
<linearGradient id="paint25_linear_95_104" x1="362.196" y1="267.515" x2="450.667" y2="290.383" gradientUnits="userSpaceOnUse">
<stop stop-color="#D49CFF"/>
<stop offset="0.302885" stop-color="#AF50F8"/>
<stop offset="1" stop-color="#672F92"/>
</linearGradient>
<linearGradient id="paint26_linear_95_104" x1="1063.75" y1="345.325" x2="1027.82" y2="384.49" gradientUnits="userSpaceOnUse">
<stop stop-color="#FF9CBF"/>
<stop offset="1" stop-color="#171BFF"/>
</linearGradient>
<linearGradient id="paint27_linear_95_104" x1="1058.06" y1="418.335" x2="1005.58" y2="409.926" gradientUnits="userSpaceOnUse">
<stop stop-color="#FF9CBF"/>
<stop offset="1" stop-color="#171BFF"/>
</linearGradient>
<linearGradient id="paint28_linear_95_104" x1="999.134" y1="347.265" x2="998.04" y2="400.38" gradientUnits="userSpaceOnUse">
<stop stop-color="#FF9CBF"/>
<stop offset="1" stop-color="#171BFF"/>
</linearGradient>
<linearGradient id="paint29_linear_95_104" x1="1017.07" y1="448.87" x2="966.173" y2="433.513" gradientUnits="userSpaceOnUse">
<stop stop-color="#FF9CBF"/>
<stop offset="1" stop-color="#171BFF"/>
</linearGradient>
<linearGradient id="paint30_linear_95_104" x1="968.199" y1="370.282" x2="960.681" y2="422.89" gradientUnits="userSpaceOnUse">
<stop stop-color="#FF9CBF"/>
<stop offset="1" stop-color="#171BFF"/>
</linearGradient>
<linearGradient id="paint31_linear_95_104" x1="976.158" y1="472.238" x2="927.161" y2="451.618" gradientUnits="userSpaceOnUse">
<stop stop-color="#FF9CBF"/>
<stop offset="1" stop-color="#171BFF"/>
</linearGradient>
<linearGradient id="paint32_linear_95_104" x1="935.157" y1="389.313" x2="922.195" y2="440.849" gradientUnits="userSpaceOnUse">
<stop stop-color="#FF9CBF"/>
<stop offset="1" stop-color="#171BFF"/>
</linearGradient>
<linearGradient id="paint33_linear_95_104" x1="900.819" y1="241.048" x2="906.532" y2="293.882" gradientUnits="userSpaceOnUse">
<stop stop-color="#FFCEE0"/>
<stop offset="1" stop-color="#FF498A"/>
</linearGradient>
<linearGradient id="paint34_linear_95_104" x1="952.904" y1="293.927" x2="911.978" y2="327.82" gradientUnits="userSpaceOnUse">
<stop stop-color="#FFCEE0"/>
<stop offset="1" stop-color="#FF498A"/>
</linearGradient>
<linearGradient id="paint35_linear_95_104" x1="860.493" y1="291.13" x2="899.69" y2="327.03" gradientUnits="userSpaceOnUse">
<stop stop-color="#FFCEE0"/>
<stop offset="1" stop-color="#FF498A"/>
</linearGradient>
<linearGradient id="paint36_linear_95_104" x1="948.263" y1="344.619" x2="903.157" y2="372.744" gradientUnits="userSpaceOnUse">
<stop stop-color="#FFCEE0"/>
<stop offset="1" stop-color="#FF498A"/>
</linearGradient>
<linearGradient id="paint37_linear_95_104" x1="856.502" y1="330.444" x2="891.08" y2="370.788" gradientUnits="userSpaceOnUse">
<stop stop-color="#FFCEE0"/>
<stop offset="1" stop-color="#FF498A"/>
</linearGradient>
<linearGradient id="paint38_linear_95_104" x1="938.219" y1="391.361" x2="890.43" y2="414.605" gradientUnits="userSpaceOnUse">
<stop stop-color="#FFCEE0"/>
<stop offset="1" stop-color="#FF498A"/>
</linearGradient>
<linearGradient id="paint39_linear_95_104" x1="848.874" y1="367.126" x2="879.022" y2="410.878" gradientUnits="userSpaceOnUse">
<stop stop-color="#FFCEE0"/>
<stop offset="1" stop-color="#FF498A"/>
</linearGradient>
<linearGradient id="paint40_linear_95_104" x1="936.918" y1="787.011" x2="986.298" y2="817.088" gradientUnits="userSpaceOnUse">
<stop stop-color="#2767BC"/>
<stop offset="0.610577" stop-color="#142699"/>
<stop offset="1" stop-color="#070D33"/>
</linearGradient>
<linearGradient id="paint41_linear_95_104" x1="891.648" y1="777.629" x2="923.908" y2="782.273" gradientUnits="userSpaceOnUse">
<stop stop-color="#2767BC"/>
<stop offset="0.610577" stop-color="#142699"/>
<stop offset="1" stop-color="#070D33"/>
</linearGradient>
<linearGradient id="paint42_linear_95_104" x1="912.225" y1="751.792" x2="962.545" y2="779.404" gradientUnits="userSpaceOnUse">
<stop stop-color="#2767BC"/>
<stop offset="0.610577" stop-color="#142699"/>
<stop offset="1" stop-color="#070D33"/>
</linearGradient>
<linearGradient id="paint43_linear_95_104" x1="855.221" y1="753.342" x2="885.928" y2="757.424" gradientUnits="userSpaceOnUse">
<stop stop-color="#2767BC"/>
<stop offset="0.610577" stop-color="#142699"/>
<stop offset="1" stop-color="#070D33"/>
</linearGradient>
<linearGradient id="paint44_linear_95_104" x1="880.895" y1="732.116" x2="930.37" y2="762.707" gradientUnits="userSpaceOnUse">
<stop stop-color="#2767BC"/>
<stop offset="0.610577" stop-color="#142699"/>
<stop offset="1" stop-color="#070D33"/>
</linearGradient>
<linearGradient id="paint45_linear_95_104" x1="823.795" y1="727.168" x2="853.969" y2="731.072" gradientUnits="userSpaceOnUse">
<stop stop-color="#2767BC"/>
<stop offset="0.610577" stop-color="#142699"/>
<stop offset="1" stop-color="#070D33"/>
</linearGradient>
<linearGradient id="paint46_linear_95_104" x1="853.2" y1="709.625" x2="901.845" y2="741.935" gradientUnits="userSpaceOnUse">
<stop stop-color="#2767BC"/>
<stop offset="0.610577" stop-color="#142699"/>
<stop offset="1" stop-color="#070D33"/>
</linearGradient>
<linearGradient id="paint47_linear_95_104" x1="980.171" y1="682.237" x2="1146.17" y2="682.237" gradientUnits="userSpaceOnUse">
<stop stop-color="#D1C1FB"/>
<stop offset="1" stop-color="#FFECF6"/>
</linearGradient>
<linearGradient id="paint48_linear_95_104" x1="326.443" y1="252.976" x2="160.421" y2="252.976" gradientUnits="userSpaceOnUse">
<stop stop-color="#D1C1FB"/>
<stop offset="1" stop-color="#FFECF6"/>
</linearGradient>
<linearGradient id="paint49_linear_95_104" x1="685.613" y1="641.658" x2="984.712" y2="485.34" gradientUnits="userSpaceOnUse">
<stop stop-color="#E3D4FF"/>
<stop offset="0.99" stop-color="#AC85F2"/>
<stop offset="1" stop-color="#AC85F2"/>
</linearGradient>
<linearGradient id="paint50_linear_95_104" x1="800.211" y1="386.717" x2="841.461" y2="721.727" gradientUnits="userSpaceOnUse">
<stop stop-color="#E3D4FF" stop-opacity="0"/>
<stop offset="0.99" stop-color="#AC85F2"/>
</linearGradient>
<linearGradient id="paint51_linear_95_104" x1="839.968" y1="542.88" x2="863.304" y2="672.658" gradientUnits="userSpaceOnUse">
<stop stop-color="#6821FF"/>
<stop offset="1" stop-color="#2201A1"/>
</linearGradient>
<linearGradient id="paint52_linear_95_104" x1="853.392" y1="540.672" x2="876.814" y2="670.879" gradientUnits="userSpaceOnUse">
<stop stop-color="#6821FF"/>
<stop offset="1" stop-color="#2201A1"/>
</linearGradient>
<linearGradient id="paint53_linear_95_104" x1="866.902" y1="538.443" x2="890.41" y2="669.1" gradientUnits="userSpaceOnUse">
<stop stop-color="#6821FF"/>
<stop offset="1" stop-color="#2201A1"/>
</linearGradient>
<linearGradient id="paint54_linear_95_104" x1="880.498" y1="536.192" x2="904.091" y2="667.278" gradientUnits="userSpaceOnUse">
<stop stop-color="#6821FF"/>
<stop offset="1" stop-color="#2201A1"/>
</linearGradient>
<linearGradient id="paint55_linear_95_104" x1="894.179" y1="533.941" x2="917.858" y2="665.477" gradientUnits="userSpaceOnUse">
<stop stop-color="#6821FF"/>
<stop offset="1" stop-color="#2201A1"/>
</linearGradient>
<linearGradient id="paint56_linear_95_104" x1="907.968" y1="531.647" x2="931.711" y2="663.634" gradientUnits="userSpaceOnUse">
<stop stop-color="#6821FF"/>
<stop offset="1" stop-color="#2201A1"/>
</linearGradient>
<linearGradient id="paint57_linear_95_104" x1="921.821" y1="529.354" x2="945.65" y2="661.769" gradientUnits="userSpaceOnUse">
<stop stop-color="#6821FF"/>
<stop offset="1" stop-color="#2201A1"/>
</linearGradient>
<linearGradient id="paint58_linear_95_104" x1="828.153" y1="544.895" x2="851.467" y2="674.48" gradientUnits="userSpaceOnUse">
<stop stop-color="#6821FF"/>
<stop offset="1" stop-color="#2201A1"/>
</linearGradient>
<linearGradient id="paint59_linear_95_104" x1="841.534" y1="542.687" x2="864.934" y2="672.723" gradientUnits="userSpaceOnUse">
<stop stop-color="#6821FF"/>
<stop offset="1" stop-color="#2201A1"/>
</linearGradient>
<linearGradient id="paint60_linear_95_104" x1="854.979" y1="540.458" x2="878.465" y2="670.943" gradientUnits="userSpaceOnUse">
<stop stop-color="#6821FF"/>
<stop offset="1" stop-color="#2201A1"/>
</linearGradient>
<linearGradient id="paint61_linear_95_104" x1="868.511" y1="538.207" x2="892.082" y2="669.164" gradientUnits="userSpaceOnUse">
<stop stop-color="#6821FF"/>
<stop offset="1" stop-color="#2201A1"/>
</linearGradient>
<linearGradient id="paint62_linear_95_104" x1="882.149" y1="535.956" x2="905.785" y2="667.321" gradientUnits="userSpaceOnUse">
<stop stop-color="#6821FF"/>
<stop offset="1" stop-color="#2201A1"/>
</linearGradient>
<linearGradient id="paint63_linear_95_104" x1="895.852" y1="533.663" x2="919.574" y2="665.477" gradientUnits="userSpaceOnUse">
<stop stop-color="#6821FF"/>
<stop offset="1" stop-color="#2201A1"/>
</linearGradient>
<linearGradient id="paint64_linear_95_104" x1="909.641" y1="531.369" x2="933.448" y2="663.634" gradientUnits="userSpaceOnUse">
<stop stop-color="#6821FF"/>
<stop offset="1" stop-color="#2201A1"/>
</linearGradient>
<linearGradient id="paint65_linear_95_104" x1="816.38" y1="546.867" x2="839.694" y2="676.345" gradientUnits="userSpaceOnUse">
<stop stop-color="#6821FF"/>
<stop offset="1" stop-color="#2201A1"/>
</linearGradient>
<linearGradient id="paint66_linear_95_104" x1="829.697" y1="544.681" x2="853.075" y2="674.566" gradientUnits="userSpaceOnUse">
<stop stop-color="#6821FF"/>
<stop offset="1" stop-color="#2201A1"/>
</linearGradient>
<linearGradient id="paint67_linear_95_104" x1="843.099" y1="542.451" x2="866.542" y2="672.787" gradientUnits="userSpaceOnUse">
<stop stop-color="#6821FF"/>
<stop offset="1" stop-color="#2201A1"/>
</linearGradient>
<linearGradient id="paint68_linear_95_104" x1="856.566" y1="540.2" x2="880.095" y2="670.986" gradientUnits="userSpaceOnUse">
<stop stop-color="#6821FF"/>
<stop offset="1" stop-color="#2201A1"/>
</linearGradient>
<linearGradient id="paint69_linear_95_104" x1="870.14" y1="537.928" x2="893.755" y2="669.164" gradientUnits="userSpaceOnUse">
<stop stop-color="#6821FF"/>
<stop offset="1" stop-color="#2201A1"/>
</linearGradient>
<linearGradient id="paint70_linear_95_104" x1="883.779" y1="535.656" x2="907.479" y2="667.321" gradientUnits="userSpaceOnUse">
<stop stop-color="#6821FF"/>
<stop offset="1" stop-color="#2201A1"/>
</linearGradient>
<linearGradient id="paint71_linear_95_104" x1="897.525" y1="533.341" x2="921.289" y2="665.477" gradientUnits="userSpaceOnUse">
<stop stop-color="#6821FF"/>
<stop offset="1" stop-color="#2201A1"/>
</linearGradient>
<linearGradient id="paint72_linear_95_104" x1="804.65" y1="548.839" x2="827.921" y2="678.167" gradientUnits="userSpaceOnUse">
<stop stop-color="#6821FF"/>
<stop offset="1" stop-color="#2201A1"/>
</linearGradient>
<linearGradient id="paint73_linear_95_104" x1="817.902" y1="546.631" x2="841.26" y2="676.388" gradientUnits="userSpaceOnUse">
<stop stop-color="#6821FF"/>
<stop offset="1" stop-color="#2201A1"/>
</linearGradient>
<linearGradient id="paint74_linear_95_104" x1="831.241" y1="544.402" x2="854.662" y2="674.588" gradientUnits="userSpaceOnUse">
<stop stop-color="#6821FF"/>
<stop offset="1" stop-color="#2201A1"/>
</linearGradient>
<linearGradient id="paint75_linear_95_104" x1="844.665" y1="542.151" x2="868.172" y2="672.787" gradientUnits="userSpaceOnUse">
<stop stop-color="#6821FF"/>
<stop offset="1" stop-color="#2201A1"/>
</linearGradient>
<linearGradient id="paint76_linear_95_104" x1="858.153" y1="539.9" x2="881.746" y2="670.965" gradientUnits="userSpaceOnUse">
<stop stop-color="#6821FF"/>
<stop offset="1" stop-color="#2201A1"/>
</linearGradient>
<linearGradient id="paint77_linear_95_104" x1="871.749" y1="537.607" x2="895.406" y2="669.121" gradientUnits="userSpaceOnUse">
<stop stop-color="#6821FF"/>
<stop offset="1" stop-color="#2201A1"/>
</linearGradient>
<linearGradient id="paint78_linear_95_104" x1="885.409" y1="535.313" x2="909.152" y2="667.278" gradientUnits="userSpaceOnUse">
<stop stop-color="#6821FF"/>
<stop offset="1" stop-color="#2201A1"/>
</linearGradient>
<linearGradient id="paint79_linear_95_104" x1="792.963" y1="550.768" x2="816.192" y2="679.947" gradientUnits="userSpaceOnUse">
<stop stop-color="#6821FF"/>
<stop offset="1" stop-color="#2201A1"/>
</linearGradient>
<linearGradient id="paint80_linear_95_104" x1="806.151" y1="548.561" x2="829.465" y2="678.189" gradientUnits="userSpaceOnUse">
<stop stop-color="#6821FF"/>
<stop offset="1" stop-color="#2201A1"/>
</linearGradient>
<linearGradient id="paint81_linear_95_104" x1="819.425" y1="546.331" x2="842.825" y2="676.388" gradientUnits="userSpaceOnUse">
<stop stop-color="#6821FF"/>
<stop offset="1" stop-color="#2201A1"/>
</linearGradient>
<linearGradient id="paint82_linear_95_104" x1="832.785" y1="544.08" x2="856.249" y2="674.588" gradientUnits="userSpaceOnUse">
<stop stop-color="#6821FF"/>
<stop offset="1" stop-color="#2201A1"/>
</linearGradient>
<linearGradient id="paint83_linear_95_104" x1="846.209" y1="541.808" x2="869.78" y2="672.765" gradientUnits="userSpaceOnUse">
<stop stop-color="#6821FF"/>
<stop offset="1" stop-color="#2201A1"/>
</linearGradient>
<linearGradient id="paint84_linear_95_104" x1="859.74" y1="539.514" x2="883.376" y2="670.922" gradientUnits="userSpaceOnUse">
<stop stop-color="#6821FF"/>
<stop offset="1" stop-color="#2201A1"/>
</linearGradient>
<linearGradient id="paint85_linear_95_104" x1="873.357" y1="537.221" x2="897.079" y2="669.057" gradientUnits="userSpaceOnUse">
<stop stop-color="#6821FF"/>
<stop offset="1" stop-color="#2201A1"/>
</linearGradient>
<linearGradient id="paint86_linear_95_104" x1="466.988" y1="309.503" x2="695.561" y2="615.695" gradientUnits="userSpaceOnUse">
<stop stop-color="white"/>
<stop offset="0.99" stop-color="#C6A6FF"/>
</linearGradient>
<linearGradient id="paint87_linear_95_104" x1="432.699" y1="733.749" x2="733.039" y2="570.611" gradientUnits="userSpaceOnUse">
<stop stop-color="#E3D4FF"/>
<stop offset="0.99" stop-color="#9D71EB"/>
</linearGradient>
<linearGradient id="paint88_linear_95_104" x1="396.287" y1="698.443" x2="670.813" y2="549.333" gradientUnits="userSpaceOnUse">
<stop stop-color="#E3D4FF"/>
<stop offset="0.99" stop-color="#9D71EB"/>
</linearGradient>
<linearGradient id="paint89_linear_95_104" x1="379.131" y1="446.931" x2="742.976" y2="446.931" gradientUnits="userSpaceOnUse">
<stop stop-color="#E3D4FF"/>
<stop offset="0.99" stop-color="#9D71EB"/>
</linearGradient>
<linearGradient id="paint90_linear_95_104" x1="785.264" y1="470.726" x2="859.407" y2="561.385" gradientUnits="userSpaceOnUse">
<stop stop-color="#E3D4FF"/>
<stop offset="0.99" stop-color="#AC85F2"/>
<stop offset="1" stop-color="#AC85F2"/>
</linearGradient>
<linearGradient id="paint91_linear_95_104" x1="669.808" y1="393.812" x2="825.649" y2="502.463" gradientUnits="userSpaceOnUse">
<stop stop-color="#E3D4FF"/>
<stop offset="0.99" stop-color="#AC85F2"/>
<stop offset="1" stop-color="#AC85F2"/>
</linearGradient>
<linearGradient id="paint92_linear_95_104" x1="508.783" y1="580.286" x2="428.773" y2="463.067" gradientUnits="userSpaceOnUse">
<stop stop-color="white"/>
<stop offset="1" stop-color="white" stop-opacity="0.3"/>
</linearGradient>
<linearGradient id="paint93_linear_95_104" x1="698.758" y1="546.91" x2="586.603" y2="349.66" gradientUnits="userSpaceOnUse">
<stop stop-color="white"/>
<stop offset="1" stop-color="white" stop-opacity="0.3"/>
</linearGradient>
<linearGradient id="paint94_linear_95_104" x1="541.55" y1="720.458" x2="549.95" y2="629.654" gradientUnits="userSpaceOnUse">
<stop stop-color="white"/>
<stop offset="0.99" stop-color="#C6A6FF"/>
</linearGradient>
<linearGradient id="paint95_linear_95_104" x1="709.63" y1="684.445" x2="992.221" y2="536.749" gradientUnits="userSpaceOnUse">
<stop stop-color="#E3D4FF"/>
<stop offset="0.99" stop-color="#AC85F2"/>
<stop offset="1" stop-color="#AC85F2"/>
</linearGradient>
<linearGradient id="paint96_linear_95_104" x1="692.175" y1="390.747" x2="734.518" y2="734.46" gradientUnits="userSpaceOnUse">
<stop stop-color="#E3D4FF" stop-opacity="0"/>
<stop offset="0.99" stop-color="#AC85F2"/>
</linearGradient>
<linearGradient id="paint97_linear_95_104" x1="397.681" y1="713.706" x2="854.679" y2="713.706" gradientUnits="userSpaceOnUse">
<stop stop-color="#E3D4FF"/>
<stop offset="0.99" stop-color="#9D71EB"/>
</linearGradient>
<linearGradient id="paint98_linear_95_104" x1="363.694" y1="540.867" x2="293.559" y2="603.674" gradientUnits="userSpaceOnUse">
<stop stop-color="#FFEDB2"/>
<stop offset="1" stop-color="#FFA1D5"/>
</linearGradient>
<linearGradient id="paint99_linear_95_104" x1="860.51" y1="408.108" x2="850.546" y2="486.48" gradientUnits="userSpaceOnUse">
<stop stop-color="#FFE6DA"/>
<stop offset="1" stop-color="#F4B188"/>
</linearGradient>
<linearGradient id="paint100_linear_95_104" x1="873.763" y1="479.577" x2="837.952" y2="556.608" gradientUnits="userSpaceOnUse">
<stop stop-color="#FFE6DA"/>
<stop offset="1" stop-color="#FFC5A1"/>
</linearGradient>
<linearGradient id="paint101_linear_95_104" x1="939.384" y1="582.237" x2="985.121" y2="660.13" gradientUnits="userSpaceOnUse">
<stop stop-color="white"/>
<stop offset="1" stop-color="#E5D6FF"/>
</linearGradient>
<linearGradient id="paint102_linear_95_104" x1="882.964" y1="181.357" x2="960.785" y2="181.357" gradientUnits="userSpaceOnUse">
<stop stop-color="#E3D4FF"/>
<stop offset="0.99" stop-color="#9D71EB"/>
</linearGradient>
<linearGradient id="paint103_linear_95_104" x1="882.964" y1="181.357" x2="960.785" y2="181.357" gradientUnits="userSpaceOnUse">
<stop stop-color="#E3D4FF"/>
<stop offset="0.99" stop-color="#9D71EB"/>
</linearGradient>
<linearGradient id="paint104_linear_95_104" x1="859.611" y1="163.608" x2="960.785" y2="163.608" gradientUnits="userSpaceOnUse">
<stop stop-color="#E3D4FF"/>
<stop offset="0.99" stop-color="#9D71EB"/>
</linearGradient>
<linearGradient id="paint105_linear_95_104" x1="904.173" y1="180.006" x2="960.785" y2="180.006" gradientUnits="userSpaceOnUse">
<stop stop-color="#E3D4FF"/>
<stop offset="0.99" stop-color="#9D71EB"/>
</linearGradient>
<linearGradient id="paint106_linear_95_104" x1="656.599" y1="790.405" x2="578.777" y2="790.405" gradientUnits="userSpaceOnUse">
<stop stop-color="#E3D4FF"/>
<stop offset="0.99" stop-color="#9D71EB"/>
</linearGradient>
<linearGradient id="paint107_linear_95_104" x1="656.599" y1="790.405" x2="578.777" y2="790.405" gradientUnits="userSpaceOnUse">
<stop stop-color="#E3D4FF"/>
<stop offset="0.99" stop-color="#9D71EB"/>
</linearGradient>
<linearGradient id="paint108_linear_95_104" x1="679.951" y1="772.656" x2="578.777" y2="772.656" gradientUnits="userSpaceOnUse">
<stop stop-color="#E3D4FF"/>
<stop offset="0.99" stop-color="#9D71EB"/>
</linearGradient>
<linearGradient id="paint109_linear_95_104" x1="635.39" y1="789.076" x2="578.777" y2="789.076" gradientUnits="userSpaceOnUse">
<stop stop-color="#E3D4FF"/>
<stop offset="0.99" stop-color="#9D71EB"/>
</linearGradient>
</defs>
</svg>
