<svg width="112" height="126" viewBox="0 0 112 126" fill="none" xmlns="http://www.w3.org/2000/svg">
<path d="M89.0584 54.668L86.4702 50.0493L81.8495 52.6372L79.2574 47.9974L74.6368 50.5854L72.0486 45.9667L67.428 48.5546L64.8186 43.9398L60.198 46.5278L57.6059 41.888L52.9852 44.4759L50.397 39.8573L45.7764 42.4452L43.1882 37.8265L38.5464 40.4183L35.9543 35.7786L31.3336 38.3665L28.7455 33.7478L24.1248 36.3357L21.5327 31.696L16.9121 34.2839L14.3238 29.6652L9.6821 32.2571L7.09391 27.6384L2.47324 30.2263L49.0635 113.493L53.7052 110.901L51.1131 106.262L55.7337 103.674L53.1455 99.0549L57.7662 96.467L55.199 91.8444L64.4403 86.6685L69.6167 95.9059L74.2374 93.318L79.4177 102.576L84.0594 99.9846L89.2398 109.243L93.8605 106.655L96.4486 111.274L105.69 106.098L103.102 101.479L107.743 98.8873L102.563 89.6289L97.9424 92.2168L92.7621 82.9584L88.1204 85.5502L82.9439 76.3129L78.3233 78.9008L73.143 69.6423L96.2884 56.6948L93.7001 52.0761L89.0584 54.668Z" fill="#110151"/>
<path d="M76.6693 43.3789L74.0811 38.7602L69.4605 41.3481L66.8683 36.7083L62.2477 39.2963L59.6595 34.6776L55.0178 37.2694L52.4295 32.6507L47.8089 35.2387L45.2167 30.5989L40.5961 33.1868L38.0079 28.5681L33.3662 31.16L30.778 26.5413L26.1534 29.1082L23.5652 24.4895L18.9446 27.0774L16.3563 22.4587L11.7357 25.0466L47.9653 89.7966L52.5859 87.2087L50.0188 82.586L54.6394 79.9981L52.0512 75.3794L56.6718 72.7915L54.0797 68.1517L58.7214 65.5598L63.8807 74.8222L68.5224 72.2304L73.7028 81.4888L78.3234 78.9009L83.4998 88.1383L88.1205 85.5503L93.3008 94.8088L102.563 89.629L97.3828 80.3705L92.7622 82.9585L87.5858 73.7211L82.944 76.313L77.7637 67.0545L73.1431 69.6424L65.3745 55.7653L83.8782 45.4096L81.2899 40.7909L76.6693 43.3789Z" fill="white"/>
<path d="M45.3771 85.178L11.7357 25.0467L16.3564 22.4588L13.7643 17.819L9.14356 20.4069L6.55538 15.7883L1.91367 18.3801L48.525 101.643L53.1456 99.0551L50.5574 94.4364L55.1991 91.8446L52.5859 87.2087L47.9653 89.7966L45.3771 85.178Z" fill="#110151"/>
<path d="M52.586 87.2088L57.2277 84.6169L54.6395 79.9983L50.0189 82.5862L52.586 87.2088Z" fill="#110151"/>
<path d="M58.7214 65.5599L54.0797 68.1518L56.6718 72.7916L52.0512 75.3795L54.6394 79.9981L63.8807 74.8223L58.7214 65.5599Z" fill="#110151"/>
<path d="M68.5224 72.2304L63.8807 74.8222L69.061 84.0807L73.7028 81.4889L68.5224 72.2304Z" fill="#110151"/>
<path d="M78.3234 78.9011L73.7027 81.489L78.8581 90.7303L83.4998 88.1385L78.3234 78.9011Z" fill="#110151"/>
<path d="M88.1205 85.5505L83.4999 88.1384L88.6802 97.3969L93.3008 94.809L88.1205 85.5505Z" fill="#110151"/>
<path d="M88.5198 42.8178L85.9316 38.1992L81.2899 40.791L83.8781 45.4097L65.3745 55.7654L73.143 69.6425L77.7636 67.0546L72.5833 57.7961L95.7326 44.8697L93.1405 40.2299L88.5198 42.8178Z" fill="#110151"/>
<path d="M82.9441 76.3131L87.5858 73.7212L82.4055 64.4628L77.7638 67.0547L82.9441 76.3131Z" fill="#110151"/>
<path d="M92.7622 82.9586L97.3829 80.3706L92.2064 71.1333L87.5858 73.7212L92.7622 82.9586Z" fill="#110151"/>
<path d="M102.563 89.6291L107.184 87.0411L102.004 77.7827L97.3829 80.3706L102.563 89.6291Z" fill="#110151"/>
<path d="M93.3007 94.8088L95.889 99.4275L105.151 94.2477L102.563 89.629L93.3007 94.8088Z" fill="#110151"/>
<path d="M23.5652 24.4895L20.9769 19.8708L16.3563 22.4587L18.9445 27.0774L23.5652 24.4895Z" fill="#110151"/>
<path d="M30.7781 26.5413L28.1859 21.9016L23.5653 24.4895L26.1535 29.1082L30.7781 26.5413Z" fill="#110151"/>
<path d="M38.0078 28.5683L35.4197 23.9496L30.7779 26.5415L33.3661 31.1602L38.0078 28.5683Z" fill="#110151"/>
<path d="M45.2168 30.5989L42.6286 25.9802L38.0079 28.5681L40.5961 33.1868L45.2168 30.5989Z" fill="#110151"/>
<path d="M52.4295 32.6507L49.8373 28.0109L45.2167 30.5989L47.8088 35.2386L52.4295 32.6507Z" fill="#110151"/>
<path d="M59.6595 34.6775L57.0674 30.0378L52.4296 32.6507L55.0178 37.2694L59.6595 34.6775Z" fill="#110151"/>
<path d="M66.8683 36.7085L64.2802 32.0898L59.6595 34.6777L62.2477 39.2964L66.8683 36.7085Z" fill="#110151"/>
<path d="M74.0811 38.7603L71.489 34.1206L66.8683 36.7085L69.4604 41.3483L74.0811 38.7603Z" fill="#110151"/>
<path d="M81.29 40.791L78.7018 36.1723L74.0812 38.7603L76.6694 43.379L81.29 40.791Z" fill="#110151"/>
</svg>
