<svg width="604" height="604" viewBox="0 0 604 604" fill="none" xmlns="http://www.w3.org/2000/svg">
<path d="M381.957 375.916C370.672 375.916 359.869 374.333 349.547 371.168C339.225 367.865 331.037 363.667 324.981 358.575L334.271 337.725C340.051 342.267 347.207 346.051 355.74 349.079C364.272 352.107 373.012 353.621 381.957 353.621C389.526 353.621 395.651 352.795 400.33 351.143C405.009 349.492 408.449 347.29 410.651 344.537C412.853 341.647 413.954 338.413 413.954 334.835C413.954 330.431 412.372 326.922 409.206 324.307C406.041 321.554 401.912 319.421 396.82 317.907C391.866 316.256 386.292 314.742 380.099 313.366C374.044 311.99 367.919 310.407 361.726 308.618C355.671 306.691 350.097 304.283 345.005 301.393C340.051 298.365 335.991 294.374 332.826 289.42C329.66 284.465 328.078 278.134 328.078 270.428C328.078 262.583 330.142 255.427 334.271 248.958C338.537 242.353 344.936 237.123 353.469 233.269C362.139 229.278 373.08 227.283 386.292 227.283C394.962 227.283 403.564 228.384 412.096 230.586C420.629 232.788 428.061 235.953 434.391 240.082L425.928 260.932C419.459 257.078 412.785 254.257 405.903 252.468C399.022 250.541 392.416 249.578 386.086 249.578C378.654 249.578 372.599 250.472 367.919 252.261C363.378 254.05 360.006 256.39 357.804 259.28C355.74 262.17 354.708 265.473 354.708 269.189C354.708 273.593 356.222 277.171 359.249 279.924C362.415 282.538 366.474 284.603 371.429 286.117C376.521 287.63 382.163 289.144 388.356 290.658C394.55 292.034 400.674 293.617 406.729 295.406C412.922 297.195 418.496 299.535 423.45 302.425C428.542 305.315 432.602 309.237 435.63 314.192C438.795 319.146 440.378 325.408 440.378 332.977C440.378 340.684 438.245 347.84 433.978 354.446C429.85 360.915 423.45 366.144 414.78 370.135C406.11 373.989 395.169 375.916 381.957 375.916Z" fill="#5B5B5B"/>
<path d="M140 373.851V229.347H162.088L225.257 334.835H213.697L275.834 229.347L298.779 229.842L277.898 269.189L225.051 357.337H213.078L159.405 269.189H165.598V373.851H140Z" fill="#5B5B5B"/>
<path d="M275.021 276.714L301.749 261.001V373.851H275.021V276.714Z" fill="#5B5B5B"/>
<path d="M452.591 229V184.213L455.509 187.402H441.869V181.499H459.309V229H452.591ZM488.225 229.543C484.38 229.543 481.055 228.977 478.25 227.846C475.445 226.715 473.273 225.109 471.735 223.028C470.197 220.902 469.428 218.414 469.428 215.564C469.428 212.759 470.152 210.384 471.6 208.439C473.092 206.448 475.241 204.955 478.046 203.96C480.851 202.92 484.244 202.399 488.225 202.399C492.206 202.399 495.599 202.92 498.404 203.96C501.254 204.955 503.425 206.448 504.918 208.439C506.411 210.429 507.158 212.804 507.158 215.564C507.158 218.414 506.389 220.902 504.85 223.028C503.312 225.109 501.118 226.715 498.268 227.846C495.418 228.977 492.07 229.543 488.225 229.543ZM488.225 224.046C492.025 224.046 494.988 223.277 497.115 221.739C499.286 220.156 500.372 218.029 500.372 215.36C500.372 212.736 499.286 210.678 497.115 209.185C494.988 207.647 492.025 206.878 488.225 206.878C484.47 206.878 481.53 207.647 479.403 209.185C477.277 210.678 476.214 212.736 476.214 215.36C476.214 218.029 477.277 220.156 479.403 221.739C481.53 223.277 484.47 224.046 488.225 224.046ZM488.225 206.064C484.606 206.064 481.53 205.589 478.996 204.639C476.463 203.643 474.517 202.241 473.16 200.431C471.803 198.577 471.125 196.382 471.125 193.849C471.125 191.18 471.826 188.895 473.228 186.995C474.676 185.05 476.689 183.557 479.268 182.517C481.846 181.476 484.832 180.956 488.225 180.956C491.663 180.956 494.672 181.476 497.25 182.517C499.829 183.557 501.842 185.05 503.29 186.995C504.737 188.895 505.461 191.18 505.461 193.849C505.461 196.382 504.783 198.577 503.425 200.431C502.068 202.241 500.1 203.643 497.522 204.639C494.943 205.589 491.844 206.064 488.225 206.064ZM488.225 201.721C491.527 201.721 494.106 201.042 495.961 199.685C497.861 198.328 498.811 196.473 498.811 194.12C498.811 191.723 497.838 189.845 495.893 188.488C493.948 187.131 491.392 186.452 488.225 186.452C485.058 186.452 482.525 187.131 480.625 188.488C478.77 189.845 477.843 191.723 477.843 194.12C477.843 196.473 478.747 198.328 480.557 199.685C482.412 201.042 484.968 201.721 488.225 201.721Z" fill="#5B5B5B"/>
</svg>
