<svg width="117" height="67" viewBox="0 0 117 67" fill="none" xmlns="http://www.w3.org/2000/svg">
<path d="M75.9539 66.8374C72.4114 66.8374 69.02 66.3405 65.7799 65.3469C62.5398 64.31 59.9692 62.9924 58.0684 61.3939L60.9845 54.8488C62.799 56.2745 65.0455 57.4626 67.724 58.413C70.4025 59.3634 73.1458 59.8387 75.9539 59.8387C78.33 59.8387 80.2525 59.5794 81.7214 59.061C83.1902 58.5426 84.2703 57.8514 84.9615 56.9873C85.6528 56.0801 85.9984 55.0648 85.9984 53.9416C85.9984 52.5591 85.5015 51.4575 84.5079 50.6367C83.5143 49.7726 82.2182 49.103 80.6197 48.6278C79.0645 48.1093 77.3148 47.6341 75.3707 47.2021C73.4698 46.7701 71.5473 46.2733 69.6033 45.7116C67.7024 45.1068 65.9527 44.3508 64.3542 43.4435C62.799 42.4931 61.5245 41.2402 60.5309 39.685C59.5372 38.1297 59.0404 36.1424 59.0404 33.7231C59.0404 31.2606 59.6884 29.0141 60.9845 26.9836C62.3237 24.9099 64.3326 23.2683 67.0111 22.0586C69.7329 20.8058 73.1674 20.1793 77.3148 20.1793C80.0365 20.1793 82.7366 20.525 85.4151 21.2162C88.0937 21.9074 90.4266 22.9011 92.4138 24.1971L89.7569 30.7422C87.7264 29.5325 85.6311 28.6469 83.4711 28.0853C81.311 27.4805 79.2373 27.178 77.25 27.178C74.9171 27.178 73.0162 27.4588 71.5473 28.0205C70.1217 28.5821 69.0632 29.3165 68.372 30.2238C67.724 31.131 67.4 32.1679 67.4 33.3343C67.4 34.7168 67.8752 35.84 68.8256 36.7041C69.8193 37.5249 71.0937 38.1729 72.649 38.6481C74.2475 39.1234 76.0187 39.5986 77.9628 40.0738C79.9069 40.5058 81.8294 41.0026 83.7303 41.5643C85.6744 42.1259 87.424 42.8603 88.9793 43.7676C90.5778 44.6748 91.8522 45.906 92.8027 47.4613C93.7963 49.0166 94.2931 50.9823 94.2931 53.3584C94.2931 55.7777 93.6235 58.0242 92.2842 60.0979C90.9882 62.1283 88.9793 63.77 86.2576 65.0229C83.5359 66.2325 80.1013 66.8374 75.9539 66.8374Z" fill="#404040" fill-opacity="0.86"/>
<path d="M0 66.1893V20.8274H6.9339L26.7636 53.9416H23.1346L42.6402 20.8274L49.8432 20.9827L43.2883 33.3343L26.6988 61.0051H22.9402L6.09146 33.3343H8.03555V66.1893H0Z" fill="#404040" fill-opacity="0.86"/>
<path d="M42.3852 35.6967L50.7754 30.7641V66.1893H42.3852V35.6967Z" fill="#404040" fill-opacity="0.86"/>
<path d="M98.127 21V6.94071L99.043 7.9419H94.7613V6.08863H100.236V21H98.127ZM109.313 21.1704C108.106 21.1704 107.062 20.9929 106.182 20.6379C105.301 20.2828 104.62 19.7787 104.137 19.1254C103.654 18.458 103.412 17.6769 103.412 16.7822C103.412 15.9017 103.64 15.1562 104.094 14.5455C104.563 13.9206 105.237 13.452 106.118 13.1396C106.998 12.8129 108.063 12.6496 109.313 12.6496C110.563 12.6496 111.628 12.8129 112.508 13.1396C113.403 13.452 114.085 13.9206 114.553 14.5455C115.022 15.1704 115.256 15.9159 115.256 16.7822C115.256 17.6769 115.015 18.458 114.532 19.1254C114.049 19.7787 113.36 20.2828 112.466 20.6379C111.571 20.9929 110.52 21.1704 109.313 21.1704ZM109.313 19.445C110.506 19.445 111.436 19.2035 112.104 18.7207C112.785 18.2236 113.126 17.5562 113.126 16.7183C113.126 15.8946 112.785 15.2485 112.104 14.7798C111.436 14.297 110.506 14.0556 109.313 14.0556C108.134 14.0556 107.211 14.297 106.544 14.7798C105.876 15.2485 105.543 15.8946 105.543 16.7183C105.543 17.5562 105.876 18.2236 106.544 18.7207C107.211 19.2035 108.134 19.445 109.313 19.445ZM109.313 13.7999C108.177 13.7999 107.211 13.6508 106.416 13.3526C105.621 13.0402 105.01 12.5999 104.584 12.0319C104.158 11.4496 103.945 10.7609 103.945 9.96558C103.945 9.12771 104.165 8.41054 104.605 7.81409C105.06 7.20343 105.692 6.73479 106.501 6.40816C107.311 6.08153 108.248 5.91821 109.313 5.91821C110.392 5.91821 111.337 6.08153 112.146 6.40816C112.956 6.73479 113.588 7.20343 114.042 7.81409C114.497 8.41054 114.724 9.12771 114.724 9.96558C114.724 10.7609 114.511 11.4496 114.085 12.0319C113.659 12.5999 113.041 13.0402 112.231 13.3526C111.422 13.6508 110.449 13.7999 109.313 13.7999ZM109.313 12.4366C110.35 12.4366 111.159 12.2236 111.741 11.7976C112.338 11.3715 112.636 10.7893 112.636 10.0508C112.636 9.29812 112.331 8.70877 111.72 8.28273C111.109 7.85669 110.307 7.64367 109.313 7.64367C108.319 7.64367 107.524 7.85669 106.927 8.28273C106.345 8.70877 106.054 9.29812 106.054 10.0508C106.054 10.7893 106.338 11.3715 106.906 11.7976C107.488 12.2236 108.291 12.4366 109.313 12.4366Z" fill="#404040" fill-opacity="0.86"/>
</svg>
