<svg width="1583" height="185" viewBox="0 0 1583 185" fill="none" xmlns="http://www.w3.org/2000/svg">
<path d="M928.527 8.5H1376.89C1440.72 8.5 1471.69 86.5598 1425.22 130.323L1396.55 157.323C1383.47 169.641 1366.18 176.5 1348.22 176.5H895.331C828.974 176.5 799.367 93.177 850.847 51.3066L884.043 24.3066C896.614 14.0822 912.323 8.5 928.527 8.5Z" stroke="url(#paint0_linear_107_392)" stroke-width="17"/>
<path d="M249.045 145.398C242.15 145.398 235.395 144.699 228.779 143.301C222.164 141.81 216.667 139.807 212.287 137.291L216.76 120.1C219.928 121.684 223.422 123.129 227.242 124.433C231.062 125.644 234.976 126.623 238.982 127.368C242.989 128.02 246.762 128.347 250.303 128.347C256.452 128.347 261.158 127.275 264.419 125.132C267.68 122.989 269.311 119.868 269.311 115.768C269.311 113.532 268.798 111.668 267.773 110.177C266.748 108.593 265.211 107.242 263.161 106.124C261.111 104.913 258.502 103.795 255.334 102.77C252.166 101.745 248.439 100.673 244.153 99.5553C239.215 98.1577 234.789 96.5737 230.876 94.8033C226.962 93.033 223.608 90.9366 220.813 88.514C218.111 86.0914 216.014 83.2962 214.524 80.1282C213.126 76.8671 212.427 73.14 212.427 68.9471C212.427 59.8159 215.921 52.8278 222.909 47.9826C229.897 43.0443 239.774 40.5752 252.539 40.5752C258.875 40.5752 265.164 41.1808 271.407 42.3921C277.743 43.5102 283.194 45.0942 287.759 47.1441L283.147 64.3349C278.675 62.1919 273.737 60.5613 268.332 59.4432C262.928 58.232 257.571 57.6263 252.26 57.6263C245.924 57.6263 241.125 58.6047 237.864 60.5613C234.603 62.4249 232.972 65.2201 232.972 68.9471C232.972 71.1833 233.438 73.0934 234.37 74.6774C235.302 76.1682 236.699 77.4727 238.563 78.5908C240.519 79.7089 242.942 80.7804 245.83 81.8054C248.812 82.8303 252.353 83.9484 256.452 85.1597C261.763 86.6505 266.469 88.3276 270.569 90.1911C274.761 91.9615 278.256 94.0579 281.051 96.4805C283.939 98.8099 286.129 101.559 287.62 104.727C289.111 107.894 289.856 111.622 289.856 115.908C289.856 125.225 286.269 132.493 279.094 137.711C272.013 142.835 261.996 145.398 249.045 145.398ZM317.886 145.398C309.314 145.398 303.071 142.835 299.158 137.711C295.338 132.493 293.428 124.34 293.428 113.252V71.3231H312.575V109.478C312.575 116.373 313.507 121.452 315.37 124.713C317.327 127.974 320.355 129.604 324.455 129.604C327.53 129.604 330.325 128.812 332.841 127.228C335.45 125.551 337.5 123.408 338.99 120.799C340.481 118.097 341.227 115.116 341.227 111.854V71.3231H360.514V144H342.205L342.065 134.217H341.786C338.618 138.037 335.124 140.879 331.303 142.742C327.483 144.512 323.011 145.398 317.886 145.398ZM412.432 69.9255C422.029 69.9255 429.483 73.2332 434.794 79.8487C440.105 86.4641 442.76 95.7351 442.76 107.662C442.76 119.588 440.105 128.859 434.794 135.474C429.483 142.09 422.029 145.398 412.432 145.398C407.773 145.398 403.487 144.559 399.573 142.882C395.753 141.205 392.445 138.736 389.65 135.474H389.371V173.35H370.083V71.3231H388.392L388.532 79.8487H388.812C391.793 76.4943 395.287 74.0252 399.294 72.4412C403.3 70.7641 407.68 69.9255 412.432 69.9255ZM406.701 85.2994C403.44 85.2994 400.459 85.9983 397.756 87.3959C395.148 88.7935 393.098 90.7036 391.607 93.1262C390.116 95.4556 389.371 98.1577 389.371 101.232V114.091C389.371 117.165 390.116 119.914 391.607 122.337C393.098 124.666 395.148 126.53 397.756 127.927C400.459 129.325 403.44 130.024 406.701 130.024C412.292 130.024 416.578 128.114 419.559 124.293C422.541 120.38 424.032 114.836 424.032 107.662C424.032 100.487 422.541 94.9897 419.559 91.1695C416.578 87.2561 412.292 85.2994 406.701 85.2994ZM490 69.9255C499.597 69.9255 507.051 73.2332 512.362 79.8487C517.673 86.4641 520.329 95.7351 520.329 107.662C520.329 119.588 517.673 128.859 512.362 135.474C507.051 142.09 499.597 145.398 490 145.398C485.341 145.398 481.055 144.559 477.142 142.882C473.322 141.205 470.014 138.736 467.219 135.474H466.939V173.35H447.652V71.3231H465.961L466.101 79.8487H466.38C469.362 76.4943 472.856 74.0252 476.862 72.4412C480.869 70.7641 485.248 69.9255 490 69.9255ZM484.27 85.2994C481.009 85.2994 478.027 85.9983 475.325 87.3959C472.716 88.7935 470.666 90.7036 469.175 93.1262C467.685 95.4556 466.939 98.1577 466.939 101.232V114.091C466.939 117.165 467.685 119.914 469.175 122.337C470.666 124.666 472.716 126.53 475.325 127.927C478.027 129.325 481.009 130.024 484.27 130.024C489.86 130.024 494.146 128.114 497.128 124.293C500.11 120.38 501.6 114.836 501.6 107.662C501.6 100.487 500.11 94.9897 497.128 91.1695C494.146 87.2561 489.86 85.2994 484.27 85.2994ZM526.199 144V41.9728H545.766V144H526.199ZM558.912 144V72.7207H578.479V144H558.912ZM568.696 62.7976C565.062 62.7976 562.173 61.8192 560.03 59.8625C557.887 57.8127 556.816 55.0174 556.816 51.4767C556.816 47.9361 557.887 45.1874 560.03 43.2307C562.173 41.1808 565.062 40.1559 568.696 40.1559C572.329 40.1559 575.218 41.1808 577.361 43.2307C579.504 45.1874 580.575 47.9361 580.575 51.4767C580.575 55.0174 579.504 57.8127 577.361 59.8625C575.218 61.8192 572.329 62.7976 568.696 62.7976ZM625.616 145.398C613.038 145.398 603.347 142.136 596.546 135.614C589.744 129.092 586.343 119.774 586.343 107.662C586.343 95.9214 589.557 86.6971 595.987 79.9884C602.416 73.2798 611.267 69.9255 622.542 69.9255C633.443 69.9255 641.829 73.0934 647.699 79.4294C653.662 85.7653 656.644 94.7567 656.644 106.404C656.644 107.708 656.597 109.199 656.504 110.876C656.504 112.553 656.457 113.811 656.364 114.65H597.105V101.372H641.41L638.754 105.425C638.754 98.1577 637.403 92.7535 634.701 89.2128C632.092 85.6721 628.039 83.9018 622.542 83.9018C616.765 83.9018 612.432 85.7653 609.544 89.4923C606.655 93.1262 605.211 98.5769 605.211 105.845V111.435C605.211 117.771 606.888 122.523 610.242 125.691C613.69 128.859 618.861 130.443 625.756 130.443C630.042 130.443 634.328 129.93 638.614 128.906C642.994 127.787 646.86 126.297 650.215 124.433L653.01 139.108C649.469 141.065 645.323 142.602 640.571 143.72C635.819 144.839 630.834 145.398 625.616 145.398ZM685.612 145.398C680.394 145.398 675.269 144.885 670.238 143.86C665.3 142.835 660.874 141.438 656.96 139.667L659.476 124.852C663.949 126.623 668.374 128.02 672.754 129.045C677.133 129.977 681.372 130.443 685.472 130.443C689.758 130.443 692.926 129.884 694.976 128.766C697.026 127.555 698.051 125.691 698.051 123.175C698.051 121.684 697.678 120.473 696.933 119.541C696.187 118.517 694.836 117.631 692.88 116.886C691.016 116.047 688.361 115.255 684.913 114.51C678.298 112.833 672.893 110.969 668.701 108.919C664.508 106.776 661.433 104.214 659.476 101.232C657.519 98.2508 656.541 94.8033 656.541 90.89C656.541 84.0882 659.197 78.9169 664.508 75.3762C669.819 71.7424 677.506 69.9255 687.569 69.9255C692.414 69.9255 697.119 70.3914 701.685 71.3231C706.25 72.1617 710.723 73.5127 715.102 75.3762L712.586 90.0514C708.486 88.281 704.387 86.9766 700.287 86.138C696.187 85.2994 692.181 84.8801 688.267 84.8801C684.074 84.8801 681 85.3926 679.043 86.4175C677.086 87.4425 676.108 89.073 676.108 91.3093C676.108 92.6137 676.481 93.7784 677.226 94.8033C678.065 95.7351 679.416 96.6203 681.279 97.4588C683.143 98.2042 685.658 98.9031 688.826 99.5553C693.858 100.767 698.144 102.118 701.685 103.608C705.319 105.099 708.3 106.823 710.63 108.78C712.959 110.736 714.683 112.926 715.801 115.349C717.012 117.771 717.618 120.52 717.618 123.595C717.618 130.49 714.822 135.847 709.232 139.667C703.641 143.488 695.768 145.398 685.612 145.398ZM783.484 145.398C775.937 145.398 769.368 144.373 763.778 142.323C758.28 140.18 754.041 137.198 751.059 133.378C748.078 129.558 746.587 124.992 746.587 119.681C746.587 115.768 747.565 112.087 749.522 108.64C751.479 105.099 754.74 101.512 759.305 97.8781C763.964 94.2443 770.207 90.1446 778.034 85.579C783.624 82.3178 788.003 79.5691 791.171 77.3329C794.339 75.0035 796.576 72.8605 797.88 70.9038C799.184 68.854 799.837 66.8041 799.837 64.7542C799.837 61.4931 798.579 58.9774 796.063 57.207C793.547 55.4367 790.007 54.5515 785.441 54.5515C780.969 54.5515 777.428 55.4367 774.819 57.207C772.303 58.9774 771.045 61.4931 771.045 64.7542C771.045 66.0587 771.278 67.3631 771.744 68.6676C772.303 69.8789 773.188 71.3231 774.4 73.0003C775.611 74.6774 777.335 76.6807 779.571 79.0101C781.9 81.3395 784.835 84.2279 788.376 87.6754L847.496 144H825.693L768.25 90.7502C764.43 87.2095 761.355 83.995 759.026 81.1065C756.696 78.2181 755.019 75.4228 753.994 72.7207C752.969 69.9255 752.457 67.1302 752.457 64.3349C752.457 56.8809 755.345 51.0574 761.122 46.8645C766.992 42.6716 775.052 40.5752 785.301 40.5752C795.457 40.5752 803.517 42.7182 809.48 47.0043C815.444 51.2904 818.425 57.0673 818.425 64.3349C818.425 68.062 817.447 71.6492 815.49 75.0967C813.533 78.451 810.319 81.8985 805.846 85.4392C801.374 88.9799 795.364 92.8932 787.817 97.1793C782.413 100.161 778.127 102.816 774.959 105.146C771.884 107.475 769.694 109.665 768.39 111.715C767.179 113.671 766.573 115.768 766.573 118.004C766.573 121.824 768.157 124.806 771.325 126.949C774.493 128.999 778.872 130.024 784.463 130.024C789.774 130.024 794.898 129.045 799.837 127.089C804.868 125.132 809.713 122.15 814.372 118.144V88.514H831.563V129.045C825.507 132.866 819.776 135.987 814.372 138.409C809.061 140.832 803.89 142.602 798.858 143.72C793.92 144.839 788.795 145.398 783.484 145.398ZM907.805 145.398C900.91 145.398 894.155 144.699 887.539 143.301C880.924 141.81 875.426 139.807 871.047 137.291L875.52 120.1C878.688 121.684 882.182 123.129 886.002 124.433C889.822 125.644 893.735 126.623 897.742 127.368C901.748 128.02 905.522 128.347 909.063 128.347C915.212 128.347 919.918 127.275 923.179 125.132C926.44 122.989 928.071 119.868 928.071 115.768C928.071 113.532 927.558 111.668 926.533 110.177C925.508 108.593 923.971 107.242 921.921 106.124C919.871 104.913 917.262 103.795 914.094 102.77C910.926 101.745 907.199 100.673 902.913 99.5553C897.975 98.1577 893.549 96.5737 889.636 94.8033C885.722 93.033 882.368 90.9366 879.573 88.514C876.871 86.0914 874.774 83.2962 873.283 80.1282C871.886 76.8671 871.187 73.14 871.187 68.9471C871.187 59.8159 874.681 52.8278 881.669 47.9826C888.657 43.0443 898.534 40.5752 911.299 40.5752C917.635 40.5752 923.924 41.1808 930.167 42.3921C936.503 43.5102 941.954 45.0942 946.519 47.1441L941.907 64.3349C937.435 62.1919 932.496 60.5613 927.092 59.4432C921.688 58.232 916.33 57.6263 911.019 57.6263C904.683 57.6263 899.885 58.6047 896.624 60.5613C893.363 62.4249 891.732 65.2201 891.732 68.9471C891.732 71.1833 892.198 73.0934 893.13 74.6774C894.061 76.1682 895.459 77.4727 897.323 78.5908C899.279 79.7089 901.702 80.7804 904.59 81.8054C907.572 82.8303 911.113 83.9484 915.212 85.1597C920.523 86.6505 925.229 88.3276 929.328 90.1911C933.521 91.9615 937.015 94.0579 939.811 96.4805C942.699 98.8099 944.889 101.559 946.38 104.727C947.87 107.894 948.616 111.622 948.616 115.908C948.616 125.225 945.028 132.493 937.854 137.711C930.773 142.835 920.756 145.398 907.805 145.398ZM988.526 145.398C975.947 145.398 966.257 142.136 959.455 135.614C952.653 129.092 949.252 119.774 949.252 107.662C949.252 95.9214 952.467 86.6971 958.896 79.9884C965.325 73.2798 974.177 69.9255 985.451 69.9255C996.353 69.9255 1004.74 73.0934 1010.61 79.4294C1016.57 85.7653 1019.55 94.7567 1019.55 106.404C1019.55 107.708 1019.51 109.199 1019.41 110.876C1019.41 112.553 1019.37 113.811 1019.27 114.65H960.014V101.372H1004.32L1001.66 105.425C1001.66 98.1577 1000.31 92.7535 997.61 89.2128C995.001 85.6721 990.948 83.9018 985.451 83.9018C979.674 83.9018 975.341 85.7653 972.453 89.4923C969.565 93.1262 968.12 98.5769 968.12 105.845V111.435C968.12 117.771 969.798 122.523 973.152 125.691C976.599 128.859 981.771 130.443 988.666 130.443C992.952 130.443 997.238 129.93 1001.52 128.906C1005.9 127.787 1009.77 126.297 1013.12 124.433L1015.92 139.108C1012.38 141.065 1008.23 142.602 1003.48 143.72C998.728 144.839 993.744 145.398 988.526 145.398ZM1024.2 144V71.3231H1042.65L1042.79 84.8801H1043.21C1045.63 81.619 1048.47 78.9169 1051.74 76.7739C1055.09 74.5377 1058.72 72.8605 1062.64 71.7424C1066.64 70.5311 1070.74 69.9255 1074.94 69.9255V86.2778C1069.16 86.2778 1063.9 87.3493 1059.14 89.4923C1054.39 91.6354 1050.62 94.5704 1047.82 98.2974C1045.03 101.931 1043.63 105.984 1043.63 110.457V144H1024.2ZM1094.22 144L1070.18 71.3231H1090.58L1107.63 131.142H1107.91L1124.82 71.3231H1145.23L1121.19 144H1094.22ZM1149.11 144V72.7207H1168.68V144H1149.11ZM1158.89 62.7976C1155.26 62.7976 1152.37 61.8192 1150.23 59.8625C1148.09 57.8127 1147.02 55.0174 1147.02 51.4767C1147.02 47.9361 1148.09 45.1874 1150.23 43.2307C1152.37 41.1808 1155.26 40.1559 1158.89 40.1559C1162.53 40.1559 1165.42 41.1808 1167.56 43.2307C1169.7 45.1874 1170.77 47.9361 1170.77 51.4767C1170.77 55.0174 1169.7 57.8127 1167.56 59.8625C1165.42 61.8192 1162.53 62.7976 1158.89 62.7976ZM1216.93 145.398C1208.45 145.398 1201.19 143.907 1195.13 140.925C1189.07 137.944 1184.46 133.658 1181.29 128.067C1178.13 122.383 1176.54 115.581 1176.54 107.662C1176.54 99.6485 1178.13 92.8467 1181.29 87.2561C1184.46 81.6656 1189.07 77.3795 1195.13 74.3979C1201.19 71.4163 1208.45 69.9255 1216.93 69.9255C1221.22 69.9255 1225.23 70.3448 1228.95 71.1833C1232.68 72.0219 1236.31 73.373 1239.86 75.2365L1236.78 89.9116C1233.52 88.1413 1230.35 86.8834 1227.28 86.138C1224.29 85.2994 1221.31 84.8801 1218.33 84.8801C1211.25 84.8801 1205.75 86.8368 1201.84 90.7502C1198.02 94.6636 1196.11 100.301 1196.11 107.662C1196.11 114.929 1198.02 120.566 1201.84 124.573C1205.75 128.486 1211.25 130.443 1218.33 130.443C1221.31 130.443 1224.29 130.07 1227.28 129.325C1230.35 128.486 1233.52 127.182 1236.78 125.411L1239.86 140.087C1236.31 141.95 1232.68 143.301 1228.95 144.14C1225.23 144.978 1221.22 145.398 1216.93 145.398ZM1280.69 145.398C1268.11 145.398 1258.42 142.136 1251.62 135.614C1244.82 129.092 1241.42 119.774 1241.42 107.662C1241.42 95.9214 1244.63 86.6971 1251.06 79.9884C1257.49 73.2798 1266.34 69.9255 1277.62 69.9255C1288.52 69.9255 1296.9 73.0934 1302.77 79.4294C1308.74 85.7653 1311.72 94.7567 1311.72 106.404C1311.72 107.708 1311.67 109.199 1311.58 110.876C1311.58 112.553 1311.53 113.811 1311.44 114.65H1252.18V101.372H1296.48L1293.83 105.425C1293.83 98.1577 1292.48 92.7535 1289.78 89.2128C1287.17 85.6721 1283.11 83.9018 1277.62 83.9018C1271.84 83.9018 1267.51 85.7653 1264.62 89.4923C1261.73 93.1262 1260.29 98.5769 1260.29 105.845V111.435C1260.29 117.771 1261.96 122.523 1265.32 125.691C1268.76 128.859 1273.94 130.443 1280.83 130.443C1285.12 130.443 1289.4 129.93 1293.69 128.906C1298.07 127.787 1301.94 126.297 1305.29 124.433L1308.08 139.108C1304.54 141.065 1300.4 142.602 1295.65 143.72C1290.89 144.839 1285.91 145.398 1280.69 145.398ZM1340.69 145.398C1335.47 145.398 1330.34 144.885 1325.31 143.86C1320.37 142.835 1315.95 141.438 1312.04 139.667L1314.55 124.852C1319.02 126.623 1323.45 128.02 1327.83 129.045C1332.21 129.977 1336.45 130.443 1340.55 130.443C1344.83 130.443 1348 129.884 1350.05 128.766C1352.1 127.555 1353.13 125.691 1353.13 123.175C1353.13 121.684 1352.75 120.473 1352.01 119.541C1351.26 118.517 1349.91 117.631 1347.95 116.886C1346.09 116.047 1343.44 115.255 1339.99 114.51C1333.37 112.833 1327.97 110.969 1323.78 108.919C1319.58 106.776 1316.51 104.214 1314.55 101.232C1312.59 98.2508 1311.62 94.8033 1311.62 90.89C1311.62 84.0882 1314.27 78.9169 1319.58 75.3762C1324.89 71.7424 1332.58 69.9255 1342.64 69.9255C1347.49 69.9255 1352.19 70.3914 1356.76 71.3231C1361.32 72.1617 1365.8 73.5127 1370.18 75.3762L1367.66 90.0514C1363.56 88.281 1359.46 86.9766 1355.36 86.138C1351.26 85.2994 1347.26 84.8801 1343.34 84.8801C1339.15 84.8801 1336.07 85.3926 1334.12 86.4175C1332.16 87.4425 1331.18 89.073 1331.18 91.3093C1331.18 92.6137 1331.56 93.7784 1332.3 94.8033C1333.14 95.7351 1334.49 96.6203 1336.35 97.4588C1338.22 98.2042 1340.73 98.9031 1343.9 99.5553C1348.93 100.767 1353.22 102.118 1356.76 103.608C1360.39 105.099 1363.37 106.823 1365.7 108.78C1368.03 110.736 1369.76 112.926 1370.88 115.349C1372.09 117.771 1372.69 120.52 1372.69 123.595C1372.69 130.49 1369.9 135.847 1364.31 139.667C1358.72 143.488 1350.84 145.398 1340.69 145.398Z" fill="url(#paint1_linear_107_392)"/>
<defs>
<linearGradient id="paint0_linear_107_392" x1="284" y1="-111" x2="1434.89" y2="491.998" gradientUnits="userSpaceOnUse">
<stop offset="0.0769231" stop-color="#984CD3"/>
<stop offset="0.451923" stop-color="#522BC9"/>
<stop offset="1" stop-color="#411563"/>
</linearGradient>
<linearGradient id="paint1_linear_107_392" x1="32.8651" y1="17.6077" x2="811.124" y2="881.945" gradientUnits="userSpaceOnUse">
<stop offset="0.0769231" stop-color="#984CD3"/>
<stop offset="0.451923" stop-color="#522BC9"/>
<stop offset="1" stop-color="#411563"/>
</linearGradient>
</defs>
</svg>
