<svg width="604" height="604" viewBox="0 0 604 604" fill="none" xmlns="http://www.w3.org/2000/svg">
<circle cx="302" cy="302" r="302" fill="url(#paint0_linear_418_67)"/>
<circle cx="302" cy="302" r="264" fill="url(#paint1_linear_418_67)"/>
<path d="M381.957 375.916C370.672 375.916 359.869 374.333 349.547 371.168C339.225 367.865 331.037 363.667 324.981 358.575L334.271 337.725C340.051 342.267 347.207 346.051 355.74 349.079C364.273 352.107 373.012 353.621 381.957 353.621C389.526 353.621 395.651 352.795 400.33 351.143C405.009 349.492 408.449 347.29 410.651 344.538C412.853 341.647 413.954 338.413 413.954 334.835C413.954 330.431 412.372 326.922 409.206 324.307C406.041 321.554 401.912 319.421 396.82 317.907C391.866 316.256 386.292 314.742 380.099 313.366C374.044 311.99 367.92 310.407 361.726 308.618C355.671 306.691 350.097 304.283 345.005 301.393C340.051 298.365 335.991 294.374 332.826 289.42C329.66 284.465 328.078 278.134 328.078 270.428C328.078 262.583 330.142 255.427 334.271 248.958C338.537 242.353 344.937 237.123 353.469 233.269C362.139 229.278 373.08 227.283 386.292 227.283C394.962 227.283 403.564 228.384 412.096 230.586C420.629 232.788 428.061 235.953 434.391 240.082L425.928 260.932C419.459 257.078 412.785 254.257 405.903 252.468C399.022 250.541 392.416 249.578 386.086 249.578C378.654 249.578 372.599 250.472 367.92 252.261C363.378 254.05 360.006 256.39 357.804 259.28C355.74 262.17 354.708 265.473 354.708 269.189C354.708 273.593 356.222 277.171 359.249 279.924C362.415 282.538 366.474 284.603 371.429 286.117C376.521 287.63 382.163 289.144 388.357 290.658C394.55 292.034 400.674 293.617 406.729 295.406C412.922 297.195 418.496 299.535 423.45 302.425C428.542 305.315 432.602 309.237 435.63 314.192C438.795 319.146 440.378 325.408 440.378 332.977C440.378 340.684 438.245 347.84 433.978 354.446C429.85 360.915 423.45 366.144 414.78 370.135C406.11 373.989 395.169 375.916 381.957 375.916Z" fill="white"/>
<path d="M140 373.851V229.347H162.088L225.257 334.835H213.697L275.834 229.347L298.779 229.842L277.898 269.189L225.051 357.337H213.078L159.405 269.189H165.598V373.851H140Z" fill="white"/>
<path d="M275.021 276.714L301.749 261.001V373.851H275.021V276.714Z" fill="white"/>
<path d="M452.591 229V184.213L455.509 187.402H441.869V181.499H459.309V229H452.591ZM488.225 229.543C484.38 229.543 481.055 228.977 478.25 227.846C475.445 226.715 473.273 225.109 471.735 223.028C470.197 220.902 469.428 218.414 469.428 215.564C469.428 212.759 470.152 210.384 471.599 208.439C473.092 206.448 475.241 204.955 478.046 203.96C480.851 202.92 484.244 202.399 488.225 202.399C492.206 202.399 495.599 202.92 498.404 203.96C501.254 204.955 503.425 206.448 504.918 208.439C506.411 210.429 507.158 212.804 507.158 215.564C507.158 218.414 506.389 220.902 504.85 223.028C503.312 225.109 501.118 226.715 498.268 227.846C495.418 228.977 492.07 229.543 488.225 229.543ZM488.225 224.046C492.025 224.046 494.988 223.277 497.114 221.739C499.286 220.156 500.372 218.029 500.372 215.36C500.372 212.736 499.286 210.678 497.114 209.185C494.988 207.647 492.025 206.878 488.225 206.878C484.47 206.878 481.53 207.647 479.403 209.185C477.277 210.678 476.214 212.736 476.214 215.36C476.214 218.029 477.277 220.156 479.403 221.739C481.53 223.277 484.47 224.046 488.225 224.046ZM488.225 201.721C491.527 201.721 494.106 201.042 495.961 199.685C497.861 198.328 498.811 196.473 498.811 194.12C498.811 191.723 497.838 189.845 495.893 188.488C493.948 187.131 491.392 186.452 488.225 186.452C485.058 186.452 482.525 187.131 480.625 188.488C478.77 189.845 477.843 191.723 477.843 194.12C477.843 196.473 478.747 198.328 480.557 199.685C482.412 201.042 484.968 201.721 488.225 201.721ZM488.225 206.064C484.606 206.064 481.53 205.589 478.996 204.639C476.463 203.643 474.517 202.241 473.16 200.431C471.803 198.577 471.124 196.382 471.124 193.849C471.124 191.18 471.826 188.895 473.228 186.995C474.676 185.05 476.689 183.557 479.268 182.517C481.846 181.476 484.832 180.956 488.225 180.956C491.663 180.956 494.672 181.476 497.25 182.517C499.829 183.557 501.842 185.05 503.29 186.995C504.737 188.895 505.461 191.18 505.461 193.849C505.461 196.382 504.783 198.577 503.425 200.431C502.068 202.241 500.1 203.643 497.522 204.639C494.943 205.589 491.844 206.064 488.225 206.064Z" fill="white"/>
<g filter="url(#filter0_d_418_67)">
<path d="M422.092 421.302C421.691 421.121 421.261 421.491 421.381 421.915L421.687 422.987L421.992 424.06L422.298 425.133L422.603 426.205L422.909 427.278L423.214 428.351L423.52 429.423L423.825 430.496L424.131 431.569L424.436 432.641L424.742 433.714L425.047 434.787L425.353 435.859L425.659 436.932L425.964 438.005L426.27 439.078L426.575 440.15L426.881 441.223L427.186 442.296L427.492 443.368L427.797 444.441L428.103 445.514L428.408 446.586L428.714 447.659L429.019 448.732L429.325 449.804L429.63 450.877L429.936 451.95L430.241 453.022L430.547 454.095L430.74 454.772C430.778 454.907 430.964 454.92 431.022 454.793L431.191 454.417L431.36 454.042L431.529 453.667L431.698 453.292L431.867 452.916L432.037 452.541L432.206 452.166L432.375 451.791L432.544 451.416L432.713 451.04L432.882 450.665L433.051 450.29L433.221 449.915L433.39 449.539L433.559 449.164L433.728 448.789L433.897 448.414L434.066 448.039L434.235 447.663L434.405 447.288L434.574 446.913L434.743 446.538L434.912 446.162L435.081 445.787L435.25 445.412L435.419 445.037L435.589 444.662L435.758 444.286L435.927 443.911L436.096 443.536C436.175 443.361 436.409 443.327 436.534 443.472L436.613 443.564L436.961 443.967L437.308 444.37L437.656 444.774L438.003 445.177L438.351 445.58L438.699 445.984L439.046 446.387L439.394 446.79L439.741 447.194L440.089 447.597L440.437 448L440.784 448.403L441.132 448.807L441.48 449.21L441.827 449.613L442.175 450.017L442.522 450.42L442.87 450.823L443.218 451.226L443.565 451.63L443.913 452.033L444.261 452.436L444.608 452.84L444.956 453.243L445.303 453.646L445.651 454.049L445.999 454.453L446.346 454.856L446.694 455.259L447.042 455.663L447.264 455.921C447.333 456.001 447.454 456.01 447.534 455.941L447.68 455.816L447.825 455.69L447.97 455.565L448.115 455.44L448.26 455.315L448.405 455.19L448.551 455.065L448.696 454.94L448.841 454.815L448.986 454.689L449.131 454.564L449.277 454.439L449.422 454.314L449.567 454.189L449.712 454.064L449.857 453.939L450.002 453.813L450.148 453.688L450.293 453.563L450.438 453.438L450.583 453.313L450.728 453.188L450.873 453.063L451.019 452.937L451.164 452.812L451.309 452.687L451.454 452.562L451.599 452.437L451.744 452.312L451.89 452.187C451.97 452.118 451.979 451.996 451.91 451.916L451.687 451.658L451.34 451.255L450.992 450.852L450.644 450.448L450.297 450.045L449.949 449.642L449.601 449.238L449.254 448.835L448.906 448.432L448.559 448.029L448.211 447.625L447.863 447.222L447.516 446.819L447.168 446.415L446.82 446.012L446.473 445.609L446.125 445.206L445.778 444.802L445.43 444.399L445.082 443.996L444.735 443.592L444.387 443.189L444.039 442.786L443.692 442.383L443.344 441.979L442.997 441.576L442.649 441.173L442.301 440.769L441.954 440.366L441.606 439.963L441.258 439.56L441.18 439.468C441.054 439.323 441.122 439.096 441.307 439.044L441.703 438.932L442.099 438.82L442.495 438.708L442.891 438.596L443.287 438.484L443.683 438.372L444.079 438.26L444.475 438.149L444.871 438.037L445.267 437.925L445.664 437.813L446.06 437.701L446.456 437.589L446.852 437.477L447.248 437.365L447.644 437.253L448.04 437.141L448.436 437.029L448.832 436.917L449.228 436.805L449.624 436.693L450.02 436.581L450.416 436.469L450.812 436.357L451.208 436.245L451.604 436.133L452.001 436.021L452.397 435.909L452.793 435.797L453.189 435.685C453.324 435.647 453.338 435.461 453.21 435.403L452.569 435.113L451.553 434.652L450.537 434.192L449.521 433.732L448.505 433.271L447.489 432.811L446.473 432.351L445.458 431.89L444.442 431.43L443.426 430.97L442.41 430.509L441.394 430.049L440.378 429.589L439.362 429.128L438.346 428.668L437.33 428.207L436.314 427.747L435.298 427.287L434.282 426.826L433.267 426.366L432.251 425.906L431.235 425.445L430.219 424.985L429.203 424.525L428.187 424.064L427.171 423.604L426.155 423.144L425.139 422.683L424.123 422.223L423.107 421.763L422.092 421.302Z" fill="white"/>
</g>
<defs>
<filter id="filter0_d_418_67" x="418.361" y="421.255" width="34.9377" height="38.7323" filterUnits="userSpaceOnUse" color-interpolation-filters="sRGB">
<feFlood flood-opacity="0" result="BackgroundImageFix"/>
<feColorMatrix in="SourceAlpha" type="matrix" values="0 0 0 0 0 0 0 0 0 0 0 0 0 0 0 0 0 0 127 0" result="hardAlpha"/>
<feOffset dx="-3" dy="4"/>
<feComposite in2="hardAlpha" operator="out"/>
<feColorMatrix type="matrix" values="0 0 0 0 0 0 0 0 0 0 0 0 0 0 0 0 0 0 0.12 0"/>
<feBlend mode="normal" in2="BackgroundImageFix" result="effect1_dropShadow_418_67"/>
<feBlend mode="normal" in="SourceGraphic" in2="effect1_dropShadow_418_67" result="shape"/>
</filter>
<linearGradient id="paint0_linear_418_67" x1="514" y1="583" x2="-72" y2="-55" gradientUnits="userSpaceOnUse">
<stop stop-color="#434343"/>
<stop offset="1" stop-color="#A4A4A4"/>
</linearGradient>
<linearGradient id="paint1_linear_418_67" x1="67.6543" y1="173.188" x2="540.48" y2="240.366" gradientUnits="userSpaceOnUse">
<stop stop-color="#D49CFF"/>
<stop offset="0.302885" stop-color="#AF50F8"/>
<stop offset="1" stop-color="#672F92"/>
</linearGradient>
</defs>
</svg>
